<svg width="99" height="60" viewBox="0 0 99 60" fill="none" xmlns="http://www.w3.org/2000/svg">
<g clip-path="url(#clip0_13252_20936)">
<path d="M82.3989 55.2064C65.2373 55.5264 48.0498 56.1506 30.8854 56.1347C23.2968 56.1277 15.1947 55.4055 9.029 50.5178C3.74888 46.3322 0.839554 39.197 4.45425 32.9621C6.22252 29.9121 9.37652 27.8479 12.9786 28.1779C16.4637 28.4972 19.6379 30.7217 20.5158 34.183C20.9101 35.7375 23.3001 35.4027 23.2989 33.8064C23.2906 22.766 24.029 7.38751 36.8747 3.64849C42.5535 1.99555 48.9385 3.29704 53.1296 7.57933C57.2562 11.7956 58.877 18.0457 57.3632 23.7267C56.9821 25.1567 58.6939 26.007 59.7313 25.1052C69.7237 16.4197 86.9695 14.2104 94.204 27.5401C97.3225 33.2859 96.5008 39.8661 92.124 44.709C87.9647 49.3113 82.0226 51.9673 76.4329 54.3856C74.7637 55.1078 76.2051 57.5498 77.8631 56.8324C87.4016 52.7057 99.6796 46.2451 98.9707 34.035C98.2976 22.4427 87.2908 14.3925 76.1628 15.1075C69.2779 15.5499 62.8883 18.6158 57.7276 23.1015L60.0957 24.4801C61.7631 18.2226 60.185 11.4854 56.01 6.54151C51.6262 1.35043 44.6836 -0.710918 38.0881 0.457513C22.3134 3.25204 20.4554 20.7835 20.4652 33.8064L23.2483 33.4298C21.6563 27.1533 14.2539 23.7669 8.30164 26.0115C1.82313 28.4545 -1.20415 36.3057 0.441626 42.7411C2.33579 50.1478 9.18198 55.209 16.2182 57.283C25.6817 60.0724 36.1553 58.9023 45.8774 58.721L82.3989 58.0402C84.2202 58.0062 84.2261 55.1724 82.3989 55.2064Z" fill="#757474"/>
</g>
<defs>
<clipPath id="clip0_13252_20936">
<rect width="99" height="58.9784" fill="white" transform="translate(0 0.139893)"/>
</clipPath>
</defs>
</svg>
