<svg width="40" height="41" viewBox="0 0 40 41" fill="none" xmlns="http://www.w3.org/2000/svg">
<path d="M20.0065 3.95923C10.8399 3.95923 3.33984 11.4426 3.33984 20.6592C3.33984 28.9926 9.43985 35.9093 17.4065 37.1593V25.4926H13.1732V20.6592H17.4065V16.9759C17.4065 12.7926 19.8899 10.4926 23.7065 10.4926C25.5232 10.4926 27.4232 10.8092 27.4232 10.8092V14.9259H25.3232C23.2565 14.9259 22.6065 16.2092 22.6065 17.5259V20.6592H27.2399L26.4899 25.4926H22.6065V37.1593C26.534 36.539 30.1102 34.5351 32.6898 31.5094C35.2693 28.4836 36.6822 24.6353 36.6732 20.6592C36.6732 11.4426 29.1732 3.95923 20.0065 3.95923Z" fill="black"/>
</svg>
