<svg width="40" height="41" viewBox="0 0 40 41" fill="none" xmlns="http://www.w3.org/2000/svg">
<path d="M21.7091 3.89365C22.9253 3.88899 24.1416 3.90121 25.3575 3.93032L25.6808 3.94199C26.0541 3.95532 26.4225 3.97199 26.8675 3.99199C28.6408 4.07532 29.8508 4.35532 30.9125 4.76699C32.0125 5.19032 32.9391 5.76365 33.8658 6.69032C34.7131 7.523 35.3688 8.53023 35.7875 9.64199C36.1991 10.7037 36.4791 11.9153 36.5625 13.6887C36.5825 14.132 36.5991 14.502 36.6125 14.8753L36.6225 15.1987C36.6521 16.414 36.6649 17.6297 36.6608 18.8453L36.6625 20.0887V22.272C36.6666 23.4882 36.6538 24.7045 36.6241 25.9203L36.6141 26.2437C36.6008 26.617 36.5841 26.9853 36.5641 27.4303C36.4808 29.2037 36.1975 30.4137 35.7875 31.4753C35.3702 32.5883 34.7143 33.5963 33.8658 34.4287C33.0324 35.2759 32.0246 35.9316 30.9125 36.3503C29.8508 36.762 28.6408 37.042 26.8675 37.1254C26.4225 37.1454 26.0541 37.162 25.6808 37.1754L25.3575 37.1853C24.1416 37.215 22.9253 37.2278 21.7091 37.2237L20.4658 37.2253H18.2841C17.0679 37.2295 15.8516 37.2167 14.6358 37.187L14.3124 37.177C13.9168 37.1627 13.5212 37.146 13.1258 37.127C11.3524 37.0437 10.1424 36.7603 9.0791 36.3503C7.9669 35.9326 6.95949 35.2767 6.12742 34.4287C5.27917 33.5958 4.6228 32.5879 4.20409 31.4753C3.79242 30.4137 3.51242 29.2037 3.42909 27.4303C3.41052 27.0349 3.39386 26.6393 3.37909 26.2437L3.37075 25.9203C3.34003 24.7045 3.32614 23.4882 3.32909 22.272V18.8453C3.32444 17.6297 3.33666 16.414 3.36575 15.1987L3.37742 14.8753C3.39075 14.502 3.40742 14.132 3.42742 13.6887C3.51075 11.9137 3.79075 10.7053 4.20242 9.64199C4.62138 8.52969 5.27903 7.52273 6.12909 6.69199C6.96058 5.84324 7.96736 5.18627 9.0791 4.76699C10.1424 4.35532 11.3508 4.07532 13.1258 3.99199L14.3124 3.94199L14.6358 3.93365C15.8511 3.90294 17.0668 3.88905 18.2824 3.89199L21.7091 3.89365ZM19.9958 12.227C18.8916 12.2114 17.7954 12.4154 16.7707 12.8271C15.7461 13.2388 14.8135 13.8501 14.0272 14.6254C13.2408 15.4007 12.6164 16.3246 12.1902 17.3433C11.7641 18.362 11.5446 19.4552 11.5446 20.5595C11.5446 21.6638 11.7641 22.757 12.1902 23.7757C12.6164 24.7944 13.2408 25.7183 14.0272 26.4936C14.8135 27.2689 15.7461 27.8802 16.7707 28.2919C17.7954 28.7036 18.8916 28.9076 19.9958 28.892C22.2059 28.892 24.3255 28.014 25.8883 26.4512C27.4512 24.8884 28.3291 22.7688 28.3291 20.5587C28.3291 18.3485 27.4512 16.2289 25.8883 14.6661C24.3255 13.1033 22.2059 12.227 19.9958 12.227ZM19.9958 15.5603C20.66 15.5481 21.3199 15.6683 21.9371 15.914C22.5543 16.1597 23.1163 16.5259 23.5904 16.9912C24.0645 17.4566 24.4411 18.0117 24.6982 18.6242C24.9553 19.2368 25.0878 19.8944 25.0879 20.5587C25.088 21.2229 24.9557 21.8806 24.6988 22.4932C24.4419 23.1058 24.0655 23.6611 23.5916 24.1266C23.1177 24.5921 22.5558 24.9585 21.9387 25.2043C21.3215 25.4502 20.6616 25.5707 19.9974 25.5587C18.6714 25.5587 17.3996 25.0319 16.4619 24.0942C15.5242 23.1565 14.9974 21.8848 14.9974 20.5587C14.9974 19.2326 15.5242 17.9608 16.4619 17.0231C17.3996 16.0854 18.6714 15.5587 19.9974 15.5587L19.9958 15.5603ZM28.7458 9.72699C28.2081 9.74851 27.6996 9.97724 27.3268 10.3653C26.954 10.7533 26.7458 11.2705 26.7458 11.8087C26.7458 12.3468 26.954 12.864 27.3268 13.252C27.6996 13.6401 28.2081 13.8688 28.7458 13.8903C29.2983 13.8903 29.8282 13.6708 30.2189 13.2801C30.6096 12.8894 30.8291 12.3595 30.8291 11.807C30.8291 11.2545 30.6096 10.7246 30.2189 10.3339C29.8282 9.94315 29.2983 9.72366 28.7458 9.72366V9.72699Z" fill="black"/>
</svg>
