<svg width="40" height="41" viewBox="0 0 40 41" fill="none" xmlns="http://www.w3.org/2000/svg">
<path d="M31.6706 5.55835C32.5547 5.55835 33.4025 5.90954 34.0276 6.53466C34.6528 7.15978 35.0039 8.00763 35.0039 8.89169V32.225C35.0039 33.1091 34.6528 33.9569 34.0276 34.5821C33.4025 35.2072 32.5547 35.5584 31.6706 35.5584H8.33724C7.45319 35.5584 6.60534 35.2072 5.98022 34.5821C5.3551 33.9569 5.00391 33.1091 5.00391 32.225V8.89169C5.00391 8.00763 5.3551 7.15978 5.98022 6.53466C6.60534 5.90954 7.45319 5.55835 8.33724 5.55835H31.6706ZM30.8373 31.3917V22.5584C30.8373 21.1174 30.2648 19.7354 29.2459 18.7164C28.2269 17.6975 26.8449 17.125 25.4039 17.125C23.9873 17.125 22.3373 17.9917 21.5373 19.2917V17.4417H16.8873V31.3917H21.5373V23.175C21.5373 21.8917 22.5706 20.8417 23.8539 20.8417C24.4728 20.8417 25.0663 21.0875 25.5038 21.5251C25.9414 21.9627 26.1873 22.5562 26.1873 23.175V31.3917H30.8373ZM11.4706 14.825C12.2132 14.825 12.9254 14.53 13.4505 14.0049C13.9756 13.4798 14.2706 12.7676 14.2706 12.025C14.2706 10.475 13.0206 9.20835 11.4706 9.20835C10.7236 9.20835 10.0071 9.50511 9.47889 10.0333C8.95067 10.5616 8.65391 11.278 8.65391 12.025C8.65391 13.575 9.92058 14.825 11.4706 14.825ZM13.7873 31.3917V17.4417H9.17058V31.3917H13.7873Z" fill="black"/>
</svg>
