<svg width="40" height="41" viewBox="0 0 40 41" fill="none" xmlns="http://www.w3.org/2000/svg">
<path d="M6.66537 33.892C5.74871 33.892 4.9637 33.5654 4.31037 32.912C3.65703 32.2587 3.33092 31.4743 3.33203 30.5587V10.5587C3.33203 9.64201 3.6587 8.85701 4.31204 8.20368C4.96537 7.55034 5.74982 7.22423 6.66537 7.22534H33.3321C34.2488 7.22534 35.0338 7.55201 35.6871 8.20535C36.3404 8.85868 36.6665 9.64312 36.6654 10.5587V30.5587C36.6654 31.4754 36.3388 32.2604 35.6854 32.9137C35.0321 33.567 34.2476 33.8931 33.3321 33.892H6.66537ZM19.9987 21.9337C20.1376 21.9337 20.2837 21.9126 20.4371 21.8704C20.5904 21.8281 20.736 21.7659 20.8737 21.6837L32.6654 14.3087C32.8876 14.1698 33.0543 13.9959 33.1654 13.787C33.2765 13.5781 33.3321 13.3492 33.3321 13.1003C33.3321 12.5448 33.096 12.1281 32.6238 11.8503C32.1515 11.5726 31.6654 11.5865 31.1654 11.892L19.9987 18.892L8.83204 11.892C8.33204 11.5865 7.84593 11.5798 7.37371 11.872C6.90149 12.1642 6.66537 12.5737 6.66537 13.1003C6.66537 13.3781 6.72093 13.6215 6.83204 13.8304C6.94315 14.0392 7.10982 14.1987 7.33204 14.3087L19.1237 21.6837C19.2626 21.767 19.4087 21.8298 19.5621 21.872C19.7154 21.9142 19.861 21.9348 19.9987 21.9337Z" fill="black"/>
</svg>
