<svg width="40" height="41" viewBox="0 0 40 41" fill="none" xmlns="http://www.w3.org/2000/svg">
<path d="M37.437 10.5587C36.1537 11.142 34.7704 11.5253 33.337 11.7087C34.8037 10.8253 35.937 9.42534 36.4704 7.74201C35.087 8.57534 33.5537 9.15868 31.937 9.49201C30.6204 8.05868 28.7704 7.22534 26.6704 7.22534C22.7537 7.22534 19.5537 10.4253 19.5537 14.3754C19.5537 14.942 19.6203 15.492 19.737 16.0087C13.8037 15.7087 8.52032 12.8587 5.00365 8.54201C4.38698 9.59201 4.03698 10.8253 4.03698 12.1253C4.03698 14.6087 5.28698 16.8087 7.22032 18.0587C6.03699 18.0587 4.93698 17.7254 3.97032 17.2254V17.2754C3.97032 20.742 6.43699 23.642 9.70366 24.292C8.65487 24.579 7.55381 24.619 6.48699 24.4087C6.93967 25.8295 7.82622 27.0727 9.02202 27.9636C10.2178 28.8545 11.6627 29.3482 13.1537 29.3754C10.6264 31.3761 7.49365 32.4576 4.27032 32.442C3.70365 32.442 3.13698 32.4087 2.57031 32.342C5.73699 34.3754 9.50366 35.5587 13.537 35.5587C26.6704 35.5587 33.887 24.6587 33.887 15.2087C33.887 14.892 33.887 14.592 33.8704 14.2753C35.2704 13.2753 36.4704 12.0087 37.437 10.5587Z" fill="black"/>
</svg>
