<svg width="40" height="41" viewBox="0 0 40 41" fill="none" xmlns="http://www.w3.org/2000/svg">
<path d="M20.1275 5.55542H20.35C22.405 5.56292 32.8176 5.63792 35.6251 6.39292C36.4738 6.62334 37.2472 7.07248 37.868 7.69544C38.4887 8.31841 38.9351 9.09338 39.1626 9.94292C39.4151 10.8929 39.5926 12.1504 39.7126 13.4479L39.7376 13.7079L39.7926 14.3579L39.8126 14.6179C39.9751 16.9029 39.9951 19.0429 39.9976 19.5104V19.6979C39.9951 20.1829 39.9726 22.4679 39.7926 24.8479L39.7726 25.1104L39.7501 25.3704C39.6251 26.8004 39.4401 28.2204 39.1626 29.2654C38.9358 30.1153 38.4897 30.8907 37.8688 31.5137C37.2479 32.1368 36.4741 32.5857 35.6251 32.8155C32.7251 33.5955 21.7025 33.6505 20.175 33.653H19.82C19.0475 33.653 15.8525 33.638 12.5025 33.523L12.0775 33.508L11.86 33.498L11.4325 33.4805L11.005 33.463C8.23001 33.3405 5.58751 33.143 4.37001 32.813C3.52123 32.5834 2.74767 32.1349 2.12681 31.5123C1.50596 30.8897 1.05962 30.1149 0.832501 29.2654C0.555001 28.2229 0.370001 26.8004 0.245 25.3704L0.225 25.1079L0.205 24.8479C0.0816191 23.1539 0.0132497 21.4564 0 19.7579L0 19.4504C0.00500001 18.9129 0.025 17.0554 0.16 15.0054L0.1775 14.7479L0.185 14.6179L0.205 14.3579L0.26 13.7079L0.285001 13.4479C0.405001 12.1504 0.582501 10.8904 0.835001 9.94292C1.06174 9.09304 1.50791 8.3177 2.12879 7.69463C2.74966 7.07156 3.52343 6.62265 4.37251 6.39292C5.59001 6.06792 8.23251 5.86792 11.0075 5.74292L11.4325 5.72542L11.8625 5.71042L12.0775 5.70292L12.505 5.68542C14.8843 5.60886 17.2645 5.56635 19.645 5.55792H20.1275V5.55542ZM16 13.5804V25.6254L26.3925 19.6054L16 13.5804Z" fill="black"/>
</svg>
