<svg width="80" height="81" viewBox="0 0 80 81" fill="none" xmlns="http://www.w3.org/2000/svg">
<g clip-path="url(#clip0_13252_20938)">
<path d="M40.2374 0.139893C24.0552 0.150043 8.56948 10.4786 2.63454 25.5903C-3.35146 40.832 1.10214 59.691 13.5671 70.388C25.9459 81.0111 44.6898 83.3773 59.0547 75.432C73.2381 67.5871 81.8588 51.1092 79.6588 34.9968C78.3302 25.2667 73.4065 16.0001 65.801 9.73114C58.0899 3.37518 48.1093 0.101703 38.1332 0.711081C36.6216 0.803411 36.6111 3.16825 38.1332 3.07527C55.2814 2.02778 71.1248 13.0173 76.0594 29.4939C80.5569 44.511 74.8541 60.8705 62.4779 70.3674C50.1518 79.8259 32.7888 80.0526 19.6945 71.9616C6.35073 63.7164 -0.103172 46.9853 3.22728 31.7868C6.93519 14.8657 23.0458 2.51486 40.2374 2.50408C41.7586 2.50312 41.7612 0.138931 40.2374 0.139893Z" fill="#757474"/>
<path d="M21.5797 52.5411C26.326 57.3776 32.8888 60.1434 39.6536 60.3343C46.8021 60.536 53.4976 57.6456 58.4599 52.5412C59.5211 51.4497 57.8511 49.7762 56.7882 50.8695C52.2403 55.5476 46.203 58.1549 39.6536 57.9701C33.503 57.7965 27.5623 55.2622 23.2515 50.8694C22.1841 49.7817 20.5127 51.4538 21.5797 52.5411Z" fill="#757474"/>
<path d="M27.3788 25.386C26.7386 25.5494 26.2428 26.0735 26.0665 26.704C25.8806 27.369 26.0818 28.0727 26.5455 28.5732C27.4151 29.5118 28.8802 29.4233 29.8806 28.7565C30.9329 28.0551 31.6491 26.7276 30.9566 25.5129C30.3018 24.3645 28.8764 24.1005 27.6869 24.4473C26.6336 24.7544 25.6216 25.5567 25.4229 26.6911C25.3141 27.3126 25.3798 27.9541 25.7326 28.4935C26.0674 29.0054 26.5487 29.3432 27.1114 29.5616C28.1765 29.9751 29.291 29.6354 30.2833 29.1944C31.0994 28.8317 31.9918 28.3383 32.4195 27.5136C32.7153 26.9433 32.8241 26.2471 32.5873 25.6342C32.3504 25.0213 31.9207 24.5044 31.3337 24.1935C30.1585 23.571 28.8912 23.8595 27.7141 24.3083C27.4187 24.4209 27.1724 24.5699 27.0076 24.8516C26.8593 25.1049 26.7965 25.4784 26.8885 25.7624C27.0703 26.3242 27.724 26.8239 28.3426 26.5881C28.6545 26.4691 28.9677 26.3504 29.2908 26.2648C29.3782 26.2416 29.4676 26.2261 29.5549 26.203C29.843 26.1267 29.2991 26.2112 29.5954 26.1934C29.655 26.1898 29.7141 26.1847 29.7737 26.1834C29.8333 26.182 29.8929 26.1828 29.9525 26.1858C30.094 26.1977 30.0721 26.1924 29.8868 26.1698C29.9008 26.1872 30.1953 26.2706 30.228 26.265L30.0766 26.2027C30.1195 26.2233 30.1616 26.2456 30.2028 26.2695L30.2637 26.3065C30.3665 26.377 30.3441 26.3568 30.1965 26.2459C30.21 26.2815 30.2959 26.3339 30.3254 26.364C30.4595 26.5006 30.3026 26.4294 30.2953 26.3092C30.2962 26.3244 30.3858 26.4751 30.3988 26.4839C30.3278 26.3029 30.3124 26.2714 30.3524 26.3892C30.3736 26.4843 30.3757 26.4759 30.3586 26.3642C30.359 26.1434 30.3496 26.3737 30.3521 26.412C30.3677 26.6541 30.4176 26.1334 30.3542 26.3613C30.2909 26.5888 30.5022 26.12 30.3781 26.3203C30.3563 26.3555 30.332 26.396 30.3123 26.433C30.2035 26.6385 30.5044 26.2398 30.3348 26.404C30.2856 26.4516 30.2406 26.5027 30.19 26.549C30.1656 26.5713 29.9844 26.7104 30.1483 26.5906C30.319 26.4658 30.0671 26.6426 30.036 26.6628C29.8122 26.8077 29.5741 26.928 29.3331 27.0413C29.2524 27.0792 29.171 27.1157 29.09 27.153C28.8912 27.2445 29.0961 27.1563 29.1258 27.1391C28.9564 27.2374 28.7259 27.2896 28.5372 27.3375C28.4805 27.3519 28.4221 27.3617 28.3655 27.3767C28.0882 27.4503 28.6186 27.3809 28.3316 27.3819C28.2501 27.3821 28.1694 27.3896 28.0877 27.3862C28.0512 27.3846 27.8211 27.3754 28.0422 27.387C28.2523 27.3979 28.0445 27.3805 27.9984 27.3686C27.9478 27.3556 27.8533 27.3042 27.8031 27.307L27.9601 27.3737C27.9192 27.3548 27.879 27.3343 27.8397 27.3123C27.7844 27.2813 27.7283 27.225 27.6708 27.2037L27.8069 27.3054C27.7739 27.2764 27.7424 27.2458 27.7123 27.2138C27.5409 27.0598 27.8466 27.4486 27.7383 27.2453C27.7287 27.2272 27.6955 27.1473 27.6761 27.1293L27.7459 27.288C27.73 27.24 27.7172 27.1912 27.7076 27.1415L27.7304 27.3064C27.727 27.2563 27.7266 27.206 27.7291 27.1558C27.7203 26.91 27.6707 27.3515 27.7256 27.208C27.7322 27.1909 27.7757 27.0233 27.7817 27.0258C27.7097 27.1894 27.7023 27.2142 27.7596 27.1C27.7845 27.0554 27.8114 27.0121 27.8405 26.97C27.8438 26.9716 27.6579 27.1774 27.8252 27.0039C27.8383 26.9903 27.9599 26.8708 27.9632 26.8744L27.8433 26.9662C27.8844 26.9366 27.9264 26.9086 27.9695 26.882C28.0347 26.8418 28.1029 26.8091 28.1697 26.772C28.3299 26.6829 28.1107 26.8307 28.0977 26.8C28.0965 26.7972 28.3007 26.7313 28.3153 26.7271C28.3928 26.7045 28.4717 26.6896 28.5496 26.669C28.8026 26.6021 28.346 26.6608 28.5879 26.6633C28.6323 26.6637 28.8203 26.6319 28.8535 26.6637L28.7142 26.6424C28.7721 26.6523 28.8293 26.6655 28.8857 26.682C29.152 26.7292 28.7387 26.5859 28.8535 26.6637C28.8763 26.679 28.9875 26.762 29.0063 26.759L28.879 26.6658C28.9143 26.6983 28.9475 26.7329 28.9786 26.7695L28.8788 26.645C28.9398 26.755 28.9318 26.7243 28.855 26.553C28.852 26.559 28.8978 26.6979 28.8937 26.6904C28.8735 26.498 28.865 26.4662 28.8684 26.595C28.9018 26.4007 28.9051 26.3669 28.8782 26.4938C28.8018 26.7361 29.0234 26.2615 28.8889 26.482C28.8714 26.515 28.8522 26.547 28.8314 26.5781C28.7829 26.6511 28.8074 26.6223 28.9049 26.4918C28.9126 26.5029 28.7605 26.6487 28.748 26.6607C28.7107 26.6963 28.6723 26.7305 28.6325 26.7632C28.7717 26.6587 28.79 26.6427 28.6873 26.7151C28.6412 26.7408 28.5973 26.7723 28.5516 26.7987C28.5028 26.8267 28.4532 26.8532 28.4027 26.878C28.2844 26.9329 28.3009 26.9261 28.4522 26.8574C28.445 26.871 28.2168 26.934 28.2106 26.9256L28.3604 26.9084C28.3051 26.9138 28.2497 26.9159 28.1942 26.9147C27.9166 26.9374 28.4562 26.9804 28.2203 26.9157C27.9945 26.8537 28.4827 27.0267 28.2158 26.9118C28.0803 26.8535 28.4239 27.1157 28.2642 26.9508C28.1805 26.8598 28.1992 26.8871 28.3201 27.0327C28.2598 26.924 28.2702 26.9567 28.3511 27.1309C28.2795 26.9134 28.3478 27.4309 28.3598 27.2017L28.3319 27.3929C28.3399 27.3523 28.3511 27.3125 28.3653 27.2736L28.2972 27.4439C28.3622 27.3412 28.3364 27.372 28.2197 27.5362C28.3082 27.4536 28.2752 27.4782 28.1207 27.61C27.9265 27.6804 27.8886 27.699 28.0073 27.6658C28.6065 27.5128 29.0269 26.8112 28.8329 26.2116C28.6326 25.5927 28.021 25.2221 27.3788 25.386Z" fill="#757474"/>
<path d="M49.5936 25.386C48.9534 25.5494 48.4577 26.0735 48.2814 26.704C48.0955 27.369 48.2966 28.0727 48.7603 28.5732C49.6299 29.5118 51.095 29.4233 52.0954 28.7565C53.1478 28.0551 53.864 26.7276 53.1714 25.5129C52.5167 24.3645 51.0912 24.1005 49.9017 24.4473C48.8484 24.7544 47.8365 25.5567 47.6378 26.6911C47.5289 27.3126 47.5946 27.9541 47.9474 28.4935C48.2823 29.0054 48.7635 29.3432 49.3263 29.5616C50.3913 29.9751 51.5058 29.6354 52.4981 29.1944C53.3142 28.8317 54.2067 28.3383 54.6344 27.5136C54.9301 26.9433 55.0389 26.2471 54.8021 25.6342C54.5653 25.0213 54.1355 24.5044 53.5485 24.1935C52.3734 23.571 51.106 23.8595 49.9289 24.3083C49.6336 24.4209 49.3873 24.5699 49.2225 24.8516C49.0742 25.1049 49.0114 25.4784 49.1033 25.7624C49.2851 26.3242 49.9388 26.8239 50.5574 26.5881C50.8694 26.4691 51.1825 26.3504 51.5056 26.2648C51.593 26.2416 51.6825 26.2261 51.7697 26.203C52.0579 26.1267 51.514 26.2112 51.8102 26.1934C51.8698 26.1898 51.9289 26.1847 51.9886 26.1834C52.0482 26.182 52.1078 26.1828 52.1674 26.1858C52.3088 26.1977 52.2869 26.1924 52.1017 26.1698C52.1156 26.1872 52.4102 26.2706 52.4428 26.265L52.2915 26.2027C52.3344 26.2233 52.3764 26.2456 52.4176 26.2695L52.4785 26.3065C52.5813 26.377 52.559 26.3568 52.4114 26.2459C52.4248 26.2815 52.5107 26.3339 52.5402 26.364C52.6744 26.5006 52.5174 26.4294 52.5101 26.3092C52.511 26.3244 52.6007 26.4751 52.6136 26.4839C52.5427 26.3029 52.5272 26.2714 52.5672 26.3892C52.5884 26.4843 52.5905 26.4759 52.5734 26.3642C52.5738 26.1434 52.5645 26.3737 52.5669 26.412C52.5825 26.6541 52.6324 26.1334 52.569 26.3613C52.5058 26.5888 52.7171 26.12 52.5929 26.3203C52.5711 26.3555 52.5468 26.396 52.5272 26.433C52.4184 26.6385 52.7192 26.2398 52.5496 26.404C52.5005 26.4516 52.4555 26.5027 52.4048 26.549C52.3804 26.5713 52.1992 26.7104 52.3632 26.5906C52.5338 26.4658 52.2819 26.6426 52.2508 26.6628C52.027 26.8077 51.789 26.928 51.5479 27.0413C51.4672 27.0792 51.3858 27.1157 51.3048 27.153C51.106 27.2445 51.311 27.1563 51.3407 27.1391C51.1713 27.2374 50.9407 27.2896 50.7521 27.3375C50.6953 27.3519 50.6369 27.3617 50.5803 27.3767C50.3031 27.4503 50.8335 27.3809 50.5464 27.3819C50.4649 27.3821 50.3842 27.3896 50.3025 27.3862C50.266 27.3846 50.0359 27.3754 50.257 27.387C50.4672 27.3979 50.2594 27.3805 50.2133 27.3686C50.1627 27.3556 50.0681 27.3042 50.018 27.307L50.1749 27.3737C50.134 27.3548 50.0939 27.3343 50.0545 27.3123C49.9993 27.2813 49.9431 27.225 49.8857 27.2037L50.0217 27.3054C49.9887 27.2764 49.9572 27.2458 49.9272 27.2138C49.7557 27.0598 50.0615 27.4486 49.9532 27.2453C49.9436 27.2272 49.9104 27.1473 49.891 27.1293L49.9608 27.288C49.9448 27.24 49.932 27.1912 49.9224 27.1415L49.9453 27.3064C49.9419 27.2563 49.9415 27.206 49.9439 27.1558C49.9352 26.91 49.8856 27.3515 49.9404 27.208C49.947 27.1909 49.9905 27.0233 49.9965 27.0258C49.9245 27.1894 49.9171 27.2142 49.9744 27.1C49.9993 27.0554 50.0263 27.0121 50.0553 26.97C50.0587 26.9716 49.8727 27.1774 50.04 27.0039C50.0531 26.9903 50.1747 26.8708 50.178 26.8744L50.0581 26.9662C50.0992 26.9366 50.1413 26.9086 50.1844 26.882C50.2495 26.8418 50.3178 26.8091 50.3845 26.772C50.5447 26.6829 50.3255 26.8307 50.3125 26.8C50.3114 26.7972 50.5155 26.7313 50.5302 26.7271C50.6077 26.7045 50.6865 26.6896 50.7644 26.669C51.0175 26.6021 50.5609 26.6608 50.8028 26.6633C50.8472 26.6637 51.0351 26.6319 51.0684 26.6637L50.9291 26.6424C50.987 26.6523 51.0442 26.6655 51.1006 26.682C51.3668 26.7292 50.9535 26.5859 51.0684 26.6637C51.0911 26.679 51.2023 26.762 51.2211 26.759L51.0938 26.6658C51.1292 26.6983 51.1624 26.7329 51.1934 26.7695L51.0936 26.645C51.1546 26.755 51.1467 26.7243 51.0698 26.553C51.0669 26.559 51.1126 26.6979 51.1086 26.6904C51.0883 26.498 51.0799 26.4662 51.0832 26.595C51.1167 26.4007 51.1199 26.3669 51.0931 26.4938C51.0167 26.7361 51.2382 26.2615 51.1038 26.482C51.0862 26.515 51.067 26.547 51.0463 26.5781C50.9977 26.6511 51.0222 26.6223 51.1197 26.4918C51.1275 26.5029 50.9753 26.6487 50.9628 26.6607C50.9256 26.6963 50.8871 26.7305 50.8474 26.7632C50.9865 26.6587 51.0048 26.6427 50.9021 26.7151C50.856 26.7408 50.8121 26.7723 50.7664 26.7987C50.7176 26.8267 50.668 26.8532 50.6175 26.878C50.4992 26.9329 50.5157 26.9261 50.667 26.8574C50.6598 26.871 50.4317 26.934 50.4254 26.9256L50.5752 26.9084C50.5199 26.9138 50.4645 26.9159 50.409 26.9147C50.1315 26.9374 50.6711 26.9804 50.4351 26.9157C50.2094 26.8537 50.6976 27.0267 50.4306 26.9118C50.2951 26.8535 50.6387 27.1157 50.4791 26.9508C50.3954 26.8598 50.414 26.8871 50.5349 27.0327C50.4747 26.924 50.485 26.9567 50.5659 27.1309C50.4944 26.9134 50.5627 27.4309 50.5746 27.2017L50.5467 27.3929C50.5548 27.3523 50.5659 27.3125 50.5801 27.2736L50.5121 27.4439C50.5771 27.3412 50.5512 27.372 50.4346 27.5362C50.523 27.4536 50.49 27.4782 50.3356 27.61C50.1413 27.6804 50.1035 27.699 50.2221 27.6658C50.8214 27.5128 51.2418 26.8112 51.0477 26.2116C50.8474 25.5927 50.2358 25.2221 49.5936 25.386Z" fill="#757474"/>
</g>
<defs>
<clipPath id="clip0_13252_20938">
<rect width="80" height="80.0085" fill="white" transform="translate(0 0.139893)"/>
</clipPath>
</defs>
</svg>
