<svg width="108" height="91" viewBox="0 0 108 91" fill="none" xmlns="http://www.w3.org/2000/svg">
<g clip-path="url(#clip0_13252_20933)">
<path d="M59.3199 38.0956C53.0871 37.6986 46.31 37.5863 41.3129 41.9464C37.2976 45.4497 35.9495 52.4141 40.2137 56.3262C44.7983 60.5321 52.5005 58.5369 57.755 56.9075C63.033 55.2708 70.4364 52.3858 70.4252 45.7389C70.4204 42.8486 68.5375 40.452 65.966 39.2915C62.8993 37.9077 59.4668 38.3153 56.2409 38.7931C52.7546 39.3095 49.325 40.2044 46.0313 41.4587C43.3918 42.464 40.3104 43.6422 39.2572 46.5279C38.282 49.2002 39.6325 51.9447 42.3917 52.6981C43.5205 53.0063 44.7206 52.9734 45.8744 52.8831C47.8365 52.7295 49.7964 52.5176 51.7534 52.3108C54.4658 52.0243 57.6456 52.0353 60.0559 50.5699C62.2942 49.2091 63.192 46.5201 61.7639 44.2098C59.9202 41.2273 56.0095 41.2555 52.9246 41.4137C49.6265 41.5828 45.9134 42.8319 45.0643 46.4492C44.368 49.4157 46.6725 51.928 49.4683 52.4671C52.9524 53.139 55.8271 50.8419 58.1835 48.5833C59.2606 47.5508 58.4206 45.7282 56.9906 45.7035C55.3727 45.6756 53.7548 45.6477 52.1369 45.6198C49.965 45.5823 49.9646 48.9561 52.1369 48.9936C53.7548 49.0215 55.3727 49.0495 56.9906 49.0774L55.7978 46.1976C54.4366 47.5023 52.6857 49.3002 50.6367 49.224C49.0389 49.1645 47.5909 47.87 48.786 46.3226C50.1285 44.5845 52.8829 44.7506 54.8415 44.7472C55.9491 44.7452 59.5495 44.8431 59.0929 46.8233C58.7864 48.1521 56.2807 48.4151 55.2227 48.5533C52.7399 48.8776 50.2386 49.1024 47.746 49.3375C46.5771 49.4478 43.2187 50.2402 42.4297 48.9089C41.416 47.1984 44.3741 45.7732 45.4987 45.284C49.8787 43.3791 54.753 42.1412 59.5158 41.7754C61.6572 41.611 64.1092 41.6413 65.8189 43.1403C67.3857 44.5141 67.3076 46.6097 66.2804 48.2933C65.2213 50.0294 63.3447 51.0743 61.5485 51.9005C59.4216 52.8788 57.1671 53.6198 54.9048 54.2128C51.3669 55.14 45.7153 56.7092 42.5994 53.9405C39.2597 50.9731 41.3916 45.8282 44.5146 43.7104C48.8573 40.7653 54.3322 41.1518 59.3199 41.4694C61.488 41.6075 61.4797 38.2331 59.3199 38.0956Z" fill="#757474"/>
<path d="M47.9471 39.0399C47.1696 32.2103 47.1061 25.3212 47.9038 18.4889C48.2909 15.1733 49.5467 1.61448 55.7321 3.72761C60.7134 5.42938 59.5843 15.8662 59.2795 19.7724C58.7537 26.5095 56.8761 33.0788 53.9017 39.1367L56.9849 40.4366C59.034 33.2688 62.1418 26.4871 66.3262 20.3106C69.9821 14.9143 76.1072 6.49442 83.4391 11.3106C90.2759 15.8015 88.9581 24.7251 84.3749 30.3147C82.314 32.8281 79.6109 34.7139 77.1195 36.7675C74.2794 39.1086 71.4535 41.0526 67.9538 42.2803C66.0956 42.9323 66.5205 45.3885 68.4023 45.5939C75.4241 46.3604 82.468 46.8509 89.5018 47.4856C92.9021 47.7924 96.4576 47.9113 99.7816 48.7247C103.888 49.7296 106.24 53.289 103.26 57.0715C99.2233 62.1945 89.5486 62.1321 83.6957 61.4266C76.7682 60.5915 70.1261 57.7704 64.7009 53.3937C63.6821 52.5717 61.7 52.9809 61.8212 54.5865C62.2828 60.7024 65.7075 65.4245 68.5737 70.6355C71.0499 75.1372 73.8617 83.8323 67.484 86.7865C60.7477 89.9068 56.764 80.8306 56.3226 75.7909C55.7712 69.4951 57.0442 63.2217 55.0922 57.0684C54.6937 55.8121 53.2373 55.4758 52.2727 56.324C47.8374 60.2242 46.7171 66.0251 45.6555 71.5654C44.6607 76.7567 42.6655 85.0023 36.1622 85.5097C32.7091 85.7791 29.6346 83.211 28.2526 80.2123C26.7484 76.9482 27.4024 73.1896 29.0244 70.0956C32.0328 64.3572 37.6348 61.1221 43.3821 58.7096C45.3146 57.8984 44.6285 54.8034 42.4852 55.4562C36.2533 57.3543 29.9932 58.125 23.5259 58.6997C17.05 59.2751 8.11043 60.2368 4.28839 53.5451C2.57027 50.537 3.49329 46.9503 5.81958 44.5562C8.38625 41.9147 12.006 41.1103 15.5677 41.6525C23.0353 42.7894 28.2823 48.8364 32.9929 54.2077C34.0966 55.4663 36.3355 54.1382 35.8124 52.5664C33.4785 45.554 31.1446 38.5416 28.8108 31.5292C27.0964 26.3781 23.0356 15.8107 30.6828 13.2472C37.1335 11.0848 38.1702 21.5185 39.3057 25.4041C40.7331 30.2891 43.5605 34.452 44.6335 39.4884C45.0857 41.6108 48.3388 40.7127 47.8869 38.5915C47.1938 35.3386 46.0313 32.4167 44.5671 29.4474C42.9727 26.2142 42.292 22.9532 41.3763 19.499C39.9934 14.282 36.3035 8.08989 29.9351 9.92544C22.7394 11.9994 22.0724 20.444 23.6723 26.4892C26.0826 35.5959 29.5844 44.5256 32.559 53.4633L35.3785 51.822C29.735 45.3868 23.1508 38.4332 13.9756 38.1101C6.7419 37.8553 -0.923866 43.6095 0.0908755 51.4398C1.1636 59.7174 10.3111 62.6458 17.4723 62.5045C26.1144 62.3339 35.1064 61.2302 43.3821 58.7096L42.4852 55.4562C35.8108 58.2579 29.2767 62.0102 25.909 68.7748C22.6195 75.3824 23.7836 83.9651 30.7981 87.6446C37.4089 91.1124 43.7055 86.7449 46.5014 80.6381C49.7097 73.6306 48.4865 64.137 54.6584 58.7097L51.8389 57.9653C54.2929 65.7016 51.3736 74.047 54.1083 81.7382C55.9806 87.0037 61.3938 91.8908 67.3658 90.3816C72.8909 88.9854 75.3573 82.7786 74.6617 77.5589C73.5338 69.0963 65.8402 63.1337 65.195 54.5865L62.3153 55.7794C68.7252 60.9506 76.3665 64.1165 84.5794 64.8943C91.6497 65.5638 102.772 64.9565 106.756 57.9371C108.395 55.0494 108.562 51.3151 106.362 48.6654C104.089 45.9277 100.402 45.2794 97.0599 44.8754C87.5356 43.7242 77.9391 43.2611 68.4023 42.2202L68.8508 45.5337C72.9103 44.1096 76.2085 41.8683 79.5052 39.1533C82.8281 36.4167 86.1965 33.9336 88.5646 30.2656C92.9577 23.4611 92.855 14.3513 86.1198 9.1074C78.7989 3.40755 71.3656 8.2001 66.4629 14.4401C60.6069 21.8932 56.3349 30.4333 53.7316 39.5398C53.2183 41.3353 55.9558 42.5893 56.8149 40.8396C60.4236 33.4899 62.5223 25.5192 62.7914 17.322C62.9671 11.9746 63.1095 2.3146 56.5243 0.419555C50.1761 -1.40727 46.6881 6.12694 45.6807 11.0807C43.8119 20.2705 43.5138 29.7338 44.5733 39.04C44.8161 41.1726 48.1927 41.1972 47.9471 39.0399Z" fill="#757474"/>
</g>
<defs>
<clipPath id="clip0_13252_20933">
<rect width="108" height="90.5196" fill="white" transform="translate(0 0.139893)"/>
</clipPath>
</defs>
</svg>
