<svg width="91" height="56" viewBox="0 0 91 56" fill="none" xmlns="http://www.w3.org/2000/svg">
<path d="M28.3788 19.7844C28.3779 22.8091 29.1693 25.7625 30.6742 28.3657L28.2349 37.2599L37.3493 34.8733C39.8702 36.2439 42.6948 36.962 45.5651 36.9622H45.5726C55.048 36.9622 62.7611 29.2622 62.7652 19.798C62.767 15.2119 60.9802 10.8994 57.7339 7.65495C54.4881 4.41077 50.1713 2.62319 45.5719 2.62109C36.0954 2.62109 28.3828 10.3206 28.3789 19.7844" fill="url(#paint0_linear_4564_147300)"/>
<g filter="url(#filter0_d_4564_147300)">
<path d="M27.7647 19.779C27.7638 22.9125 28.5835 25.9715 30.142 28.6679L27.6152 37.881L37.0565 35.4088C39.6579 36.8253 42.5868 37.572 45.5671 37.5732H45.5747C55.39 37.5732 63.3803 29.5962 63.3845 19.7932C63.3861 15.0423 61.5351 10.5748 58.1728 7.21414C54.81 3.85386 50.3389 2.00195 45.5747 2C35.7578 2 27.7687 9.97581 27.7647 19.779ZM33.3872 28.2035L33.0347 27.6447C31.5528 25.2916 30.7706 22.5723 30.7717 19.7801C30.7749 11.632 37.4152 5.00279 45.5803 5.00279C49.5345 5.00447 53.2506 6.54381 56.0456 9.33674C58.8405 12.13 60.3784 15.843 60.3775 19.7921C60.3738 27.9402 53.7335 34.5702 45.5747 34.5702H45.5689C42.9123 34.5688 40.3069 33.8564 38.0347 32.51L37.494 32.1898L31.8913 33.6567L33.3872 28.2034V28.2035Z" fill="url(#paint1_linear_4564_147300)"/>
</g>
<path d="M41.1237 12.3466C40.7903 11.6066 40.4395 11.5917 40.1224 11.5787C39.8628 11.5675 39.5661 11.5684 39.2696 11.5684C38.9728 11.5684 38.4906 11.6799 38.083 12.1243C37.675 12.5691 36.5254 13.6441 36.5254 15.8305C36.5254 18.017 38.1201 20.13 38.3424 20.4267C38.5649 20.723 41.4209 25.3533 45.944 27.1346C49.7031 28.6149 50.4681 28.3205 51.284 28.2463C52.1 28.1723 53.9169 27.1716 54.2876 26.1339C54.6586 25.0963 54.6586 24.2069 54.5474 24.021C54.4361 23.8359 54.1394 23.7247 53.6943 23.5025C53.2492 23.2802 51.0614 22.2051 50.6535 22.0568C50.2455 21.9086 49.9489 21.8347 49.6521 22.2796C49.3554 22.7239 48.5032 23.7247 48.2434 24.021C47.984 24.3181 47.7242 24.3551 47.2794 24.1328C46.8341 23.9098 45.4009 23.4411 43.7006 21.9273C42.3777 20.7493 41.4846 19.2947 41.225 18.8497C40.9654 18.4054 41.1972 18.1646 41.4203 17.9432C41.6203 17.744 41.8655 17.4242 42.0882 17.1648C42.3101 16.9053 42.3841 16.7201 42.5325 16.4238C42.6811 16.1271 42.6067 15.8676 42.4956 15.6453C42.3841 15.423 41.5194 13.2252 41.1237 12.3466Z" fill="white"/>
<path d="M0.37 49.51C0.37 48.83 0.526667 48.22 0.84 47.68C1.16 47.14 1.59 46.72 2.13 46.42C2.67667 46.1133 3.27333 45.96 3.92 45.96C4.66 45.96 5.31667 46.1433 5.89 46.51C6.47 46.87 6.89 47.3833 7.15 48.05H5.78C5.6 47.6833 5.35 47.41 5.03 47.23C4.71 47.05 4.34 46.96 3.92 46.96C3.46 46.96 3.05 47.0633 2.69 47.27C2.33 47.4767 2.04667 47.7733 1.84 48.16C1.64 48.5467 1.54 48.9967 1.54 49.51C1.54 50.0233 1.64 50.4733 1.84 50.86C2.04667 51.2467 2.33 51.5467 2.69 51.76C3.05 51.9667 3.46 52.07 3.92 52.07C4.34 52.07 4.71 51.98 5.03 51.8C5.35 51.62 5.6 51.3467 5.78 50.98H7.15C6.89 51.6467 6.47 52.16 5.89 52.52C5.31667 52.88 4.66 53.06 3.92 53.06C3.26667 53.06 2.67 52.91 2.13 52.61C1.59 52.3033 1.16 51.88 0.84 51.34C0.526667 50.8 0.37 50.19 0.37 49.51ZM11.0344 47.4C11.4544 47.4 11.8277 47.49 12.1544 47.67C12.4877 47.85 12.7477 48.1167 12.9344 48.47C13.1277 48.8233 13.2244 49.25 13.2244 49.75V53H12.0944V49.92C12.0944 49.4267 11.971 49.05 11.7244 48.79C11.4777 48.5233 11.141 48.39 10.7144 48.39C10.2877 48.39 9.94771 48.5233 9.69437 48.79C9.44771 49.05 9.32437 49.4267 9.32437 49.92V53H8.18437V45.6H9.32437V48.13C9.51771 47.8967 9.76104 47.7167 10.0544 47.59C10.3544 47.4633 10.681 47.4 11.0344 47.4ZM13.9985 50.22C13.9985 49.6667 14.1118 49.1767 14.3385 48.75C14.5718 48.3233 14.8852 47.9933 15.2785 47.76C15.6785 47.52 16.1185 47.4 16.5985 47.4C17.0318 47.4 17.4085 47.4867 17.7285 47.66C18.0552 47.8267 18.3152 48.0367 18.5085 48.29V47.49H19.6585V53H18.5085V52.18C18.3152 52.44 18.0518 52.6567 17.7185 52.83C17.3852 53.0033 17.0052 53.09 16.5785 53.09C16.1052 53.09 15.6718 52.97 15.2785 52.73C14.8852 52.4833 14.5718 52.1433 14.3385 51.71C14.1118 51.27 13.9985 50.7733 13.9985 50.22ZM18.5085 50.24C18.5085 49.86 18.4285 49.53 18.2685 49.25C18.1152 48.97 17.9118 48.7567 17.6585 48.61C17.4052 48.4633 17.1318 48.39 16.8385 48.39C16.5452 48.39 16.2718 48.4633 16.0185 48.61C15.7652 48.75 15.5585 48.96 15.3985 49.24C15.2452 49.5133 15.1685 49.84 15.1685 50.22C15.1685 50.6 15.2452 50.9333 15.3985 51.22C15.5585 51.5067 15.7652 51.7267 16.0185 51.88C16.2785 52.0267 16.5518 52.1 16.8385 52.1C17.1318 52.1 17.4052 52.0267 17.6585 51.88C17.9118 51.7333 18.1152 51.52 18.2685 51.24C18.4285 50.9533 18.5085 50.62 18.5085 50.24ZM22.1859 48.42V51.47C22.1859 51.6767 22.2325 51.8267 22.3259 51.92C22.4259 52.0067 22.5925 52.05 22.8259 52.05H23.5259V53H22.6259C22.1125 53 21.7192 52.88 21.4459 52.64C21.1725 52.4 21.0359 52.01 21.0359 51.47V48.42H20.3859V47.49H21.0359V46.12H22.1859V47.49H23.5259V48.42H22.1859ZM28.9642 53.09C28.4442 53.09 27.9742 52.9733 27.5542 52.74C27.1342 52.5 26.8042 52.1667 26.5642 51.74C26.3242 51.3067 26.2042 50.8067 26.2042 50.24C26.2042 49.68 26.3276 49.1833 26.5742 48.75C26.8209 48.3167 27.1576 47.9833 27.5842 47.75C28.0109 47.5167 28.4876 47.4 29.0142 47.4C29.5409 47.4 30.0176 47.5167 30.4442 47.75C30.8709 47.9833 31.2076 48.3167 31.4542 48.75C31.7009 49.1833 31.8242 49.68 31.8242 50.24C31.8242 50.8 31.6976 51.2967 31.4442 51.73C31.1909 52.1633 30.8442 52.5 30.4042 52.74C29.9709 52.9733 29.4909 53.09 28.9642 53.09ZM28.9642 52.1C29.2576 52.1 29.5309 52.03 29.7842 51.89C30.0442 51.75 30.2542 51.54 30.4142 51.26C30.5742 50.98 30.6542 50.64 30.6542 50.24C30.6542 49.84 30.5776 49.5033 30.4242 49.23C30.2709 48.95 30.0676 48.74 29.8142 48.6C29.5609 48.46 29.2876 48.39 28.9942 48.39C28.7009 48.39 28.4276 48.46 28.1742 48.6C27.9276 48.74 27.7309 48.95 27.5842 49.23C27.4376 49.5033 27.3642 49.84 27.3642 50.24C27.3642 50.8333 27.5142 51.2933 27.8142 51.62C28.1209 51.94 28.5042 52.1 28.9642 52.1ZM35.4312 47.4C35.8645 47.4 36.2512 47.49 36.5912 47.67C36.9378 47.85 37.2078 48.1167 37.4012 48.47C37.5945 48.8233 37.6912 49.25 37.6912 49.75V53H36.5612V49.92C36.5612 49.4267 36.4378 49.05 36.1912 48.79C35.9445 48.5233 35.6078 48.39 35.1812 48.39C34.7545 48.39 34.4145 48.5233 34.1612 48.79C33.9145 49.05 33.7912 49.4267 33.7912 49.92V53H32.6512V47.49H33.7912V48.12C33.9778 47.8933 34.2145 47.7167 34.5012 47.59C34.7945 47.4633 35.1045 47.4 35.4312 47.4ZM50.193 46.05L48.133 53H46.843L45.383 47.74L43.833 53L42.553 53.01L40.583 46.05H41.793L43.233 51.71L44.793 46.05H46.073L47.523 51.68L48.973 46.05H50.193ZM53.6832 47.4C54.1032 47.4 54.4765 47.49 54.8032 47.67C55.1365 47.85 55.3965 48.1167 55.5832 48.47C55.7765 48.8233 55.8732 49.25 55.8732 49.75V53H54.7432V49.92C54.7432 49.4267 54.6199 49.05 54.3732 48.79C54.1265 48.5233 53.7899 48.39 53.3632 48.39C52.9365 48.39 52.5965 48.5233 52.3432 48.79C52.0965 49.05 51.9732 49.4267 51.9732 49.92V53H50.8332V45.6H51.9732V48.13C52.1665 47.8967 52.4099 47.7167 52.7032 47.59C53.0032 47.4633 53.3299 47.4 53.6832 47.4ZM56.6473 50.22C56.6473 49.6667 56.7607 49.1767 56.9873 48.75C57.2207 48.3233 57.534 47.9933 57.9273 47.76C58.3273 47.52 58.7673 47.4 59.2473 47.4C59.6807 47.4 60.0573 47.4867 60.3773 47.66C60.704 47.8267 60.964 48.0367 61.1573 48.29V47.49H62.3073V53H61.1573V52.18C60.964 52.44 60.7007 52.6567 60.3673 52.83C60.034 53.0033 59.654 53.09 59.2273 53.09C58.754 53.09 58.3207 52.97 57.9273 52.73C57.534 52.4833 57.2207 52.1433 56.9873 51.71C56.7607 51.27 56.6473 50.7733 56.6473 50.22ZM61.1573 50.24C61.1573 49.86 61.0773 49.53 60.9173 49.25C60.764 48.97 60.5607 48.7567 60.3073 48.61C60.054 48.4633 59.7807 48.39 59.4873 48.39C59.194 48.39 58.9207 48.4633 58.6673 48.61C58.414 48.75 58.2073 48.96 58.0473 49.24C57.894 49.5133 57.8173 49.84 57.8173 50.22C57.8173 50.6 57.894 50.9333 58.0473 51.22C58.2073 51.5067 58.414 51.7267 58.6673 51.88C58.9273 52.0267 59.2007 52.1 59.4873 52.1C59.7807 52.1 60.054 52.0267 60.3073 51.88C60.5607 51.7333 60.764 51.52 60.9173 51.24C61.0773 50.9533 61.1573 50.62 61.1573 50.24ZM64.8347 48.42V51.47C64.8347 51.6767 64.8814 51.8267 64.9747 51.92C65.0747 52.0067 65.2414 52.05 65.4747 52.05H66.1747V53H65.2747C64.7614 53 64.368 52.88 64.0947 52.64C63.8214 52.4 63.6847 52.01 63.6847 51.47V48.42H63.0347V47.49H63.6847V46.12H64.8347V47.49H66.1747V48.42H64.8347ZM68.9254 53.09C68.4921 53.09 68.1021 53.0133 67.7554 52.86C67.4154 52.7 67.1454 52.4867 66.9454 52.22C66.7454 51.9467 66.6387 51.6433 66.6254 51.31H67.8054C67.8254 51.5433 67.9354 51.74 68.1354 51.9C68.3421 52.0533 68.5987 52.13 68.9054 52.13C69.2254 52.13 69.4721 52.07 69.6454 51.95C69.8254 51.8233 69.9154 51.6633 69.9154 51.47C69.9154 51.2633 69.8154 51.11 69.6154 51.01C69.4221 50.91 69.1121 50.8 68.6854 50.68C68.2721 50.5667 67.9354 50.4567 67.6754 50.35C67.4154 50.2433 67.1887 50.08 66.9954 49.86C66.8087 49.64 66.7154 49.35 66.7154 48.99C66.7154 48.6967 66.8021 48.43 66.9754 48.19C67.1487 47.9433 67.3954 47.75 67.7154 47.61C68.0421 47.47 68.4154 47.4 68.8354 47.4C69.4621 47.4 69.9654 47.56 70.3454 47.88C70.7321 48.1933 70.9387 48.6233 70.9654 49.17H69.8254C69.8054 48.9233 69.7054 48.7267 69.5254 48.58C69.3454 48.4333 69.1021 48.36 68.7954 48.36C68.4954 48.36 68.2654 48.4167 68.1054 48.53C67.9454 48.6433 67.8654 48.7933 67.8654 48.98C67.8654 49.1267 67.9187 49.25 68.0254 49.35C68.1321 49.45 68.2621 49.53 68.4154 49.59C68.5687 49.6433 68.7954 49.7133 69.0954 49.8C69.4954 49.9067 69.8221 50.0167 70.0754 50.13C70.3354 50.2367 70.5587 50.3967 70.7454 50.61C70.9321 50.8233 71.0287 51.1067 71.0354 51.46C71.0354 51.7733 70.9487 52.0533 70.7754 52.3C70.6021 52.5467 70.3554 52.74 70.0354 52.88C69.7221 53.02 69.3521 53.09 68.9254 53.09ZM71.5872 50.22C71.5872 49.6667 71.7005 49.1767 71.9272 48.75C72.1605 48.3233 72.4739 47.9933 72.8672 47.76C73.2672 47.52 73.7072 47.4 74.1872 47.4C74.6205 47.4 74.9972 47.4867 75.3172 47.66C75.6439 47.8267 75.9039 48.0367 76.0972 48.29V47.49H77.2472V53H76.0972V52.18C75.9039 52.44 75.6405 52.6567 75.3072 52.83C74.9739 53.0033 74.5939 53.09 74.1672 53.09C73.6939 53.09 73.2605 52.97 72.8672 52.73C72.4739 52.4833 72.1605 52.1433 71.9272 51.71C71.7005 51.27 71.5872 50.7733 71.5872 50.22ZM76.0972 50.24C76.0972 49.86 76.0172 49.53 75.8572 49.25C75.7039 48.97 75.5005 48.7567 75.2472 48.61C74.9939 48.4633 74.7205 48.39 74.4272 48.39C74.1339 48.39 73.8605 48.4633 73.6072 48.61C73.3539 48.75 73.1472 48.96 72.9872 49.24C72.8339 49.5133 72.7572 49.84 72.7572 50.22C72.7572 50.6 72.8339 50.9333 72.9872 51.22C73.1472 51.5067 73.3539 51.7267 73.6072 51.88C73.8672 52.0267 74.1405 52.1 74.4272 52.1C74.7205 52.1 74.9939 52.0267 75.2472 51.88C75.5005 51.7333 75.7039 51.52 75.8572 51.24C76.0172 50.9533 76.0972 50.62 76.0972 50.24ZM79.5845 48.3C79.7779 48.0467 80.0412 47.8333 80.3745 47.66C80.7079 47.4867 81.0845 47.4 81.5045 47.4C81.9845 47.4 82.4212 47.52 82.8145 47.76C83.2145 47.9933 83.5279 48.3233 83.7545 48.75C83.9812 49.1767 84.0945 49.6667 84.0945 50.22C84.0945 50.7733 83.9812 51.27 83.7545 51.71C83.5279 52.1433 83.2145 52.4833 82.8145 52.73C82.4212 52.97 81.9845 53.09 81.5045 53.09C81.0845 53.09 80.7112 53.0067 80.3845 52.84C80.0579 52.6667 79.7912 52.4533 79.5845 52.2V55.62H78.4445V47.49H79.5845V48.3ZM82.9345 50.22C82.9345 49.84 82.8545 49.5133 82.6945 49.24C82.5412 48.96 82.3345 48.75 82.0745 48.61C81.8212 48.4633 81.5479 48.39 81.2545 48.39C80.9679 48.39 80.6945 48.4633 80.4345 48.61C80.1812 48.7567 79.9745 48.97 79.8145 49.25C79.6612 49.53 79.5845 49.86 79.5845 50.24C79.5845 50.62 79.6612 50.9533 79.8145 51.24C79.9745 51.52 80.1812 51.7333 80.4345 51.88C80.6945 52.0267 80.9679 52.1 81.2545 52.1C81.5479 52.1 81.8212 52.0267 82.0745 51.88C82.3345 51.7267 82.5412 51.5067 82.6945 51.22C82.8545 50.9333 82.9345 50.6 82.9345 50.22ZM86.0619 48.3C86.2552 48.0467 86.5185 47.8333 86.8519 47.66C87.1852 47.4867 87.5619 47.4 87.9819 47.4C88.4619 47.4 88.8985 47.52 89.2919 47.76C89.6919 47.9933 90.0052 48.3233 90.2319 48.75C90.4585 49.1767 90.5719 49.6667 90.5719 50.22C90.5719 50.7733 90.4585 51.27 90.2319 51.71C90.0052 52.1433 89.6919 52.4833 89.2919 52.73C88.8985 52.97 88.4619 53.09 87.9819 53.09C87.5619 53.09 87.1885 53.0067 86.8619 52.84C86.5352 52.6667 86.2685 52.4533 86.0619 52.2V55.62H84.9219V47.49H86.0619V48.3ZM89.4119 50.22C89.4119 49.84 89.3319 49.5133 89.1719 49.24C89.0185 48.96 88.8119 48.75 88.5519 48.61C88.2985 48.4633 88.0252 48.39 87.7319 48.39C87.4452 48.39 87.1719 48.4633 86.9119 48.61C86.6585 48.7567 86.4519 48.97 86.2919 49.25C86.1385 49.53 86.0619 49.86 86.0619 50.24C86.0619 50.62 86.1385 50.9533 86.2919 51.24C86.4519 51.52 86.6585 51.7333 86.9119 51.88C87.1719 52.0267 87.4452 52.1 87.7319 52.1C88.0252 52.1 88.2985 52.0267 88.5519 51.88C88.8119 51.7267 89.0185 51.5067 89.1719 51.22C89.3319 50.9333 89.4119 50.6 89.4119 50.22Z" fill="#60D66A"/>
<defs>
<filter id="filter0_d_4564_147300" x="24.7352" y="0.56" width="41.529" height="41.6409" filterUnits="userSpaceOnUse" color-interpolation-filters="sRGB">
<feFlood flood-opacity="0" result="BackgroundImageFix"/>
<feColorMatrix in="SourceAlpha" type="matrix" values="0 0 0 0 0 0 0 0 0 0 0 0 0 0 0 0 0 0 127 0" result="hardAlpha"/>
<feOffset dy="1.44"/>
<feGaussianBlur stdDeviation="1.44"/>
<feComposite in2="hardAlpha" operator="out"/>
<feColorMatrix type="matrix" values="0 0 0 0 0 0 0 0 0 0 0 0 0 0 0 0 0 0 0.11 0"/>
<feBlend mode="normal" in2="BackgroundImageFix" result="effect1_dropShadow_4564_147300"/>
<feBlend mode="normal" in="SourceGraphic" in2="effect1_dropShadow_4564_147300" result="shape"/>
</filter>
<linearGradient id="paint0_linear_4564_147300" x1="1754.75" y1="3466.51" x2="1754.75" y2="2.62109" gradientUnits="userSpaceOnUse">
<stop stop-color="#1FAF38"/>
<stop offset="1" stop-color="#60D669"/>
</linearGradient>
<linearGradient id="paint1_linear_4564_147300" x1="1816.08" y1="3590.1" x2="1816.08" y2="2" gradientUnits="userSpaceOnUse">
<stop stop-color="#F9F9F9"/>
<stop offset="1" stop-color="white"/>
</linearGradient>
</defs>
</svg>
