<svg width="91" height="84" viewBox="0 0 91 84" fill="none" xmlns="http://www.w3.org/2000/svg">
<path d="M45.9557 70.7536L45.5007 71.2086L45.0002 70.7536C23.3874 51.1428 9.10014 38.1751 9.10014 25.0254C9.10014 15.9252 15.9252 9.10014 25.0254 9.10014C32.0325 9.10014 38.8576 13.6502 41.2691 19.8383H49.7323C52.1438 13.6502 58.9689 9.10014 65.976 9.10014C75.0762 9.10014 81.9013 15.9252 81.9013 25.0254C81.9013 38.1751 67.6141 51.1428 45.9557 70.7536ZM65.976 0C58.0589 0 50.4603 3.68556 45.5007 9.46415C40.5411 3.68556 32.9425 0 25.0254 0C11.0112 0 0 10.9657 0 25.0254C0 42.1792 15.4702 56.2389 38.9031 77.4877L45.5007 83.4938L52.0983 77.4877C75.5312 56.2389 91.0014 42.1792 91.0014 25.0254C91.0014 10.9657 79.9902 0 65.976 0Z" fill="black"/>
<circle cx="19" cy="21.5063" r="13" fill="black"/>
<circle cx="13" cy="13" r="13" transform="matrix(-1 0 0 1 87 8.50635)" fill="black"/>
<circle cx="14" cy="14" r="14" transform="matrix(-1 0 0 1 59 45.5063)" fill="black"/>
<circle cx="30" cy="18.5063" r="13" fill="black"/>
<circle cx="13" cy="13" r="13" transform="matrix(-1 0 0 1 76 5.50635)" fill="black"/>
<ellipse cx="45.5" cy="38.0063" rx="38.5" ry="23.5" fill="black"/>
</svg>
