<svg width="108" height="91" viewBox="0 0 108 91" fill="none" xmlns="http://www.w3.org/2000/svg">
<g clip-path="url(#clip0_6454_12694)">
<path d="M59.3189 38.1563C53.0861 37.7594 46.309 37.6471 41.3119 42.0071C37.2966 45.5105 35.9485 52.4749 40.2128 56.387C44.7974 60.5929 52.4995 58.5977 57.7541 56.9683C63.0321 55.3316 70.4354 52.4466 70.4243 45.7997C70.4194 42.9094 68.5365 40.5128 65.965 39.3523C62.8984 37.9685 59.4658 38.3761 56.2399 38.8539C52.7537 39.3703 49.324 40.2652 46.0303 41.5195C43.3908 42.5248 40.3094 43.703 39.2563 46.5887C38.281 49.2609 39.6315 52.0055 42.3907 52.7589C43.5196 53.0671 44.7196 53.0342 45.8734 52.9439C47.8355 52.7903 49.7954 52.5784 51.7524 52.3716C54.4648 52.0851 57.6447 52.0961 60.0549 50.6307C62.2933 49.2699 63.191 46.5808 61.7629 44.2706C59.9192 41.2881 56.0085 41.3163 52.9236 41.4745C49.6255 41.6436 45.9124 42.8927 45.0633 46.51C44.367 49.4765 46.6715 51.9888 49.4673 52.5279C52.9514 53.1998 55.8261 50.9027 58.1825 48.6441C59.2596 47.6116 58.4197 45.789 56.9896 45.7643C55.3717 45.7364 53.7538 45.7085 52.1359 45.6806C49.964 45.6431 49.9637 49.0169 52.1359 49.0544C53.7538 49.0823 55.3717 49.1103 56.9896 49.1382L55.7968 46.2584C54.4356 47.5631 52.6847 49.361 50.6357 49.2848C49.0379 49.2253 47.5899 47.9308 48.7851 46.3833C50.1275 44.6453 52.8819 44.8114 54.8405 44.808C55.9481 44.806 59.5485 44.9039 59.0919 46.8841C58.7855 48.2129 56.2797 48.4759 55.2217 48.6141C52.7389 48.9384 50.2376 49.1632 47.745 49.3983C46.5762 49.5086 43.2177 50.301 42.4287 48.9697C41.415 47.2592 44.3731 45.834 45.4978 45.3448C49.8777 43.4399 54.752 42.202 59.5148 41.8362C61.6562 41.6718 64.1082 41.7021 65.8179 43.2011C67.3847 44.5749 67.3066 46.6705 66.2794 48.3541C65.2203 50.0901 63.3437 51.1351 61.5475 51.9613C59.4206 52.9395 57.1661 53.6806 54.9038 54.2735C51.3659 55.2008 45.7144 56.77 42.5984 54.0013C39.2588 51.0339 41.3907 45.889 44.5136 43.7712C48.8563 40.826 54.3313 41.2126 59.3189 41.5302C61.487 41.6683 61.4787 38.2939 59.3189 38.1563Z" fill="black"/>
<path d="M47.9471 39.1007C47.1696 32.2711 47.1061 25.382 47.9038 18.5497C48.2909 15.2341 49.5467 1.67527 55.7321 3.78841C60.7134 5.49018 59.5843 15.927 59.2795 19.8332C58.7537 26.5703 56.8761 33.1396 53.9017 39.1975L56.9849 40.4974C59.034 33.3295 62.1418 26.5479 66.3262 20.3714C69.9821 14.9751 76.1072 6.55521 83.4391 11.3714C90.2759 15.8623 88.9581 24.7859 84.3749 30.3755C82.314 32.8888 79.6109 34.7747 77.1195 36.8283C74.2794 39.1694 71.4535 41.1133 67.9538 42.3411C66.0956 42.9931 66.5205 45.4493 68.4023 45.6547C75.4241 46.4212 82.468 46.9116 89.5018 47.5464C92.9021 47.8532 96.4576 47.9721 99.7816 48.7855C103.888 49.7904 106.24 53.3498 103.26 57.1323C99.2233 62.2553 89.5486 62.1929 83.6957 61.4874C76.7682 60.6523 70.1261 57.8312 64.7009 53.4544C63.6821 52.6325 61.7 53.0417 61.8212 54.6473C62.2828 60.7631 65.7075 65.4853 68.5737 70.6963C71.0499 75.198 73.8617 83.8931 67.484 86.8473C60.7477 89.9675 56.764 80.8913 56.3226 75.8517C55.7712 69.5559 57.0442 63.2825 55.0922 57.1292C54.6937 55.8729 53.2373 55.5366 52.2727 56.3848C47.8374 60.285 46.7171 66.0859 45.6555 71.6262C44.6607 76.8175 42.6655 85.0631 36.1622 85.5705C32.7091 85.8399 29.6346 83.2718 28.2526 80.2731C26.7484 77.009 27.4024 73.2503 29.0244 70.1564C32.0328 64.418 37.6348 61.1828 43.3821 58.7703C45.3146 57.9592 44.6285 54.8642 42.4852 55.517C36.2533 57.4151 29.9932 58.1857 23.5259 58.7605C17.05 59.3359 8.11043 60.2976 4.28839 53.6059C2.57027 50.5978 3.49329 47.0111 5.81958 44.617C8.38625 41.9755 12.006 41.171 15.5677 41.7133C23.0353 42.8502 28.2823 48.8972 32.9929 54.2685C34.0966 55.5271 36.3355 54.199 35.8124 52.6272C33.4785 45.6148 31.1446 38.6024 28.8108 31.59C27.0964 26.4389 23.0356 15.8715 30.6828 13.308C37.1335 11.1456 38.1702 21.5793 39.3057 25.4648C40.7331 30.3498 43.5605 34.5128 44.6335 39.5492C45.0857 41.6716 48.3388 40.7734 47.8869 38.6523C47.1938 35.3994 46.0313 32.4775 44.5671 29.5082C42.9727 26.275 42.292 23.014 41.3763 19.5598C39.9934 14.3428 36.3035 8.15068 29.9351 9.98623C22.7394 12.0602 22.0724 20.5048 23.6723 26.5499C26.0826 35.6567 29.5844 44.5864 32.559 53.5241L35.3785 51.8828C29.735 45.4476 23.1508 38.494 13.9756 38.1709C6.7419 37.9161 -0.923866 43.6703 0.0908755 51.5006C1.1636 59.7782 10.3111 62.7066 17.4723 62.5653C26.1144 62.3946 35.1064 61.291 43.3821 58.7703L42.4852 55.517C35.8108 58.3187 29.2767 62.071 25.909 68.8356C22.6195 75.4431 23.7836 84.0259 30.7981 87.7054C37.4089 91.1732 43.7055 86.8057 46.5014 80.6989C49.7097 73.6914 48.4865 64.1978 54.6584 58.7705L51.8389 58.0261C54.2929 65.7624 51.3736 74.1078 54.1083 81.799C55.9806 87.0645 61.3938 91.9516 67.3658 90.4424C72.8909 89.0462 75.3573 82.8394 74.6617 77.6197C73.5338 69.1571 65.8402 63.1945 65.195 54.6473L62.3153 55.8402C68.7252 61.0113 76.3665 64.1773 84.5794 64.9551C91.6497 65.6246 102.772 65.0173 106.756 57.9979C108.395 55.1102 108.562 51.3759 106.362 48.7262C104.089 45.9885 100.402 45.3402 97.0599 44.9362C87.5356 43.7849 77.9391 43.3219 68.4023 42.2809L68.8508 45.5945C72.9103 44.1703 76.2085 41.9291 79.5052 39.2141C82.8281 36.4775 86.1965 33.9944 88.5646 30.3264C92.9577 23.5219 92.855 14.4121 86.1198 9.16819C78.7989 3.46834 71.3656 8.26089 66.4629 14.5009C60.6069 21.954 56.3349 30.4941 53.7316 39.6006C53.2183 41.3961 55.9558 42.6501 56.8149 40.9004C60.4236 33.5507 62.5223 25.58 62.7914 17.3828C62.9671 12.0354 63.1095 2.37539 56.5243 0.480346C50.1761 -1.34648 46.6881 6.18773 45.6807 11.1415C43.8119 20.3313 43.5138 29.7946 44.5733 39.1008C44.8161 41.2334 48.1927 41.258 47.9471 39.1007Z" fill="black"/>
</g>
<defs>
<clipPath id="clip0_6454_12694">
<rect width="108" height="90.5196" fill="white" transform="translate(0 0.200684)"/>
</clipPath>
</defs>
</svg>
