<svg width="49" height="59" viewBox="0 0 49 59" fill="none" xmlns="http://www.w3.org/2000/svg">
<g id="Group">
<path id="Vector" d="M40.5271 30.3146C36.5451 30.3146 33.2555 33.3069 32.7714 37.1598H21.9472V31.1702C22.9642 30.917 23.8433 30.2725 24.3978 29.3387L37.0321 7.97078C37.7714 6.72397 37.7841 5.22682 37.0663 3.9673C36.3486 2.70778 35.0548 1.95578 33.6046 1.95578H31.3828C30.8313 0.803826 29.6637 0 28.3035 0C26.7427 0 22.9251 1.19987 22.9251 3.42262C22.9251 5.64536 26.7427 6.84523 28.3035 6.84523C30.0226 6.84523 31.4366 5.56615 31.6762 3.91156H33.6036C34.3419 3.91156 35.001 4.29489 35.3658 4.93639C35.7315 5.57691 35.7247 6.33966 35.3482 6.97529L22.7138 28.3432C22.3452 28.9651 21.6929 29.3367 20.9693 29.3367C20.2456 29.3367 19.5934 28.9651 19.2179 28.3334L6.23053 6.97431C5.85404 6.33966 5.84719 5.57691 6.21292 4.93639C6.57865 4.29489 7.23775 3.91156 7.97508 3.91156H10.2614C10.5019 5.56615 11.916 6.84523 13.6351 6.84523C15.1958 6.84523 19.0135 5.64536 19.0135 3.42262C19.0135 1.19987 15.1958 0 13.6351 0C12.2749 0 11.1073 0.803826 10.5557 1.95578H7.97508C6.52487 1.95578 5.23112 2.70876 4.51335 3.96828C3.79558 5.2278 3.80829 6.72397 4.55344 7.98056L17.5418 29.3396C18.0953 30.2735 18.9744 30.917 19.9914 31.1702V37.1598H11.1904C5.25948 37.1598 0.433594 41.9857 0.433594 47.9166C0.433594 53.8475 5.25948 58.6734 11.1904 58.6734C17.1213 58.6734 21.9472 53.8475 21.9472 47.9166V39.1156H32.7714C33.2555 42.9685 36.5451 45.9608 40.5271 45.9608C44.8406 45.9608 48.3502 42.4512 48.3502 38.1377C48.3502 33.8242 44.8406 30.3146 40.5271 30.3146ZM28.3035 4.88945C27.0967 4.88945 25.0197 3.92232 24.8828 3.42262C25.0197 2.92291 27.0967 1.95578 28.3035 1.95578C29.1122 1.95578 29.7703 2.6139 29.7703 3.42262C29.7703 4.23133 29.1122 4.88945 28.3035 4.88945ZM13.6351 1.95578C14.8418 1.95578 16.9189 2.92291 17.0558 3.42262C16.9189 3.92232 14.8418 4.88945 13.6351 4.88945C12.8264 4.88945 12.1683 4.23133 12.1683 3.42262C12.1683 2.6139 12.8264 1.95578 13.6351 1.95578ZM19.9914 47.9166C19.9914 52.7699 16.0427 56.7176 11.1904 56.7176C6.33809 56.7176 2.38937 52.7699 2.38937 47.9166C2.38937 43.0633 6.33809 39.1156 11.1904 39.1156H19.9914V47.9166ZM40.5271 44.0051C37.2912 44.0051 34.6597 41.3736 34.6597 38.1377C34.6597 34.9019 37.2912 32.2704 40.5271 32.2704C43.7629 32.2704 46.3944 34.9019 46.3944 38.1377C46.3944 41.3736 43.7629 44.0051 40.5271 44.0051Z" fill="white"/>
<path id="Vector_2" d="M40.5287 34.2261C38.3715 34.2261 36.6172 35.9804 36.6172 38.1376C36.6172 40.2949 38.3715 42.0492 40.5287 42.0492C42.686 42.0492 44.4403 40.2949 44.4403 38.1376C44.4403 35.9804 42.686 34.2261 40.5287 34.2261ZM40.5287 40.0934C39.4501 40.0934 38.573 39.2162 38.573 38.1376C38.573 37.059 39.4501 36.1819 40.5287 36.1819C41.6074 36.1819 42.4845 37.059 42.4845 38.1376C42.4845 39.2162 41.6074 40.0934 40.5287 40.0934Z" fill="white"/>
</g>
</svg>
