<svg width="13" height="14" viewBox="0 0 13 14" fill="none" xmlns="http://www.w3.org/2000/svg">
<path d="M10.7041 4.58061L7.98611 1.51812C7.93155 1.45657 7.85753 1.42195 7.78032 1.42188H3.1209C2.94069 1.42188 2.76786 1.50254 2.64043 1.64612C2.513 1.7897 2.44141 1.98444 2.44141 2.1875V11.8124C2.44141 12.0155 2.513 12.2102 2.64043 12.3538C2.76786 12.4974 2.94069 12.5781 3.1209 12.5781H10.11C10.2902 12.5781 10.4631 12.4974 10.5905 12.3538C10.7179 12.2102 10.7895 12.0155 10.7895 11.8124V4.81248C10.7895 4.72549 10.7587 4.64208 10.7041 4.58061ZM10.2071 11.8124C10.2071 11.8415 10.1969 11.8693 10.1787 11.8898C10.1605 11.9103 10.1358 11.9218 10.11 11.9218H3.1209C3.09516 11.9218 3.07047 11.9103 3.05226 11.8898C3.03406 11.8693 3.02383 11.8415 3.02383 11.8124V2.1875C3.02383 2.15849 3.03406 2.13067 3.05226 2.11016C3.07047 2.08964 3.09516 2.07812 3.1209 2.07812H7.65995L10.2071 4.94865V11.8124ZM3.99455 6.56247V10.5C3.99455 10.587 4.02523 10.6704 4.07984 10.732C4.13445 10.7935 4.20852 10.8281 4.28576 10.8281H8.94518C9.02241 10.8281 9.09648 10.7935 9.1511 10.732C9.20571 10.6704 9.23639 10.587 9.23639 10.5V6.56247C9.23639 6.47545 9.20571 6.39199 9.1511 6.33045C9.09648 6.26892 9.02241 6.23435 8.94518 6.23435H4.28576C4.20852 6.23435 4.13445 6.26892 4.07984 6.33045C4.02523 6.39199 3.99455 6.47545 3.99455 6.56247ZM4.57697 6.8906H8.65396V10.1718H7.68325V8.31246C7.68325 8.22544 7.65257 8.14198 7.59796 8.08045C7.54334 8.01891 7.46927 7.98434 7.39204 7.98434C7.3148 7.98434 7.24073 8.01891 7.18612 8.08045C7.13151 8.14198 7.10082 8.22544 7.10082 8.31246V10.1718H6.13011V8.31246C6.13011 8.22544 6.09943 8.14198 6.04482 8.08045C5.9902 8.01891 5.91613 7.98434 5.8389 7.98434C5.76166 7.98434 5.68759 8.01891 5.63298 8.08045C5.57837 8.14198 5.54768 8.22544 5.54768 8.31246V10.1718H4.57697V6.8906Z" fill="#AFABAB"/>
</svg>
