<svg width="141" height="141" viewBox="0 0 141 141" fill="none" xmlns="http://www.w3.org/2000/svg">
<circle cx="70.5" cy="70.5" r="70.5" fill="#4570DF"/>
<path d="M105.681 62.2087C104.938 62.2087 104.338 61.6069 104.338 60.8655V55.4922C104.338 54.7507 104.938 54.1489 105.681 54.1489C106.424 54.1489 107.024 54.7507 107.024 55.4922V60.8655C107.025 61.6069 106.424 62.2087 105.681 62.2087Z" fill="#4570DF" stroke="#E4E4E4" stroke-width="0.157421"/>
<path d="M108.367 59.5235H102.994C102.251 59.5235 101.65 58.9216 101.65 58.1802C101.65 57.4387 102.251 56.8369 102.994 56.8369H108.367C109.11 56.8369 109.71 57.4387 109.71 58.1802C109.71 58.9216 109.11 59.5235 108.367 59.5235Z" fill="#4570DF" stroke="#E4E4E4" stroke-width="0.157421"/>
<path d="M38.5149 35.3425C38.5149 38.3126 36.1117 40.7158 33.1416 40.7158C36.1117 40.7158 38.5149 43.119 38.5149 46.089C38.5149 43.119 40.9181 40.7158 43.8881 40.7158C40.9181 40.7159 38.5149 38.3128 38.5149 35.3425Z" fill="#4570DF" stroke="#E4E4E4" stroke-width="0.157421"/>
<path d="M42.5779 101.169C42.5779 102.466 41.525 103.519 40.2279 103.519C38.9308 103.519 37.8779 102.466 37.8779 101.169C37.8779 99.8714 38.9308 98.8186 40.2279 98.8186C41.525 98.8186 42.5779 99.8714 42.5779 101.169Z" fill="#4570DF" stroke="#E4E4E4" stroke-width="0.275398"/>
<path d="M36.0476 71.3318C36.0476 72.6289 34.9947 73.6817 33.6976 73.6817C32.4005 73.6817 31.3477 72.6289 31.3477 71.3318C31.3477 70.0347 32.4005 68.9818 33.6976 68.9818C34.9947 68.9818 36.0476 70.0347 36.0476 71.3318Z" fill="#4570DF" stroke="#E4E4E4" stroke-width="0.275398"/>
<path d="M106.912 82.5224C106.912 83.8196 105.859 84.8724 104.562 84.8724C103.265 84.8724 102.212 83.8196 102.212 82.5224C102.212 81.2253 103.265 80.1725 104.562 80.1725C105.859 80.1725 106.912 81.2253 106.912 82.5224Z" fill="#4570DF" stroke="#E4E4E4" stroke-width="0.275398"/>
<path d="M110.643 108.628C110.643 109.925 109.59 110.978 108.293 110.978C106.996 110.978 105.943 109.925 105.943 108.628C105.943 107.331 106.996 106.278 108.293 106.278C109.59 106.278 110.643 107.331 110.643 108.628Z" fill="#4570DF" stroke="#E4E4E4" stroke-width="0.275398"/>
<path d="M38.5136 47.4331C37.7721 47.4331 37.1703 46.8312 37.1703 46.0898C37.1703 43.868 35.3622 42.0598 33.1403 42.0598C32.3987 42.0598 31.7969 41.458 31.7969 40.7165C31.7969 39.9751 32.3987 39.3733 33.1402 39.3733C35.362 39.3733 37.1701 37.5651 37.1701 35.3433C37.1701 34.6018 37.772 34 38.5134 34C39.2549 34 39.8568 34.6017 39.8568 35.3431C39.8568 37.565 41.665 39.3731 43.8868 39.3731C44.6283 39.3731 45.2301 39.9749 45.2301 40.7164C45.2301 41.4578 44.6283 42.0598 43.8868 42.0598C41.665 42.0598 39.8568 43.868 39.8568 46.0898C39.8568 46.8312 39.255 47.4331 38.5136 47.4331ZM37.1662 40.7165C37.6753 41.0994 38.1307 41.5548 38.5136 42.0639C38.8964 41.5548 39.3518 41.0994 39.8609 40.7165C39.3518 40.3337 38.8964 39.8783 38.5136 39.3692C38.1307 39.8783 37.6753 40.3337 37.1662 40.7165Z" fill="#E4E4E4" stroke="#E4E4E4" stroke-width="0.157421"/>
<path d="M104.337 60.8664C103.595 60.8664 102.994 60.2645 102.994 59.5231V54.1497C102.994 53.4082 103.595 52.8064 104.337 52.8064C105.08 52.8064 105.681 53.4082 105.681 54.1497V59.5229C105.681 60.2645 105.08 60.8664 104.337 60.8664Z" fill="#E4E4E4" stroke="#E4E4E4" stroke-width="0.157421"/>
<path d="M107.025 58.1809H101.652C100.909 58.1809 100.309 57.5791 100.309 56.8377C100.309 56.0962 100.909 55.4944 101.652 55.4944H107.025C107.768 55.4944 108.368 56.0962 108.368 56.8377C108.368 57.5791 107.768 58.1809 107.025 58.1809Z" fill="#E4E4E4" stroke="#E4E4E4" stroke-width="0.157421"/>
<path d="M40.2263 98.8208C40.2263 100.118 39.1735 101.171 37.8763 101.171C36.5792 101.171 35.5264 100.118 35.5264 98.8208C35.5264 97.5237 36.5792 96.4708 37.8763 96.4708C39.1735 96.4708 40.2263 97.5234 40.2263 98.8208Z" fill="#E4E4E4" stroke="#E4E4E4" stroke-width="0.275398"/>
<path d="M33.6999 68.984C33.6999 70.2811 32.6471 71.334 31.35 71.334C30.0528 71.334 29 70.2811 29 68.984C29 67.6869 30.0528 66.634 31.35 66.634C32.6471 66.634 33.6999 67.6866 33.6999 68.984Z" fill="#E4E4E4" stroke="#E4E4E4" stroke-width="0.275398"/>
<path d="M104.562 80.1728C104.562 81.47 103.509 82.5228 102.212 82.5228C100.915 82.5228 99.8623 81.47 99.8623 80.1728C99.8623 78.8757 100.915 77.8229 102.212 77.8229C103.509 77.8229 104.562 78.8757 104.562 80.1728Z" fill="#E4E4E4" stroke="#E4E4E4" stroke-width="0.275398"/>
<path d="M108.292 106.28C108.292 107.577 107.239 108.63 105.942 108.63C104.645 108.63 103.592 107.577 103.592 106.28C103.592 104.983 104.645 103.93 105.942 103.93C107.239 103.93 108.292 104.983 108.292 106.28Z" fill="#E4E4E4" stroke="#E4E4E4" stroke-width="0.275398"/>
<path d="M86.2496 39.8748C87.5602 39.8748 88.8172 40.3955 89.7439 41.3222C90.6707 42.249 91.1913 43.5059 91.1913 44.8166V104.117C91.1913 105.428 90.6707 106.685 89.7439 107.612C88.8172 108.538 87.5602 109.059 86.2496 109.059H56.5993C55.2886 109.059 54.0317 108.538 53.1049 107.612C52.1782 106.685 51.6575 105.428 51.6575 104.117V44.8166C51.6575 43.5059 52.1782 42.249 53.1049 41.3222C54.0317 40.3955 55.2886 39.8748 56.5993 39.8748H86.2496ZM56.5993 34.9331C53.978 34.9331 51.4641 35.9744 49.6106 37.8279C47.7571 39.6814 46.7158 42.1953 46.7158 44.8166V104.117C46.7158 106.739 47.7571 109.252 49.6106 111.106C51.4641 112.959 53.978 114.001 56.5993 114.001H86.2496C88.8709 114.001 91.3848 112.959 93.2383 111.106C95.0918 109.252 96.1331 106.739 96.1331 104.117V44.8166C96.1331 42.1953 95.0918 39.6814 93.2383 37.8279C91.3848 35.9744 88.8709 34.9331 86.2496 34.9331H56.5993Z" fill="#E4E4E4"/>
<path d="M71.0374 104.117C72.3481 104.117 73.605 103.596 74.5318 102.669C75.4585 101.743 75.9792 100.486 75.9792 99.1751C75.9792 97.8645 75.4585 96.6076 74.5318 95.6808C73.605 94.754 72.3481 94.2334 71.0374 94.2334C69.7268 94.2334 68.4699 94.754 67.5431 95.6808C66.6163 96.6076 66.0957 97.8645 66.0957 99.1751C66.0957 100.486 66.6163 101.743 67.5431 102.669C68.4699 103.596 69.7268 104.117 71.0374 104.117Z" fill="#E4E4E4"/>
</svg>
