<svg width="141" height="141" viewBox="0 0 141 141" fill="none" xmlns="http://www.w3.org/2000/svg">
<circle cx="70.5" cy="70.5" r="70.5" fill="#4570DF"/>
<path d="M86.4 37.3C87.8056 37.3 89.1537 37.8584 90.1477 38.8523C91.1416 39.8463 91.7 41.1944 91.7 42.6V106.2C91.7 107.606 91.1416 108.954 90.1477 109.948C89.1537 110.942 87.8056 111.5 86.4 111.5H54.6C53.1944 111.5 51.8463 110.942 50.8523 109.948C49.8584 108.954 49.3 107.606 49.3 106.2V42.6C49.3 41.1944 49.8584 39.8463 50.8523 38.8523C51.8463 37.8584 53.1944 37.3 54.6 37.3H86.4ZM54.6 32C51.7887 32 49.0926 33.1168 47.1047 35.1047C45.1168 37.0926 44 39.7887 44 42.6V106.2C44 109.011 45.1168 111.707 47.1047 113.695C49.0926 115.683 51.7887 116.8 54.6 116.8H86.4C89.2113 116.8 91.9074 115.683 93.8953 113.695C95.8832 111.707 97 109.011 97 106.2V42.6C97 39.7887 95.8832 37.0926 93.8953 35.1047C91.9074 33.1168 89.2113 32 86.4 32H54.6Z" fill="#E4E4E4"/>
<path d="M70.0852 106.2C71.4908 106.2 72.8389 105.642 73.8328 104.648C74.8268 103.654 75.3852 102.306 75.3852 100.9C75.3852 99.4947 74.8268 98.1466 73.8328 97.1527C72.8389 96.1587 71.4908 95.6003 70.0852 95.6003C68.6795 95.6003 67.3314 96.1587 66.3375 97.1527C65.3435 98.1466 64.7852 99.4947 64.7852 100.9C64.7852 102.306 65.3435 103.654 66.3375 104.648C67.3314 105.642 68.6795 106.2 70.0852 106.2Z" fill="#E4E4E4"/>
</svg>
