<svg width="141" height="141" viewBox="0 0 141 141" fill="none" xmlns="http://www.w3.org/2000/svg">
<circle cx="70.5" cy="70.5" r="70.5" fill="#4570DF"/>
<path d="M107.586 70.9277C107.699 73.8047 107.482 76.6851 106.939 79.5127C105.56 86.6754 102.099 93.2723 96.9903 98.479C91.8817 103.686 85.3516 107.271 78.2165 108.786C71.0813 110.302 63.6577 109.681 56.8738 107C50.0898 104.32 44.2464 99.6991 40.0742 93.7159" stroke="#E4E4E4" stroke-width="5" stroke-linecap="round"/>
<path d="M33.3975 73.4532C33.3333 70.8068 33.5555 68.1612 34.0603 65.5625C35.4238 58.4117 38.8607 51.8199 43.9431 46.6082C49.0256 41.3964 55.5289 37.7949 62.6432 36.2523C69.7576 34.7097 77.1685 35.294 83.9532 37.9325C90.7379 40.5711 96.5964 45.1473 100.799 51.0911" stroke="#E4E4E4" stroke-width="5" stroke-linecap="round"/>
<path d="M84.1201 49.561L101.243 51.5652L102.947 35.4999" stroke="#E4E4E4" stroke-width="6" stroke-linecap="round"/>
<path d="M56.4237 94.8998L39.3168 92.8956L37.5967 108.961" stroke="#E4E4E4" stroke-width="5" stroke-linecap="round"/>
<path d="M60.6992 57.6226H65.3073C69.805 57.6226 74.7761 59.106 74.7761 65.9393C74.7761 73.3722 68.4636 76.2129 61.8039 75.408C61.7249 75.4026 61.6461 75.421 61.5777 75.4609C61.5093 75.5009 61.4545 75.5605 61.4205 75.632C61.3864 75.7035 61.3747 75.7836 61.3868 75.8619C61.3989 75.9401 61.4342 76.0129 61.4883 76.0708L75.6914 91.3313" stroke="#E4E4E4" stroke-width="5" stroke-linecap="round"/>
<path d="M80.1896 57.6226H64.2979" stroke="#E4E4E4" stroke-width="5" stroke-linecap="round"/>
<path d="M60.9365 66.0059H80.3001" stroke="#E4E4E4" stroke-width="5" stroke-linecap="round"/>
</svg>
