<svg width="26" height="41" viewBox="0 0 26 41" fill="none" xmlns="http://www.w3.org/2000/svg">
<path d="M21.9688 0H4.03125C1.91719 0 0.1875 1.72969 0.1875 3.84375V37.1562C0.1875 39.2703 1.91719 41 4.03125 41H21.9688C24.0828 41 25.8125 39.2703 25.8125 37.1562V3.84375C25.8125 1.72969 24.0828 0 21.9688 0ZM7.875 1.92188H18.125V3.20312H7.875V1.92188ZM13 38.4375C12.3204 38.4375 11.6686 38.1675 11.188 37.687C10.7075 37.2064 10.4375 36.5546 10.4375 35.875C10.4375 35.1954 10.7075 34.5436 11.188 34.063C11.6686 33.5825 12.3204 33.3125 13 33.3125C13.6796 33.3125 14.3314 33.5825 14.812 34.063C15.2925 34.5436 15.5625 35.1954 15.5625 35.875C15.5625 36.5546 15.2925 37.2064 14.812 37.687C14.3314 38.1675 13.6796 38.4375 13 38.4375ZM23.25 30.75H2.75V5.125H23.25V30.75Z" fill="#3F3E8F"/>
</svg>
