<svg width="57" height="56" viewBox="0 0 57 56" fill="none" xmlns="http://www.w3.org/2000/svg">
<path d="M44.8333 44.3333H12.1667V11.6667H44.8333M44.8333 7H12.1667C10.929 7 9.742 7.49167 8.86683 8.36683C7.99167 9.242 7.5 10.429 7.5 11.6667V44.3333C7.5 45.571 7.99167 46.758 8.86683 47.6332C9.742 48.5083 10.929 49 12.1667 49H44.8333C46.071 49 47.258 48.5083 48.1332 47.6332C49.0083 46.758 49.5 45.571 49.5 44.3333V11.6667C49.5 10.429 49.0083 9.242 48.1332 8.36683C47.258 7.49167 46.071 7 44.8333 7ZM33.0733 28.6767L26.6567 36.9367L22.0833 31.43L15.6667 39.6667H41.3333L33.0733 28.6767Z" fill="#3562FF"/>
</svg>
