<svg width="12" height="12" viewBox="0 0 12 12" fill="none" xmlns="http://www.w3.org/2000/svg">
<path d="M1.3335 9.55578V2.44453C1.3335 1.85787 1.3335 1.56454 1.45683 1.39121C1.51011 1.31633 1.57831 1.25328 1.65712 1.20601C1.73594 1.15875 1.82367 1.12829 1.91482 1.11655C2.12615 1.08988 2.38482 1.22721 2.90148 1.50321L9.56807 5.0585L9.57074 5.05984C10.1421 5.3645 10.4281 5.51716 10.5221 5.71983C10.6034 5.89716 10.6034 6.10182 10.5221 6.27915C10.4281 6.48249 10.1414 6.63582 9.56874 6.94115L2.90214 10.4964C2.38415 10.7724 2.12615 10.9098 1.91549 10.8831C1.82422 10.8715 1.73636 10.841 1.65742 10.7938C1.57848 10.7465 1.51019 10.6834 1.45683 10.6084C1.3335 10.4351 1.3335 10.1424 1.3335 9.55578Z" fill="black" stroke="black" stroke-width="1.1111" stroke-linecap="round" stroke-linejoin="round"/>
</svg>
