<svg width="41" height="40" viewBox="0 0 41 40" fill="none" xmlns="http://www.w3.org/2000/svg">
<path d="M20.5 3.00001C17.1377 3.00001 13.8509 3.99704 11.0553 5.86502C8.25968 7.73301 6.08074 10.388 4.79406 13.4944C3.50737 16.6007 3.17071 20.0189 3.82666 23.3165C4.48261 26.6142 6.1017 29.6433 8.47919 32.0208C10.8567 34.3983 13.8858 36.0174 17.1835 36.6734C20.4811 37.3293 23.8993 36.9926 27.0056 35.706C30.112 34.4193 32.767 32.2403 34.635 29.4447C36.503 26.6491 37.5 23.3623 37.5 20C37.5018 17.767 37.0634 15.5556 36.2097 13.4922C35.356 11.4288 34.1039 9.55405 32.5249 7.97508C30.946 6.39612 29.0712 5.14398 27.0078 4.2903C24.9444 3.43663 22.733 2.99816 20.5 3.00001ZM20.5 33C17.9288 33 15.4154 32.2376 13.2776 30.8091C11.1398 29.3807 9.47351 27.3503 8.48957 24.9749C7.50563 22.5994 7.24819 19.9856 7.7498 17.4638C8.25141 14.9421 9.48954 12.6257 11.3076 10.8076C13.1257 8.98953 15.4421 7.7514 17.9638 7.2498C20.4856 6.74819 23.0994 7.00563 25.4749 7.98957C27.8503 8.97351 29.8807 10.6398 31.3091 12.7776C32.7376 14.9154 33.5 17.4288 33.5 20C33.5034 21.7082 33.1695 23.4002 32.5174 24.9789C31.8653 26.5577 30.9079 27.9922 29.7 29.2C28.4922 30.4079 27.0577 31.3653 25.4789 32.0174C23.9002 32.6695 22.2082 33.0034 20.5 33ZM25.5 14.7L19.7 21.7L15.7 18.8C14.8 18.1 13.6 18.3 12.9 19.2C12.2 20.1 12.4 21.3 13.3 22C14.5 22.9 15.8 23.8 17 24.7C17.9 25.3 18.7 26.2 19.8 26.3C20.1 26.3 20.5 26.3 20.8 26.1L21.4 25.5L25.9 20.1C26.7 19.1 27.5 18.2 28.3 17.2C28.9 16.4 29.1 15.4 28.4 14.6L28.1 14.3C27.4 13.8 26.2 13.9 25.5 14.7Z" fill="#3F3E8F"/>
</svg>
