<svg width="39" height="37" viewBox="0 0 39 37" fill="none" xmlns="http://www.w3.org/2000/svg">
<path d="M36.8969 21.1593L27.6937 30.1203C26.625 31.2042 25.0219 31.9703 23.3297 31.9703H16.4125C15.5367 31.9703 14.75 32.3027 14.1711 32.8664L11.8703 34.9765H1.39062L11.4695 25.0328L11.4547 25.0183C12.5234 23.9777 14.0227 23.3273 15.6703 23.3128H25.6156C26.6695 23.3128 27.5156 24.1367 27.5156 25.1628C27.5156 26.189 26.6695 27.0128 25.6156 27.0128H17.6C17.2586 26.9839 16.9766 27.2585 16.9766 27.6199C16.9766 27.9812 17.2586 28.2414 17.6148 28.2414H25.5859C26.432 28.2703 27.2336 27.9234 27.8273 27.3453C28.4211 26.7671 28.7477 25.9722 28.7477 25.1628C28.7773 24.7871 28.6734 24.3824 28.5398 24.0355L34.1953 18.5289C34.9523 17.7917 36.1398 17.7917 36.882 18.5C37.6539 19.2371 37.6391 20.4367 36.8969 21.1593ZM10.7422 11.8515C10.7422 6.47495 15.1656 2.11011 20.6875 2.11011C26.2094 2.11011 30.6625 6.44605 30.6625 11.8226C30.6625 17.1992 26.1945 21.5351 20.7023 21.5351C15.2102 21.5351 10.7422 17.1992 10.7422 11.8515ZM22.0086 14.0917C22.0086 14.7566 21.4445 15.248 20.3016 15.248C19.2328 15.248 18.2383 14.8867 17.6 14.5832L17.0953 16.5488C17.6742 16.8667 18.8766 17.1703 20.0641 17.1703V18.6445H21.4445V17.1269C23.4633 16.6933 24.4133 15.5226 24.4133 14.005C24.4133 12.4875 23.5375 11.548 21.6523 10.8832C20.2867 10.3339 19.6484 10.0738 19.6484 9.39448C19.6484 8.90308 20.1977 8.41167 21.207 8.41167C22.2164 8.41167 22.9586 8.71519 23.4187 8.90308L23.9828 6.98081C23.3742 6.66284 22.543 6.43159 21.4 6.43159V4.92847H20.0195V6.53276C18.1789 6.89409 17.1695 8.05034 17.1695 9.53901C17.1695 11.1433 18.3125 12.0394 20.1383 12.6609C21.4594 13.1523 22.0086 13.4269 22.0086 14.0917Z" fill="#3F3E8F"/>
</svg>
