<svg width="51" height="52" viewBox="0 0 51 52" fill="none" xmlns="http://www.w3.org/2000/svg">
<g id="secure-svgrepo-com 1" clip-path="url(#clip0_2793_20960)">
<g id="secure">
<g id="Group">
<path id="Vector" d="M29.75 32.5485C29.75 30.211 27.8375 28.2985 25.5 28.2985C23.1625 28.2985 21.25 30.211 21.25 32.5485C21.25 34.036 22.1 35.5235 23.375 36.161V41.0485H27.625V36.161C28.9 35.5235 29.75 34.036 29.75 32.5485Z" fill="white"/>
</g>
<g id="Group_2">
<path id="Vector_2" d="M25.5 51.6732C16.15 51.6732 8.5 44.0232 8.5 34.6732C8.5 25.3232 16.15 17.6732 25.5 17.6732C34.85 17.6732 42.5 25.3232 42.5 34.6732C42.5 44.0232 34.85 51.6732 25.5 51.6732ZM25.5 21.9232C18.4875 21.9232 12.75 27.6607 12.75 34.6732C12.75 41.6857 18.4875 47.4232 25.5 47.4232C32.5125 47.4232 38.25 41.6857 38.25 34.6732C38.25 27.6607 32.5125 21.9232 25.5 21.9232Z" fill="white"/>
</g>
<g id="Group_3">
<path id="Vector_3" d="M38.25 24.0483H34V13.4233C34 8.74834 30.175 4.92334 25.5 4.92334C20.825 4.92334 17 8.74834 17 13.4233V24.0483H12.75V13.4233C12.75 6.41084 18.4875 0.67334 25.5 0.67334C32.5125 0.67334 38.25 6.41084 38.25 13.4233V24.0483Z" fill="white"/>
</g>
</g>
</g>
<defs>
<clipPath id="clip0_2793_20960">
<rect width="51" height="51" fill="white" transform="translate(0 0.67334)"/>
</clipPath>
</defs>
</svg>
