<svg width="47" height="48" viewBox="0 0 47 48" fill="none" xmlns="http://www.w3.org/2000/svg">
<g id="secure-svgrepo-com 2" clip-path="url(#clip0_2793_20930)">
<g id="secure">
<g id="Group">
<path id="Vector" d="M27.4193 29.8752C27.4193 27.721 25.6568 25.9585 23.5026 25.9585C21.3484 25.9585 19.5859 27.721 19.5859 29.8752C19.5859 31.246 20.3693 32.6168 21.5443 33.2043V37.7085H25.4609V33.2043C26.6359 32.6168 27.4193 31.246 27.4193 29.8752Z" fill="#59596D"/>
</g>
<g id="Group_2">
<path id="Vector_2" d="M23.5026 47.4998C14.8859 47.4998 7.83594 40.4498 7.83594 31.8332C7.83594 23.2165 14.8859 16.1665 23.5026 16.1665C32.1193 16.1665 39.1693 23.2165 39.1693 31.8332C39.1693 40.4498 32.1193 47.4998 23.5026 47.4998ZM23.5026 20.0832C17.0401 20.0832 11.7526 25.3707 11.7526 31.8332C11.7526 38.2957 17.0401 43.5832 23.5026 43.5832C29.9651 43.5832 35.2526 38.2957 35.2526 31.8332C35.2526 25.3707 29.9651 20.0832 23.5026 20.0832Z" fill="#59596D"/>
</g>
<g id="Group_3">
<path id="Vector_3" d="M35.2539 22.0417H31.3372V12.25C31.3372 7.94167 27.8122 4.41667 23.5039 4.41667C19.1956 4.41667 15.6706 7.94167 15.6706 12.25V22.0417H11.7539V12.25C11.7539 5.7875 17.0414 0.5 23.5039 0.5C29.9664 0.5 35.2539 5.7875 35.2539 12.25V22.0417Z" fill="#59596D"/>
</g>
</g>
</g>
<defs>
<clipPath id="clip0_2793_20930">
<rect width="47" height="47" fill="white" transform="translate(0 0.5)"/>
</clipPath>
</defs>
</svg>
