<svg width="58" height="59" viewBox="0 0 58 59" fill="none" xmlns="http://www.w3.org/2000/svg">
<g id="service-svgrepo-com 1">
<path id="Vector" d="M48.9379 23.8734C50.7669 24.9266 52.2499 26.4893 53.2061 28.3709C54.1622 30.2524 54.5502 32.3716 54.3227 34.4699C54.0952 36.5681 53.2621 38.5549 51.9248 40.1878C50.5876 41.8207 48.8041 43.0292 46.7919 43.6659C46.0807 46.8933 44.2886 49.781 41.7124 51.851C39.1361 53.921 35.9302 55.049 32.6254 55.0484H27.1879C26.7072 55.0484 26.2462 54.8575 25.9063 54.5175C25.5664 54.1776 25.3754 53.7166 25.3754 53.2359C25.3754 52.7552 25.5664 52.2942 25.9063 51.9543C26.2462 51.6144 26.7072 51.4234 27.1879 51.4234H32.6254C34.8751 51.4241 37.0697 50.7272 38.907 49.4288C40.7442 48.1304 42.1337 46.2943 42.8841 44.1734H41.6879C41.2072 44.1734 40.7462 43.9825 40.4063 43.6425C40.0664 43.3026 39.8754 42.8416 39.8754 42.3609V24.2359C39.8754 23.7552 40.0664 23.2942 40.4063 22.9543C40.7462 22.6144 41.2072 22.4234 41.6879 22.4234H43.5004C44.0876 22.4234 44.664 22.4705 45.2295 22.5612C44.8215 18.5406 42.9356 14.8147 39.9372 12.1053C36.9389 9.39586 33.0416 7.89583 29.0004 7.89583C24.9592 7.89583 21.0619 9.39586 18.0636 12.1053C15.0652 14.8147 13.1793 18.5406 12.7713 22.5612C13.3431 22.4696 13.9213 22.4235 14.5004 22.4234H16.3129C16.7936 22.4234 17.2546 22.6144 17.5945 22.9543C17.9344 23.2942 18.1254 23.7552 18.1254 24.2359V42.3609C18.1254 42.8416 17.9344 43.3026 17.5945 43.6425C17.2546 43.9825 16.7936 44.1734 16.3129 44.1734H14.5004C12.1042 44.1761 9.77421 43.3873 7.87244 41.9295C5.97066 40.4718 4.60358 38.4268 3.9836 36.1122C3.36362 33.7976 3.52545 31.343 4.44395 29.1299C5.36245 26.9167 6.98619 25.0688 9.06289 23.8734C9.06289 18.5857 11.1634 13.5145 14.9025 9.77547C18.6415 6.03647 23.7126 3.93591 29.0004 3.93591C34.2881 3.93591 39.3593 6.03647 43.0983 9.77547C46.8373 13.5145 48.9379 18.5857 48.9379 23.8734ZM14.5004 26.0484C12.5776 26.0484 10.7335 26.8123 9.37387 28.1719C8.01423 29.5315 7.25039 31.3756 7.25039 33.2984C7.25039 35.2212 8.01423 37.0653 9.37387 38.4249C10.7335 39.7846 12.5776 40.5484 14.5004 40.5484V26.0484ZM50.7504 33.2984C50.7504 31.3756 49.9866 29.5315 48.6269 28.1719C47.2673 26.8123 45.4232 26.0484 43.5004 26.0484V40.5484C45.4232 40.5484 47.2673 39.7846 48.6269 38.4249C49.9866 37.0653 50.7504 35.2212 50.7504 33.2984Z" fill="white"/>
</g>
</svg>
