<svg width="21" height="17" viewBox="0 0 21 17" fill="none" xmlns="http://www.w3.org/2000/svg">
<path d="M11.3328 4.05V1C11.3328 0.734784 11.4382 0.48043 11.6257 0.292893C11.8132 0.105357 12.0676 0 12.3328 0C12.5952 0.00110462 12.8466 0.105256 13.0328 0.29L20.0328 7.29C20.1265 7.38296 20.2009 7.49356 20.2517 7.61542C20.3025 7.73728 20.3286 7.86799 20.3286 8C20.3286 8.13201 20.3025 8.26272 20.2517 8.38458C20.2009 8.50644 20.1265 8.61704 20.0328 8.71L13.0328 15.71C12.8924 15.8476 12.7146 15.9408 12.5216 15.9779C12.3285 16.015 12.1288 15.9944 11.9474 15.9186C11.766 15.8429 11.611 15.7153 11.5017 15.5519C11.3924 15.3886 11.3336 15.1966 11.3328 15V11.9H10.4828C8.90289 11.8764 7.33677 12.197 5.89315 12.8393C4.44952 13.4817 3.16298 14.4306 2.12282 15.62C1.99746 15.7869 1.82303 15.9104 1.62398 15.9731C1.42492 16.0359 1.21122 16.0348 1.01282 15.97C0.810909 15.9019 0.636049 15.771 0.513727 15.5965C0.391405 15.422 0.328022 15.213 0.332815 15C0.332815 5.88 8.41282 4.32 11.3328 4.05ZM10.4828 9.88C11.1517 9.87791 11.8199 9.92134 12.4828 10.01C12.7196 10.0459 12.9355 10.1656 13.0915 10.3473C13.2475 10.5289 13.3331 10.7606 13.3328 11V12.59L17.9128 8L13.3328 3.41V5C13.3328 5.26522 13.2275 5.51957 13.0399 5.70711C12.8524 5.89464 12.598 6 12.3328 6C11.4228 6 4.22281 6.2 2.66282 12.43C4.92712 10.7606 7.66965 9.86626 10.4828 9.88Z" fill="black"/>
</svg>
