<svg width="68" height="69" viewBox="0 0 68 69" fill="none" xmlns="http://www.w3.org/2000/svg">
<g id="transfer-svgrepo-com 1">
<path id="Vector" d="M34.7209 26.6658L29.7484 12.8674C29.687 12.6846 29.5889 12.5162 29.4602 12.3726C29.3314 12.229 29.1747 12.1132 28.9996 12.0323C28.8246 11.9514 28.6348 11.9071 28.442 11.9021C28.2492 11.8971 28.0574 11.9315 27.8784 12.0033L7.33671 19.4691C7.15432 19.5292 6.98605 19.6257 6.84212 19.7529C6.69819 19.88 6.5816 20.035 6.49945 20.2086C6.4173 20.3822 6.3713 20.5707 6.36424 20.7626C6.35718 20.9545 6.38921 21.1458 6.45838 21.3249L19.4067 56.8974C19.4681 57.0803 19.5662 57.2487 19.6949 57.3923C19.8237 57.5359 19.9804 57.6517 20.1554 57.7326C20.3305 57.8135 20.5203 57.8578 20.7131 57.8628C20.9059 57.8678 21.0977 57.8334 21.2767 57.7616L36.6334 52.0949" stroke="black" stroke-opacity="0.56" stroke-width="1.41667" stroke-linecap="round" stroke-linejoin="round"/>
<path id="Vector_2" d="M18.2031 53.5966L30.7831 49.0066" stroke="black" stroke-opacity="0.56" stroke-width="1.41667" stroke-linecap="round" stroke-linejoin="round"/>
<path id="Vector_3" d="M30.9116 16.1826L7.66406 24.6401" stroke="black" stroke-opacity="0.56" stroke-width="1.41667" stroke-linecap="round" stroke-linejoin="round"/>
<path id="Vector_4" d="M60.4144 14.952L38.9292 11.1635C38.1356 11.0236 37.3787 11.5535 37.2388 12.3472L30.6681 49.6115C30.5282 50.4051 31.0581 51.1619 31.8517 51.3018L53.3369 55.0903C54.1306 55.2302 54.8874 54.7003 55.0273 53.9066L61.598 16.6423C61.738 15.8487 61.208 15.0919 60.4144 14.952Z" stroke="black" stroke-opacity="0.56" stroke-width="1.41667" stroke-linecap="round" stroke-linejoin="round"/>
<path id="Vector_5" d="M31.2812 46.1592L55.6479 50.4517" stroke="black" stroke-opacity="0.56" stroke-width="1.41667" stroke-linecap="round" stroke-linejoin="round"/>
<path id="Vector_6" d="M60.9892 20.1067L36.6367 15.8142" stroke="black" stroke-opacity="0.56" stroke-width="1.41667" stroke-linecap="round" stroke-linejoin="round"/>
<path id="Vector_7" d="M19.7635 37.7866C21.3675 37.7866 22.6677 36.4864 22.6677 34.8824C22.6677 33.2785 21.3675 31.9783 19.7635 31.9783C18.1596 31.9783 16.8594 33.2785 16.8594 34.8824C16.8594 36.4864 18.1596 37.7866 19.7635 37.7866Z" stroke="black" stroke-opacity="0.56" stroke-width="1.41667" stroke-linecap="round" stroke-linejoin="round"/>
<path id="Vector_8" d="M47.1034 37.7866C48.7073 37.7866 50.0075 36.4864 50.0075 34.8824C50.0075 33.2785 48.7073 31.9783 47.1034 31.9783C45.4995 31.9783 44.1992 33.2785 44.1992 34.8824C44.1992 36.4864 45.4995 37.7866 47.1034 37.7866Z" stroke="black" stroke-opacity="0.56" stroke-width="1.41667" stroke-linecap="round" stroke-linejoin="round"/>
<path id="Vector_9" d="M28.6035 37.0643C29.8084 37.0643 30.7852 36.0875 30.7852 34.8826C30.7852 33.6777 29.8084 32.7009 28.6035 32.7009C27.3986 32.7009 26.4219 33.6777 26.4219 34.8826C26.4219 36.0875 27.3986 37.0643 28.6035 37.0643Z" stroke="black" stroke-opacity="0.56" stroke-width="1.41667" stroke-linecap="round" stroke-linejoin="round"/>
<path id="Vector_10" d="M38.2793 37.0643C39.4842 37.0643 40.461 36.0875 40.461 34.8826C40.461 33.6777 39.4842 32.7009 38.2793 32.7009C37.0744 32.7009 36.0977 33.6777 36.0977 34.8826C36.0977 36.0875 37.0744 37.0643 38.2793 37.0643Z" stroke="black" stroke-opacity="0.56" stroke-width="1.41667" stroke-linecap="round" stroke-linejoin="round"/>
</g>
</svg>
