<svg width="55" height="55" viewBox="0 0 55 55" fill="none" xmlns="http://www.w3.org/2000/svg">
<g id="transfer-solid-svgrepo-com 1" clip-path="url(#clip0_2793_20919)">
<g id="Layer 2">
<g id="icons Q2">
<g id="Group">
<path id="Vector" d="M21.875 29.75C21.2783 29.75 20.706 29.9871 20.284 30.409C19.8621 30.831 19.625 31.4033 19.625 32V36.5H8.375V32C8.375 31.4033 8.13795 30.831 7.71599 30.409C7.29403 29.9871 6.72174 29.75 6.125 29.75C5.52826 29.75 4.95597 29.9871 4.53401 30.409C4.11205 30.831 3.875 31.4033 3.875 32V47.75C3.875 48.3467 4.11205 48.919 4.53401 49.341C4.95597 49.7629 5.52826 50 6.125 50H21.875C22.4717 50 23.044 49.7629 23.466 49.341C23.8879 48.919 24.125 48.3467 24.125 47.75V32C24.125 31.4033 23.8879 30.831 23.466 30.409C23.044 29.9871 22.4717 29.75 21.875 29.75Z" fill="black" fill-opacity="0.56"/>
<path id="Vector_2" d="M48.875 29.75C48.2783 29.75 47.706 29.9871 47.284 30.409C46.8621 30.831 46.625 31.4033 46.625 32V36.5H35.375V32C35.375 31.4033 35.1379 30.831 34.716 30.409C34.294 29.9871 33.7217 29.75 33.125 29.75C32.5283 29.75 31.956 29.9871 31.534 30.409C31.1121 30.831 30.875 31.4033 30.875 32V47.75C30.875 48.3467 31.1121 48.919 31.534 49.341C31.956 49.7629 32.5283 50 33.125 50H48.875C49.4717 50 50.044 49.7629 50.466 49.341C50.8879 48.919 51.125 48.3467 51.125 47.75V32C51.125 31.4033 50.8879 30.831 50.466 30.409C50.044 29.9871 49.4717 29.75 48.875 29.75Z" fill="black" fill-opacity="0.56"/>
<path id="Vector_3" d="M38.75 18.5V19.85L35.825 16.925C35.6085 16.6804 35.3389 16.4887 35.0368 16.3646C34.7347 16.2405 34.4081 16.1872 34.0823 16.209C33.7564 16.2307 33.4398 16.3268 33.1569 16.4899C32.8739 16.6531 32.6321 16.8789 32.45 17.15C32.1232 17.6015 31.9665 18.154 32.0077 18.7098C32.0488 19.2657 32.2852 19.7891 32.675 20.1875L39.425 26.825C39.6252 27.0432 39.8686 27.2175 40.1398 27.3367C40.4109 27.4559 40.7038 27.5174 41 27.5174C41.2962 27.5174 41.5891 27.4559 41.8602 27.3367C42.1314 27.2175 42.3748 27.0432 42.575 26.825L49.325 20.1875C49.7148 19.7891 49.9512 19.2657 49.9923 18.7098C50.0335 18.154 49.8768 17.6015 49.55 17.15C49.3679 16.8789 49.1261 16.6531 48.8431 16.4899C48.5602 16.3268 48.2436 16.2307 47.9177 16.209C47.5919 16.1872 47.2653 16.2405 46.9632 16.3646C46.6611 16.4887 46.3915 16.6804 46.175 16.925L43.25 19.85V18.5C43.25 14.3228 41.5906 10.3168 38.6369 7.36307C35.6832 4.40937 31.6772 2.75 27.5 2.75C23.3228 2.75 19.3168 4.40937 16.3631 7.36307C13.4094 10.3168 11.75 14.3228 11.75 18.5V25.25C11.75 25.8467 11.9871 26.419 12.409 26.841C12.831 27.2629 13.4033 27.5 14 27.5C14.5967 27.5 15.169 27.2629 15.591 26.841C16.0129 26.419 16.25 25.8467 16.25 25.25V18.5C16.25 15.5163 17.4353 12.6548 19.545 10.545C21.6548 8.43526 24.5163 7.25 27.5 7.25C30.4837 7.25 33.3452 8.43526 35.455 10.545C37.5647 12.6548 38.75 15.5163 38.75 18.5Z" fill="black" fill-opacity="0.56"/>
</g>
</g>
</g>
</g>
<defs>
<clipPath id="clip0_2793_20919">
<rect width="54" height="54" fill="white" transform="translate(0.5 0.5)"/>
</clipPath>
</defs>
</svg>
