<svg width="58" height="59" viewBox="0 0 58 59" fill="none" xmlns="http://www.w3.org/2000/svg">
<g id="user-heart-svgrepo-com 1">
<path id="Vector" d="M38.6654 15.1733C38.6654 20.512 34.3374 24.8399 28.9987 24.8399C23.6599 24.8399 19.332 20.512 19.332 15.1733C19.332 9.8345 23.6599 5.50659 28.9987 5.50659C34.3374 5.50659 38.6654 9.8345 38.6654 15.1733Z" fill="white"/>
<path id="Vector_2" d="M37.8903 33.3052C36.747 33.319 35.6814 33.3608 34.7527 33.4855C33.1991 33.6945 31.4987 34.1938 30.0934 35.5988C28.6883 37.0039 28.1891 38.7045 27.9803 40.2582C27.7925 41.6543 27.7927 43.3602 27.793 45.1739V45.5896C27.7927 47.4033 27.7925 49.1092 27.9803 50.5053C28.1267 51.5955 28.4162 52.7579 29.0615 53.8401C29.0414 53.8401 29.0214 53.8401 29.0013 53.8401C9.66797 53.8401 9.66797 48.9712 9.66797 42.9651C9.66797 36.9589 18.3238 32.0901 29.0013 32.0901C32.2063 32.0901 35.229 32.5287 37.8903 33.3052Z" fill="white"/>
<path id="Vector_3" fill-rule="evenodd" clip-rule="evenodd" d="M32.6568 52.6012C33.8953 53.84 35.889 53.84 39.8763 53.84C43.8636 53.84 45.8573 53.84 47.0959 52.6012C48.3346 51.3627 48.3346 49.3689 48.3346 45.3817C48.3346 41.3944 48.3346 39.4007 47.0959 38.1621C45.8573 36.9233 43.8636 36.9233 39.8763 36.9233C35.889 36.9233 33.8953 36.9233 32.6568 38.1621C31.418 39.4007 31.418 41.3944 31.418 45.3817C31.418 49.3689 31.418 51.3627 32.6568 52.6012ZM37.5239 48.9499C35.8272 47.735 33.8346 46.308 33.8346 43.8345C33.8346 41.1039 37.1576 39.1672 39.8763 41.7924C42.5951 39.1672 45.918 41.1039 45.918 43.8345C45.918 46.308 43.9254 47.735 42.2287 48.9499C42.0525 49.076 41.8792 49.2 41.712 49.3228C41.0846 49.7822 40.4805 50.215 39.8763 50.215C39.2721 50.215 38.668 49.7822 38.0406 49.3228C37.8734 49.2 37.7001 49.076 37.5239 48.9499Z" fill="white"/>
</g>
</svg>
