<svg width="26" height="26" viewBox="0 0 26 26" fill="none" xmlns="http://www.w3.org/2000/svg">
<path d="M3.4269 12.0323C3.42644 13.7127 3.86894 15.3534 4.71034 16.7996L3.34644 21.7409L8.44269 20.415C9.85224 21.1764 11.4315 21.5753 13.0364 21.5754H13.0407C18.3387 21.5754 22.6514 17.2977 22.6537 12.0398C22.6547 9.49195 21.6557 7.09614 19.8405 5.29366C18.0257 3.49133 15.612 2.49823 13.0403 2.49707C7.74159 2.49707 3.42917 6.77459 3.42698 12.0323" fill="url(#paint0_linear_4655_151807)"/>
<g filter="url(#filter0_d_4655_151807)">
<path d="M3.08359 12.0296C3.08305 13.7704 3.54141 15.4699 4.41281 16.9678L3 22.0862L8.27899 20.7128C9.73352 21.4997 11.3712 21.9146 13.0376 21.9152H13.0419C18.53 21.9152 22.9977 17.4836 23 12.0375C23.0009 9.39808 21.9659 6.91614 20.0859 5.04909C18.2057 3.18227 15.7057 2.15343 13.0419 2.15234C7.55281 2.15234 3.08578 6.58335 3.08359 12.0296ZM6.22734 16.7099L6.03023 16.3994C5.20164 15.0921 4.7643 13.5814 4.76492 12.0302C4.76672 7.50343 8.47953 3.82056 13.045 3.82056C15.2559 3.82149 17.3338 4.67668 18.8966 6.22831C20.4593 7.7801 21.3192 9.84289 21.3187 12.0368C21.3166 16.5636 17.6038 20.2469 13.0419 20.2469H13.0386C11.5532 20.2461 10.0964 19.8503 8.82594 19.1023L8.52359 18.9244L5.39094 19.7394L6.22734 16.7098V16.7099Z" fill="url(#paint1_linear_4655_151807)"/>
</g>
<path d="M10.5528 7.90011C10.3664 7.48902 10.1702 7.48073 9.99294 7.47352C9.84778 7.46732 9.68185 7.46778 9.51606 7.46778C9.35013 7.46778 9.08052 7.52972 8.85263 7.77662C8.6245 8.02375 7.98169 8.62096 7.98169 9.83561C7.98169 11.0503 8.87333 12.2242 8.99763 12.3891C9.12208 12.5537 10.719 15.1261 13.248 16.1157C15.3499 16.9381 15.7776 16.7745 16.2338 16.7333C16.69 16.6922 17.706 16.1362 17.9133 15.5597C18.1207 14.9833 18.1207 14.4892 18.0585 14.3859C17.9963 14.2831 17.8304 14.2213 17.5815 14.0979C17.3326 13.9744 16.1093 13.3771 15.8813 13.2947C15.6532 13.2124 15.4873 13.1713 15.3214 13.4185C15.1554 13.6653 14.679 14.2213 14.5337 14.3859C14.3886 14.551 14.2434 14.5715 13.9947 14.448C13.7457 14.3241 12.9443 14.0637 11.9936 13.2227C11.254 12.5683 10.7546 11.7602 10.6094 11.513C10.4643 11.2662 10.5939 11.1324 10.7186 11.0093C10.8304 10.8987 10.9675 10.721 11.0921 10.5769C11.2161 10.4327 11.2575 10.3299 11.3405 10.1652C11.4236 10.0004 11.382 9.85623 11.3199 9.73274C11.2575 9.60925 10.774 8.38825 10.5528 7.90011Z" fill="white"/>
<defs>
<filter id="filter0_d_4655_151807" x="0.495652" y="0.90017" width="25.0087" height="24.9428" filterUnits="userSpaceOnUse" color-interpolation-filters="sRGB">
<feFlood flood-opacity="0" result="BackgroundImageFix"/>
<feColorMatrix in="SourceAlpha" type="matrix" values="0 0 0 0 0 0 0 0 0 0 0 0 0 0 0 0 0 0 127 0" result="hardAlpha"/>
<feOffset dy="1.25217"/>
<feGaussianBlur stdDeviation="1.25217"/>
<feComposite in2="hardAlpha" operator="out"/>
<feColorMatrix type="matrix" values="0 0 0 0 0 0 0 0 0 0 0 0 0 0 0 0 0 0 0.11 0"/>
<feBlend mode="normal" in2="BackgroundImageFix" result="effect1_dropShadow_4655_151807"/>
<feBlend mode="normal" in="SourceGraphic" in2="effect1_dropShadow_4655_151807" result="shape"/>
</filter>
<linearGradient id="paint0_linear_4655_151807" x1="968.71" y1="1926.88" x2="968.71" y2="2.49707" gradientUnits="userSpaceOnUse">
<stop stop-color="#1FAF38"/>
<stop offset="1" stop-color="#60D669"/>
</linearGradient>
<linearGradient id="paint1_linear_4655_151807" x1="1003" y1="1995.54" x2="1003" y2="2.15234" gradientUnits="userSpaceOnUse">
<stop stop-color="#F9F9F9"/>
<stop offset="1" stop-color="white"/>
</linearGradient>
</defs>
</svg>
