<svg width="324" height="164" viewBox="0 0 324 164" fill="none" xmlns="http://www.w3.org/2000/svg">
<path d="M83.6909 18.6205C83.6909 20.1473 83.3092 22.183 82.5458 24.7277C81.9096 27.1451 81.1462 28.3538 80.2556 28.3538C79.365 28.3538 78.6652 27.9721 78.1563 27.2087C77.7746 26.3181 77.3929 25.173 77.0112 23.7734C75.6116 19.4475 73.4487 15.8214 70.5223 12.8951C67.7232 9.84148 64.6697 8.3147 61.3616 8.3147C52.4554 8.3147 46.0301 14.3582 42.0859 26.4453C38.269 38.4051 36.3605 52.4643 36.3605 68.6228C40.1775 68.3683 44.4397 67.7957 49.1473 66.9051C53.9822 65.8873 57.163 65.2511 58.6897 64.9966C67.7232 63.0882 73.7031 62.1339 76.6295 62.1339C79.1741 62.1339 80.4464 63.279 80.4464 65.5692C80.4464 67.3504 80.0648 69.2589 79.3014 71.2946C78.538 73.3303 77.3929 74.3482 75.8661 74.3482C74.5938 74.3482 73.3214 74.0937 72.0491 73.5848C70.2679 72.8214 67.8505 72.4397 64.7969 72.4397C62.7612 72.4397 58.5625 73.0759 52.2009 74.3482L36.933 76.6384C36.933 79.8192 37.3147 88.6618 38.0781 103.166C39.3505 125.559 39.9866 143.435 39.9866 156.795C39.9866 159.212 39.7322 160.866 39.2232 161.757C38.7143 162.775 37.6964 163.283 36.1697 163.283C34.3884 163.283 33.0525 162.266 32.1618 160.23C31.2712 158.194 30.8259 155.904 30.8259 153.359C30.8259 138.728 29.8717 115.762 27.9632 84.4632L27.5815 78.356C26.5636 78.4832 23.2556 79.0558 17.6574 80.0736C12.1864 81.0915 8.17857 81.6004 5.63393 81.6004C4.23438 81.6004 3.02567 81.2824 2.00781 80.6462C1.11719 80.01 0.671876 79.0558 0.671876 77.7835C0.671876 74.6027 1.81697 72.9486 4.10714 72.8214C7.41518 72.6942 11.423 72.4397 16.1306 72.058C20.8382 71.5491 24.4643 71.0402 27.0089 70.5312C27.0089 49.6652 29.808 32.7433 35.4063 19.7656C41.1317 6.66068 49.5926 0.108224 60.7891 0.108224C64.8605 0.108224 68.6139 1.12608 72.0491 3.1618C75.6116 5.19751 78.4107 7.67854 80.4464 10.6049C82.6094 13.5312 83.6909 16.2031 83.6909 18.6205ZM151.427 59.6529C151.427 60.798 150.6 62.1339 148.946 63.6607C147.419 65.0602 146.083 65.76 144.938 65.76C144.048 65.76 143.157 65.3783 142.266 64.6149C141.503 63.8515 140.612 62.7701 139.594 61.3705C138.704 60.0982 137.495 59.0167 135.968 58.1261C134.569 57.2355 133.106 56.7902 131.579 56.7902C127.889 56.7902 122.927 61.6886 116.693 71.4855C110.458 81.1551 104.351 93.3694 98.3713 108.128C98.4985 111.055 98.6894 114.744 98.9438 119.198C99.3255 123.651 99.58 126.959 99.7072 129.122L100.28 136.756C100.28 138.537 99.8981 140.064 99.1347 141.336C98.3713 142.735 96.9717 143.435 94.936 143.435C92.7731 143.435 91.3735 140.573 90.7373 134.847C90.1012 128.994 89.7195 120.533 89.5922 109.464C89.465 106.665 89.3378 102.657 89.2106 97.4408C89.2106 92.2243 89.0833 85.9899 88.8289 78.7377C88.4472 67.7957 88.2563 59.971 88.2563 55.2634C88.2563 52.337 90.0376 50.8739 93.6001 50.8739C95.763 50.8739 97.0353 51.8281 97.417 53.7366C97.926 55.5178 98.1804 59.0167 98.1804 64.2332V94.5781C101.997 84.7812 106.132 76.3203 110.586 69.1953C115.039 62.0703 119.365 56.6629 123.563 52.9732C127.889 49.1562 131.706 47.2477 135.014 47.2477C137.813 47.2477 140.485 47.8839 143.03 49.1562C145.574 50.4286 147.61 52.0826 149.137 54.1183C150.664 56.0268 151.427 57.8716 151.427 59.6529ZM235.221 91.3337C236.112 91.3337 236.557 92.2879 236.557 94.1964C236.557 96.4866 234.84 101.512 231.404 109.273C228.096 117.035 223.007 124.223 216.137 130.839C209.393 137.455 201.06 140.763 191.135 140.763C182.993 140.763 176.186 138.219 170.715 133.129C165.244 128.04 162.508 120.215 162.508 109.655C162.508 99.731 164.798 89.9341 169.379 80.2645C173.959 70.4676 179.939 62.5156 187.318 56.4085C194.698 50.1741 202.332 47.0569 210.22 47.0569C214.928 47.0569 218.872 48.1384 222.053 50.3013C225.361 52.337 227.015 55.327 227.015 59.2712C227.015 63.7243 224.47 68.0502 219.381 72.2489C214.419 76.4475 207.93 80.1373 199.914 83.3181C191.899 86.4989 183.629 88.7891 175.104 90.1886C173.577 96.0413 172.814 101.767 172.814 107.365C172.814 114.744 174.532 120.47 177.967 124.541C181.529 128.613 186.555 130.648 193.044 130.648C202.841 130.648 210.793 127.15 216.9 120.152C223.007 113.154 228.096 105.266 232.168 96.4866C232.422 95.9777 232.868 95.0234 233.504 93.6239C234.14 92.0971 234.712 91.3337 235.221 91.3337ZM218.427 61.3705C218.427 59.3348 217.345 57.7444 215.182 56.5993C213.147 55.4542 210.729 54.8817 207.93 54.8817C203.095 54.8817 198.451 56.4721 193.998 59.6529C189.545 62.8337 185.792 66.6506 182.738 71.1038C179.812 75.5569 177.903 79.5011 177.013 82.9364C182.865 82.3002 189.036 80.6462 195.525 77.9743C202.014 75.3024 207.421 72.3761 211.747 69.1953C216.2 66.0145 218.427 63.4062 218.427 61.3705ZM321.841 91.3337C322.732 91.3337 323.177 92.2879 323.177 94.1964C323.177 96.4866 321.459 101.512 318.024 109.273C314.716 117.035 309.627 124.223 302.756 130.839C296.013 137.455 287.679 140.763 277.755 140.763C269.612 140.763 262.805 138.219 257.334 133.129C251.863 128.04 249.128 120.215 249.128 109.655C249.128 99.731 251.418 89.9341 255.999 80.2645C260.579 70.4676 266.559 62.5156 273.938 56.4085C281.318 50.1741 288.952 47.0569 296.84 47.0569C301.548 47.0569 305.492 48.1384 308.673 50.3013C311.981 52.337 313.635 55.327 313.635 59.2712C313.635 63.7243 311.09 68.0502 306.001 72.2489C301.039 76.4475 294.55 80.1373 286.534 83.3181C278.519 86.4989 270.249 88.7891 261.724 90.1886C260.197 96.0413 259.434 101.767 259.434 107.365C259.434 114.744 261.151 120.47 264.587 124.541C268.149 128.613 273.175 130.648 279.664 130.648C289.461 130.648 297.413 127.15 303.52 120.152C309.627 113.154 314.716 105.266 318.788 96.4866C319.042 95.9777 319.487 95.0234 320.124 93.6239C320.76 92.0971 321.332 91.3337 321.841 91.3337ZM305.047 61.3705C305.047 59.3348 303.965 57.7444 301.802 56.5993C299.766 55.4542 297.349 54.8817 294.55 54.8817C289.715 54.8817 285.071 56.4721 280.618 59.6529C276.165 62.8337 272.411 66.6506 269.358 71.1038C266.432 75.5569 264.523 79.5011 263.632 82.9364C269.485 82.3002 275.656 80.6462 282.145 77.9743C288.634 75.3024 294.041 72.3761 298.367 69.1953C302.82 66.0145 305.047 63.4062 305.047 61.3705Z" fill="white"/>
<path d="M82.5458 24.7277L77.0211 23.0702L76.9928 23.1645L76.9678 23.2598L82.5458 24.7277ZM78.1563 27.2087L72.8547 29.4808L73.0633 29.9675L73.3571 30.4082L78.1563 27.2087ZM77.0112 23.7734L82.5759 22.2558L82.5405 22.1259L82.499 21.9979L77.0112 23.7734ZM70.5223 12.8951L66.2705 16.7926L66.3552 16.885L66.4438 16.9736L70.5223 12.8951ZM42.0859 26.4453L36.6026 24.656L36.5968 24.6738L36.5911 24.6916L42.0859 26.4453ZM36.3605 68.6228H30.5926V74.788L36.7442 74.3779L36.3605 68.6228ZM49.1473 66.9051L50.2195 72.5725L50.2777 72.5615L50.3356 72.5493L49.1473 66.9051ZM58.6897 64.9966L59.638 70.6861L59.7605 70.6657L59.882 70.64L58.6897 64.9966ZM79.3014 71.2946L84.702 73.3199H84.702L79.3014 71.2946ZM72.0491 73.5848L69.777 78.8864L69.8417 78.9141L69.907 78.9402L72.0491 73.5848ZM52.2009 74.3482L53.0565 80.0523L53.1949 80.0316L53.3321 80.0041L52.2009 74.3482ZM36.933 76.6384L36.0774 70.9343L31.1651 71.6711V76.6384H36.933ZM38.0781 103.166L32.3182 103.469L32.3188 103.481L32.3195 103.493L38.0781 103.166ZM39.2232 161.757L34.2153 158.895L34.1358 159.034L34.0642 159.177L39.2232 161.757ZM27.9632 84.4632L33.7204 84.1121L33.7199 84.1034L27.9632 84.4632ZM27.5815 78.356L33.3382 77.9962L32.9554 71.8715L26.8661 72.6326L27.5815 78.356ZM17.6574 80.0737L16.6256 74.3988L16.614 74.4009L16.6024 74.403L17.6574 80.0737ZM2.00781 80.6462L-1.34473 85.3398L-1.2 85.4431L-1.04918 85.5374L2.00781 80.6462ZM4.10714 72.8214L3.88547 67.0577L3.83631 67.0596L3.78719 67.0624L4.10714 72.8214ZM16.1306 72.058L16.5967 77.8071L16.6737 77.8008L16.7505 77.7925L16.1306 72.058ZM27.0089 70.5312L28.1401 76.1871L32.7769 75.2598V70.5312H27.0089ZM35.4063 19.7656L30.1207 17.4564L30.1154 17.4687L30.1101 17.481L35.4063 19.7656ZM72.0491 3.1618L69.1086 8.1239L69.1478 8.14715L69.1874 8.16977L72.0491 3.1618ZM80.4464 10.6049L75.7115 13.8987L75.7588 13.9667L75.808 14.0333L80.4464 10.6049ZM77.9229 18.6205C77.9229 19.3196 77.7236 20.7286 77.0211 23.0702L88.0705 26.3851C88.8947 23.6374 89.4588 20.975 89.4588 18.6205H77.9229ZM76.9678 23.2598C76.7053 24.2571 76.5357 24.4997 76.6194 24.3672C76.6738 24.281 76.9349 23.8806 77.4965 23.4702C78.1236 23.0119 79.0769 22.5858 80.2556 22.5858V34.1217C83.6662 34.1217 85.5987 31.7529 86.3728 30.5273C87.2199 29.1861 87.7501 27.6156 88.1238 26.1955L76.9678 23.2598ZM80.2556 22.5858C80.6601 22.5858 81.2317 22.6804 81.8248 23.0038C82.411 23.3236 82.7705 23.7318 82.9555 24.0092L73.3571 30.4082C74.897 32.7181 77.3676 34.1217 80.2556 34.1217V22.5858ZM83.4578 24.9366C83.219 24.3792 82.9182 23.5111 82.5759 22.2558L71.4465 25.2911C71.8675 26.8348 72.3302 28.2569 72.8547 29.4808L83.4578 24.9366ZM82.499 21.9979C80.8467 16.8908 78.2344 12.45 74.6009 8.81652L66.4438 16.9736C68.663 19.1928 70.3765 22.0042 71.5233 25.5489L82.499 21.9979ZM74.7742 8.99753C71.1776 5.07392 66.6767 2.54676 61.3616 2.54676V14.0826C62.6626 14.0826 64.2689 14.609 66.2705 16.7926L74.7742 8.99753ZM61.3616 2.54676C55.4557 2.54676 50.2051 4.6071 45.9112 8.64591C41.751 12.559 38.7508 18.0726 36.6026 24.656L47.5693 28.2346C49.3653 22.7309 51.5498 19.1793 53.8149 17.0488C55.9462 15.0441 58.3613 14.0826 61.3616 14.0826V2.54676ZM36.5911 24.6916C32.5498 37.3542 30.5926 52.0308 30.5926 68.6228H42.1284C42.1284 52.8978 43.9881 39.456 47.5808 28.199L36.5911 24.6916ZM36.7442 74.3779C40.8412 74.1048 45.3384 73.496 50.2195 72.5725L48.0751 61.2377C43.5411 62.0955 39.5137 62.6318 35.9768 62.8676L36.7442 74.3779ZM50.3356 72.5493C55.1959 71.5261 58.2536 70.9168 59.638 70.6861L57.7415 59.3072C56.0724 59.5854 52.7684 60.2484 47.9591 61.2609L50.3356 72.5493ZM59.882 70.64C69.0389 68.7054 74.4138 67.9018 76.6295 67.9018V56.366C72.9925 56.366 66.4075 57.4709 57.4975 59.3533L59.882 70.64ZM76.6295 67.9018C77.154 67.9018 76.4703 68.033 75.6337 67.28C74.6815 66.423 74.6785 65.4793 74.6785 65.5692H86.2144C86.2144 63.3688 85.5753 60.7075 83.3508 58.7055C81.2418 56.8074 78.6496 56.366 76.6295 56.366V67.9018ZM74.6785 65.5692C74.6785 66.525 74.4731 67.7429 73.9007 69.2694L84.702 73.3199C85.6564 70.7749 86.2144 68.1758 86.2144 65.5692H74.6785ZM73.9007 69.2694C73.7188 69.7545 73.6778 69.5939 74.038 69.2738C74.2366 69.0973 74.5213 68.9063 74.8863 68.7673C75.2515 68.6281 75.5941 68.5803 75.8661 68.5803V80.1161C78.0475 80.1161 80.0777 79.3397 81.702 77.8958C83.2073 76.5578 84.1206 74.8705 84.702 73.3199L73.9007 69.2694ZM75.8661 68.5803C75.3825 68.5803 74.8352 68.487 74.1913 68.2294L69.907 78.9402C71.8077 79.7005 73.8051 80.1161 75.8661 80.1161V68.5803ZM74.3212 68.2832C71.5282 67.0862 68.2316 66.6718 64.7969 66.6718V78.2077C67.4693 78.2077 69.0075 78.5566 69.777 78.8864L74.3212 68.2832ZM64.7969 66.6718C62.0864 66.6718 57.3102 67.4442 51.0697 68.6923L53.3321 80.0041C59.8148 78.7076 63.436 78.2077 64.7969 78.2077V66.6718ZM51.3453 68.6441L36.0774 70.9343L37.7887 82.3425L53.0565 80.0523L51.3453 68.6441ZM31.1651 76.6384C31.1651 80.0084 31.5585 89.0349 32.3182 103.469L43.8381 102.863C43.071 88.2887 42.701 79.63 42.701 76.6384H31.1651ZM32.3195 103.493C33.5892 125.84 34.2187 143.593 34.2187 156.795H45.7546C45.7546 143.278 45.1118 125.279 43.8368 102.839L32.3195 103.493ZM34.2187 156.795C34.2187 157.827 34.1627 158.531 34.0949 158.971C34.079 159.075 34.0641 159.152 34.0521 159.207C34.0401 159.263 34.0325 159.288 34.0325 159.288C34.0327 159.288 34.0353 159.279 34.0408 159.263C34.0464 159.247 34.0554 159.223 34.0687 159.191C34.0944 159.128 34.1406 159.026 34.2153 158.895L44.2312 164.618C44.988 163.294 45.3211 161.866 45.4966 160.725C45.6833 159.512 45.7546 158.18 45.7546 156.795H34.2187ZM34.0642 159.177C34.3679 158.57 34.8913 158.046 35.4986 157.743C36.0162 157.484 36.3294 157.516 36.1697 157.516V169.051C39.0101 169.051 42.5596 167.981 44.3822 164.336L34.0642 159.177ZM36.1697 157.516C36.28 157.516 36.4714 157.533 36.7076 157.61C36.9475 157.688 37.1598 157.804 37.3274 157.932C37.6513 158.179 37.6211 158.318 37.4462 157.918L26.8775 162.542C27.5932 164.178 28.6763 165.843 30.3361 167.108C32.0718 168.431 34.0978 169.051 36.1697 169.051V157.516ZM37.4462 157.918C36.9176 156.71 36.5938 155.223 36.5938 153.359H25.058C25.058 156.585 25.6249 159.679 26.8775 162.542L37.4462 157.918ZM36.5938 153.359C36.5938 138.541 35.6299 115.428 33.7204 84.1121L22.2059 84.8142C24.1134 116.097 25.058 138.915 25.058 153.359H36.5938ZM33.7199 84.1034L33.3382 77.9962L21.8248 78.7158L22.2065 84.823L33.7199 84.1034ZM26.8661 72.6326C25.6463 72.7851 22.1322 73.3975 16.6256 74.3988L18.6892 85.7485C24.3789 84.714 27.481 84.1814 28.2969 84.0794L26.8661 72.6326ZM16.6024 74.403C11.1701 75.4137 7.60889 75.8325 5.63393 75.8325V87.3684C8.74826 87.3684 13.2026 86.7693 18.7124 85.7443L16.6024 74.403ZM5.63393 75.8325C5.37129 75.8325 5.2176 75.8028 5.14563 75.7838C5.10924 75.7743 5.08835 75.7661 5.07909 75.7621C5.07006 75.7582 5.06627 75.7559 5.06481 75.755L-1.04918 85.5374C1.02875 86.8361 3.3359 87.3684 5.63393 87.3684V75.8325ZM5.36035 75.9526C5.69039 76.1884 6.01826 76.5548 6.23266 77.0142C6.43282 77.4431 6.43981 77.7493 6.43981 77.7835H-5.09606C-5.09606 80.5718 -4.01286 83.4339 -1.34473 85.3398L5.36035 75.9526ZM6.43981 77.7835C6.43981 77.3179 6.48332 77.0807 6.49924 77.0135C6.51427 76.95 6.47984 77.1418 6.27304 77.4405C6.04586 77.7687 5.69879 78.0957 5.2593 78.3236C4.84247 78.5397 4.52022 78.5753 4.4271 78.5805L3.78719 67.0624C1.14755 67.209 -1.47505 68.3658 -3.21166 70.8742C-4.73759 73.0783 -5.09606 75.6487 -5.09606 77.7835H6.43981ZM4.32882 78.5851C7.74461 78.4537 11.8389 78.1929 16.5967 77.8071L15.6644 66.309C11.0071 66.6866 7.08575 66.9346 3.88547 67.0577L4.32882 78.5851ZM16.7505 77.7925C21.5147 77.2775 25.3419 76.7468 28.1401 76.1871L25.8778 64.8753C23.5867 65.3335 20.1616 65.8207 15.5106 66.3235L16.7505 77.7925ZM32.7769 70.5312C32.7769 50.1093 35.527 34.0478 40.7024 22.0502L30.1101 17.481C24.0891 31.4388 21.241 49.2211 21.241 70.5312H32.7769ZM40.6918 22.0748C43.2928 16.1214 46.3251 12.1018 49.5777 9.58287C52.7482 7.1275 56.4059 5.87616 60.7891 5.87616V-5.65971C53.9759 -5.65971 47.8048 -3.63483 42.5144 0.462261C37.3061 4.49577 33.2452 10.3049 30.1207 17.4564L40.6918 22.0748ZM60.7891 5.87616C63.8471 5.87616 66.5817 6.62644 69.1086 8.1239L74.9896 -1.8003C70.6461 -4.37428 65.8739 -5.65971 60.7891 -5.65971V5.87616ZM69.1874 8.16977C72.1182 9.84448 74.234 11.7747 75.7115 13.8987L85.1814 7.31102C82.5875 3.58234 79.1051 0.550545 74.9108 -1.84617L69.1874 8.16977ZM75.808 14.0333C77.5886 16.4423 77.9229 17.9201 77.9229 18.6205H89.4588C89.4588 14.4861 87.6302 10.6201 85.0849 7.17647L75.808 14.0333ZM148.946 63.6607L152.844 67.9126L152.851 67.9058L152.858 67.899L148.946 63.6607ZM142.266 64.6149L138.188 68.6935L138.344 68.8501L138.513 68.9943L142.266 64.6149ZM139.594 61.3705L134.869 64.6782L134.899 64.7209L134.93 64.763L139.594 61.3705ZM135.968 58.1261L132.872 62.9923L132.966 63.0521L133.062 63.1083L135.968 58.1261ZM116.693 71.4855L121.54 74.611L121.55 74.5966L121.559 74.5821L116.693 71.4855ZM98.3713 108.128L93.0255 105.962L92.5543 107.125L92.6088 108.379L98.3713 108.128ZM98.9438 119.198L93.1853 119.527L93.1899 119.608L93.197 119.69L98.9438 119.198ZM99.7072 129.122L93.9492 129.46L93.952 129.507L93.9554 129.553L99.7072 129.122ZM100.28 136.756H106.048V136.54L106.032 136.324L100.28 136.756ZM99.1347 141.336L94.1887 138.368L94.1277 138.47L94.071 138.574L99.1347 141.336ZM90.7373 134.847L85.0032 135.47L85.0047 135.484L90.7373 134.847ZM89.5922 109.464L95.3598 109.398L95.3587 109.3L95.3542 109.202L89.5922 109.464ZM89.2106 97.4408H83.4426V97.5112L83.4443 97.5815L89.2106 97.4408ZM88.8289 78.7377L83.0644 78.9388L83.0645 78.94L88.8289 78.7377ZM97.417 53.7366L91.7611 54.8678L91.8069 55.0967L91.871 55.3212L97.417 53.7366ZM98.1804 94.5781H92.4125L103.555 96.672L98.1804 94.5781ZM110.586 69.1953L105.694 66.1383L110.586 69.1953ZM123.563 52.9732L127.371 57.3059L127.379 57.2982L123.563 52.9732ZM143.03 49.1562L140.45 54.3152H140.45L143.03 49.1562ZM149.137 54.1183L144.523 57.579L144.577 57.6511L144.633 57.7215L149.137 54.1183ZM145.659 59.6529C145.659 59.2382 145.735 58.9194 145.8 58.7235C145.863 58.534 145.919 58.4507 145.903 58.4777C145.886 58.5037 145.821 58.6027 145.673 58.7738C145.526 58.9432 145.318 59.1597 145.034 59.4224L152.858 67.899C154.683 66.2142 157.195 63.4008 157.195 59.6529H145.659ZM145.049 59.4088C144.797 59.6396 144.589 59.8081 144.426 59.9279C144.261 60.0484 144.161 60.1059 144.123 60.1258C144.028 60.1752 144.33 59.9921 144.938 59.9921V71.528C148.313 71.528 151.027 69.5775 152.844 67.9126L145.049 59.4088ZM144.938 59.9921C145.341 59.9921 145.665 60.0826 145.874 60.1722C146.066 60.2544 146.111 60.3138 146.02 60.2356L138.513 68.9943C140.112 70.3655 142.285 71.528 144.938 71.528V59.9921ZM146.345 60.5364C145.882 60.0737 145.192 59.2604 144.259 57.978L134.93 64.763C136.033 66.2797 137.124 67.6294 138.188 68.6935L146.345 60.5364ZM144.32 58.0628C142.889 56.019 141.022 54.3966 138.875 53.1439L133.062 63.1083C133.968 63.6368 134.519 64.1774 134.869 64.6782L144.32 58.0628ZM139.065 53.2599C136.823 51.8334 134.297 51.0222 131.579 51.0222V62.5581C131.914 62.5581 132.314 62.6376 132.872 62.9923L139.065 53.2599ZM131.579 51.0222C127.335 51.0222 123.743 53.6888 121.038 56.3592C118.113 59.2471 115.044 63.332 111.827 68.3888L121.559 74.5821C124.575 69.8421 127.105 66.5793 129.142 64.5688C131.399 62.3407 132.133 62.5581 131.579 62.5581V51.0222ZM111.845 68.36C105.357 78.4237 99.0935 90.986 93.0255 105.962L103.717 110.294C109.609 95.7528 115.56 83.8866 121.54 74.611L111.845 68.36ZM92.6088 108.379C92.7376 111.341 92.93 115.059 93.1853 119.527L104.702 118.868C104.449 114.43 104.259 110.768 104.134 107.878L92.6088 108.379ZM93.197 119.69C93.5778 124.134 93.8268 127.378 93.9492 129.46L105.465 128.783C105.333 126.539 105.073 123.168 104.691 118.705L93.197 119.69ZM93.9554 129.553L94.528 137.187L106.032 136.324L105.459 128.69L93.9554 129.553ZM94.5118 136.756C94.5118 137.702 94.3154 138.157 94.1887 138.368L104.081 144.304C105.481 141.97 106.048 139.372 106.048 136.756H94.5118ZM94.071 138.574C94.1417 138.444 94.2565 138.28 94.4256 138.115C94.5954 137.951 94.7746 137.831 94.933 137.751C95.238 137.599 95.3183 137.667 94.936 137.667V149.203C98.3993 149.203 102.134 147.882 104.198 144.098L94.071 138.574ZM94.936 137.667C95.787 137.667 96.5532 137.987 97.0699 138.402C97.4925 138.742 97.5611 138.99 97.4459 138.755C97.3399 138.538 97.1606 138.078 96.97 137.274C96.7831 136.486 96.6105 135.474 96.47 134.21L85.0047 135.484C85.3468 138.563 85.9447 141.495 87.0823 143.822C88.2325 146.174 90.6785 149.203 94.936 149.203V137.667ZM96.4715 134.224C95.8659 128.652 95.4864 120.412 95.3598 109.398L83.8247 109.531C83.9526 120.655 84.3365 129.337 85.0032 135.47L96.4715 134.224ZM95.3542 109.202C95.2298 106.464 95.1037 102.504 94.9768 97.3002L83.4443 97.5815C83.5719 102.81 83.7003 106.866 83.8303 109.726L95.3542 109.202ZM94.9785 97.4408C94.9785 92.1366 94.8492 85.8312 94.5932 78.5354L83.0645 78.94C83.3174 86.1487 83.4426 92.312 83.4426 97.4408H94.9785ZM94.5933 78.5366C94.2117 67.5976 94.0242 59.8611 94.0242 55.2634H82.4884C82.4884 60.0808 82.6826 67.9939 83.0644 78.9388L94.5933 78.5366ZM94.0242 55.2634C94.0242 55.1057 94.0492 55.2302 93.9349 55.5118C93.8063 55.8288 93.5722 56.1664 93.2534 56.4283C92.9585 56.6705 92.7449 56.7225 92.7854 56.7114C92.8391 56.6967 93.0854 56.6418 93.6001 56.6418V45.1059C91.1753 45.1059 88.2848 45.5808 85.9311 47.5142C83.3602 49.626 82.4884 52.5791 82.4884 55.2634H94.0242ZM93.6001 56.6418C93.8766 56.6418 93.3822 56.7038 92.7158 56.2039C91.9763 55.6493 91.7834 54.9794 91.7611 54.8678L103.073 52.6054C102.669 50.5853 101.649 48.484 99.6373 46.9752C97.6985 45.5211 95.4865 45.1059 93.6001 45.1059V56.6418ZM91.871 55.3212C92.1246 56.2086 92.4125 58.9135 92.4125 64.2332H103.948C103.948 59.1199 103.727 54.8271 102.963 52.152L91.871 55.3212ZM92.4125 64.2332V94.5781H103.948V64.2332H92.4125ZM103.555 96.672C107.272 87.131 111.255 79.0073 115.477 72.2523L105.694 66.1383C101.01 73.6333 96.7226 82.4315 92.806 92.4842L103.555 96.672ZM115.477 72.2523C119.766 65.3892 123.748 60.4893 127.371 57.3059L119.756 48.6405C114.981 52.8365 110.311 58.7514 105.694 66.1383L115.477 72.2523ZM127.379 57.2982C131.365 53.7813 133.837 53.0157 135.014 53.0157V41.4798C129.576 41.4798 124.413 44.5312 119.747 48.6482L127.379 57.2982ZM135.014 53.0157C136.903 53.0157 138.693 53.4365 140.45 54.3152L145.609 43.9972C142.277 42.3313 138.724 41.4798 135.014 41.4798V53.0157ZM140.45 54.3152C142.29 55.2349 143.594 56.3405 144.523 57.579L153.751 50.6575C151.627 47.8246 148.859 45.6222 145.609 43.9972L140.45 54.3152ZM144.633 57.7215C145.643 58.9843 145.659 59.594 145.659 59.6529H157.195C157.195 56.1492 155.684 53.0692 153.641 50.5151L144.633 57.7215ZM231.404 109.273L226.13 106.939L226.114 106.975L226.098 107.012L231.404 109.273ZM216.137 130.839L212.136 126.685L212.116 126.703L212.097 126.722L216.137 130.839ZM170.715 133.129L174.643 128.906L170.715 133.129ZM169.379 80.2645L174.591 82.7337L174.598 82.7205L174.604 82.7074L169.379 80.2645ZM187.318 56.4085L190.996 60.852L191.018 60.8334L191.041 60.8145L187.318 56.4085ZM222.053 50.3013L218.809 55.071L218.918 55.1448L219.03 55.2136L222.053 50.3013ZM219.381 72.2489L215.71 67.7996L215.683 67.8225L215.655 67.8457L219.381 72.2489ZM199.914 83.3181L202.042 88.6793L199.914 83.3181ZM175.104 90.1886L174.17 84.4969L170.47 85.1044L169.523 88.7327L175.104 90.1886ZM177.967 124.541L173.559 128.261L173.592 128.3L173.626 128.34L177.967 124.541ZM216.9 120.152L212.554 116.359V116.359L216.9 120.152ZM232.168 96.4866L227.009 93.9071L226.971 93.9829L226.935 94.0599L232.168 96.4866ZM233.504 93.6239L238.755 96.0107L238.793 95.9271L238.828 95.8423L233.504 93.6239ZM215.182 56.5993L212.355 61.6265L212.419 61.6625L212.484 61.6969L215.182 56.5993ZM193.998 59.6529L190.646 54.9593L193.998 59.6529ZM182.738 71.1038L177.981 67.8418L177.949 67.8887L177.918 67.9362L182.738 71.1038ZM177.013 82.9364L171.429 81.4888L169.333 89.573L177.636 88.6705L177.013 82.9364ZM195.525 77.9743L197.721 83.3078L195.525 77.9743ZM211.747 69.1953L208.395 64.5017L208.362 64.5248L208.33 64.5484L211.747 69.1953ZM235.221 97.1016C234.35 97.1016 233.349 96.8457 232.453 96.2062C231.614 95.6069 231.189 94.9014 230.997 94.4885C230.68 93.8113 230.789 93.5085 230.789 94.1964H242.325C242.325 92.9758 242.212 91.2417 241.45 89.6102C241.035 88.7203 240.331 87.6569 239.158 86.819C237.929 85.941 236.539 85.5658 235.221 85.5658V97.1016ZM230.789 94.1964C230.789 94.134 230.789 94.3889 230.62 95.1086C230.462 95.7802 230.202 96.6742 229.811 97.8179C229.029 100.107 227.815 103.133 226.13 106.939L236.679 111.608C238.429 107.653 239.792 104.285 240.727 101.549C241.592 99.0179 242.325 96.3879 242.325 94.1964H230.789ZM226.098 107.012C223.131 113.974 218.521 120.536 212.136 126.685L220.137 134.994C227.493 127.911 233.062 120.096 236.71 111.535L226.098 107.012ZM212.097 126.722C206.491 132.222 199.633 134.995 191.135 134.995V146.531C202.486 146.531 212.295 142.688 220.176 134.956L212.097 126.722ZM191.135 134.995C184.308 134.995 178.947 132.91 174.643 128.906L166.786 137.353C173.424 143.528 181.677 146.531 191.135 146.531V134.995ZM174.643 128.906C170.763 125.297 168.276 119.291 168.276 109.655H156.74C156.74 121.14 159.724 130.784 166.786 137.353L174.643 128.906ZM168.276 109.655C168.276 100.65 170.348 91.6929 174.591 82.7337L164.166 77.7953C159.249 88.1754 156.74 98.8116 156.74 109.655H168.276ZM174.604 82.7074C178.87 73.5835 184.354 66.3486 190.996 60.852L183.641 51.9649C175.524 58.6826 169.049 67.3517 164.154 77.8216L174.604 82.7074ZM191.041 60.8145C197.622 55.2546 203.982 52.8248 210.22 52.8248V41.289C200.682 41.289 191.774 45.0936 183.596 52.0024L191.041 60.8145ZM210.22 52.8248C214.033 52.8248 216.781 53.6916 218.809 55.071L225.296 45.5317C220.963 42.5852 215.823 41.289 210.22 41.289V52.8248ZM219.03 55.2136C220.6 56.1799 221.247 57.2921 221.247 59.2712H232.783C232.783 53.3619 230.122 48.4942 225.076 45.389L219.03 55.2136ZM221.247 59.2712C221.247 61.303 220.127 64.1561 215.71 67.7996L223.052 76.6981C228.814 71.9444 232.783 66.1456 232.783 59.2712H221.247ZM215.655 67.8457C211.298 71.5329 205.4 74.936 197.787 77.9568L202.042 88.6793C210.461 85.3386 217.54 81.3621 223.107 76.652L215.655 67.8457ZM197.787 77.9568C190.157 80.9847 182.287 83.1642 174.17 84.4969L176.039 95.8803C184.971 94.4138 193.641 92.013 202.042 88.6793L197.787 77.9568ZM169.523 88.7327C167.882 95.0228 167.046 101.238 167.046 107.365H178.582C178.582 102.296 179.273 97.0598 180.685 91.6446L169.523 88.7327ZM167.046 107.365C167.046 115.584 168.959 122.81 173.559 128.261L182.375 120.822C180.104 118.13 178.582 113.904 178.582 107.365H167.046ZM173.626 128.34C178.502 133.912 185.255 136.416 193.044 136.416V124.881C187.855 124.881 184.557 123.313 182.308 120.743L173.626 128.34ZM193.044 136.416C204.403 136.416 213.977 132.273 221.246 123.944L212.554 116.359C207.609 122.026 201.279 124.881 193.044 124.881V136.416ZM221.246 123.944C227.726 116.519 233.109 108.166 237.4 98.9133L226.935 94.0599C223.084 102.365 218.288 109.789 212.554 116.359L221.246 123.944ZM237.327 99.0661C237.636 98.4484 238.122 97.4017 238.755 96.0107L228.253 91.2371C227.613 92.6451 227.209 93.5069 227.009 93.9071L237.327 99.0661ZM238.828 95.8423C239.075 95.2489 239.161 95.1857 239.025 95.367C238.952 95.4644 238.676 95.8207 238.154 96.189C237.607 96.5752 236.598 97.1016 235.221 97.1016V85.5658C232.054 85.5658 230.278 87.8028 229.796 88.4455C229.087 89.3902 228.568 90.472 228.18 91.4054L238.828 95.8423ZM224.195 61.3705C224.195 56.7255 221.474 53.4039 217.881 51.5017L212.484 61.6969C212.955 61.9464 212.959 62.0601 212.846 61.8943C212.789 61.8105 212.733 61.6993 212.697 61.5757C212.661 61.455 212.659 61.3776 212.659 61.3705H224.195ZM218.01 51.5721C214.955 49.8534 211.523 49.1137 207.93 49.1137V60.6496C209.935 60.6496 211.339 61.055 212.355 61.6265L218.01 51.5721ZM207.93 49.1137C201.738 49.1137 195.943 51.1757 190.646 54.9593L197.351 64.3464C200.96 61.7685 204.453 60.6496 207.93 60.6496V49.1137ZM190.646 54.9593C185.652 58.5263 181.421 62.8256 177.981 67.8418L187.495 74.3657C190.163 70.4757 193.438 67.1411 197.351 64.3464L190.646 54.9593ZM177.918 67.9362C174.801 72.6796 172.537 77.2174 171.429 81.4888L182.596 84.3839C183.27 81.7848 184.823 78.4342 187.558 74.2714L177.918 67.9362ZM177.636 88.6705C184.121 87.9656 190.823 86.1483 197.721 83.3078L193.329 72.6408C187.249 75.1441 181.61 76.6348 176.389 77.2022L177.636 88.6705ZM197.721 83.3078C204.519 80.5087 210.366 77.3703 215.164 73.8422L208.33 64.5484C204.477 67.3819 199.509 70.0962 193.329 72.6408L197.721 83.3078ZM215.1 73.8889C217.511 72.1667 219.6 70.4064 221.144 68.5984C222.587 66.9081 224.195 64.4311 224.195 61.3705H212.659C212.659 60.3457 213.154 60.1907 212.37 61.1086C211.687 61.9089 210.437 63.0431 208.395 64.5017L215.1 73.8889ZM318.024 109.273L312.75 106.939L312.734 106.975L312.718 107.012L318.024 109.273ZM302.756 130.839L298.755 126.685L298.736 126.703L298.717 126.722L302.756 130.839ZM257.334 133.129L261.263 128.906L257.334 133.129ZM255.999 80.2645L261.211 82.7337L261.217 82.7205L261.224 82.7074L255.999 80.2645ZM273.938 56.4085L277.616 60.852L277.638 60.8334L277.661 60.8145L273.938 56.4085ZM308.673 50.3013L305.429 55.071L305.538 55.1448L305.65 55.2136L308.673 50.3013ZM306.001 72.2489L302.33 67.7996L302.302 67.8225L302.275 67.8457L306.001 72.2489ZM286.534 83.3181L288.662 88.6793L286.534 83.3181ZM261.724 90.1886L260.789 84.4969L257.089 85.1044L256.143 88.7327L261.724 90.1886ZM264.587 124.541L260.178 128.261L260.212 128.3L260.246 128.34L264.587 124.541ZM303.52 120.152L299.174 116.359V116.359L303.52 120.152ZM318.788 96.4866L313.629 93.9071L313.591 93.9829L313.555 94.0599L318.788 96.4866ZM320.124 93.6239L325.374 96.0107L325.412 95.9271L325.448 95.8423L320.124 93.6239ZM301.802 56.5993L298.974 61.6265L299.038 61.6625L299.103 61.6969L301.802 56.5993ZM280.618 59.6529L277.265 54.9593L280.618 59.6529ZM269.358 71.1038L264.601 67.8418L264.569 67.8887L264.538 67.9362L269.358 71.1038ZM263.632 82.9364L258.049 81.4888L255.953 89.573L264.256 88.6705L263.632 82.9364ZM282.145 77.9743L284.341 83.3078L282.145 77.9743ZM298.367 69.1953L295.014 64.5017L294.982 64.5248L294.95 64.5484L298.367 69.1953ZM321.841 97.1016C320.969 97.1016 319.968 96.8457 319.073 96.2062C318.234 95.6069 317.809 94.9014 317.616 94.4885C317.3 93.8113 317.409 93.5085 317.409 94.1964H328.945C328.945 92.9758 328.831 91.2417 328.07 89.6102C327.655 88.7203 326.951 87.6569 325.778 86.819C324.549 85.941 323.158 85.5658 321.841 85.5658V97.1016ZM317.409 94.1964C317.409 94.134 317.409 94.3889 317.24 95.1086C317.082 95.7802 316.822 96.6742 316.431 97.8179C315.649 100.107 314.434 103.133 312.75 106.939L323.299 111.608C325.049 107.653 326.411 104.285 327.347 101.549C328.212 99.0179 328.945 96.3879 328.945 94.1964H317.409ZM312.718 107.012C309.751 113.974 305.141 120.536 298.755 126.685L306.757 134.994C314.113 127.911 319.681 120.096 323.33 111.535L312.718 107.012ZM298.717 126.722C293.111 132.222 286.253 134.995 277.755 134.995V146.531C289.105 146.531 298.915 142.688 306.796 134.956L298.717 126.722ZM277.755 134.995C270.927 134.995 265.567 132.91 261.263 128.906L253.406 137.353C260.044 143.528 268.297 146.531 277.755 146.531V134.995ZM261.263 128.906C257.383 125.297 254.896 119.291 254.896 109.655H243.36C243.36 121.14 246.344 130.784 253.406 137.353L261.263 128.906ZM254.896 109.655C254.896 100.65 256.967 91.6929 261.211 82.7337L250.786 77.7953C245.869 88.1754 243.36 98.8116 243.36 109.655H254.896ZM261.224 82.7074C265.489 73.5835 270.974 66.3486 277.616 60.852L270.261 51.9649C262.144 58.6826 255.668 67.3517 250.773 77.8216L261.224 82.7074ZM277.661 60.8145C284.242 55.2546 290.601 52.8248 296.84 52.8248V41.289C287.302 41.289 278.394 45.0936 270.216 52.0024L277.661 60.8145ZM296.84 52.8248C300.653 52.8248 303.401 53.6916 305.429 55.071L311.916 45.5317C307.583 42.5852 302.443 41.289 296.84 41.289V52.8248ZM305.65 55.2136C307.22 56.1799 307.867 57.2921 307.867 59.2712H319.403C319.403 53.3619 316.741 48.4942 311.696 45.389L305.65 55.2136ZM307.867 59.2712C307.867 61.303 306.747 64.1561 302.33 67.7996L309.671 76.6981C315.433 71.9444 319.403 66.1456 319.403 59.2712H307.867ZM302.275 67.8457C297.917 71.5329 292.019 74.936 284.407 77.9568L288.662 88.6793C297.08 85.3386 304.16 81.3621 309.727 76.652L302.275 67.8457ZM284.407 77.9568C276.776 80.9847 268.906 83.1642 260.789 84.4969L262.658 95.8803C271.591 94.4138 280.261 92.013 288.662 88.6793L284.407 77.9568ZM256.143 88.7327C254.502 95.0228 253.666 101.238 253.666 107.365H265.202C265.202 102.296 265.892 97.0598 267.305 91.6446L256.143 88.7327ZM253.666 107.365C253.666 115.584 255.579 122.81 260.178 128.261L268.995 120.822C266.724 118.13 265.202 113.904 265.202 107.365H253.666ZM260.246 128.34C265.122 133.912 271.875 136.416 279.664 136.416V124.881C274.475 124.881 271.176 123.313 268.927 120.743L260.246 128.34ZM279.664 136.416C291.023 136.416 300.596 132.273 307.865 123.944L299.174 116.359C294.229 122.026 287.898 124.881 279.664 124.881V136.416ZM307.865 123.944C314.346 116.519 319.729 108.166 324.02 98.9133L313.555 94.0599C309.703 102.365 304.908 109.789 299.174 116.359L307.865 123.944ZM323.947 99.0661C324.255 98.4484 324.742 97.4017 325.374 96.0107L314.873 91.2371C314.233 92.6451 313.829 93.5069 313.629 93.9071L323.947 99.0661ZM325.448 95.8423C325.695 95.2489 325.78 95.1857 325.644 95.367C325.571 95.4644 325.296 95.8207 324.774 96.189C324.227 96.5752 323.218 97.1016 321.841 97.1016V85.5658C318.673 85.5658 316.898 87.8028 316.416 88.4455C315.707 89.3902 315.188 90.472 314.799 91.4054L325.448 95.8423ZM310.814 61.3705C310.814 56.7255 308.094 53.4039 304.501 51.5017L299.103 61.6969C299.575 61.9464 299.578 62.0601 299.466 61.8943C299.409 61.8105 299.353 61.6993 299.316 61.5757C299.28 61.455 299.279 61.3776 299.279 61.3705H310.814ZM304.63 51.5721C301.574 49.8534 298.143 49.1137 294.55 49.1137V60.6496C296.555 60.6496 297.958 61.055 298.974 61.6265L304.63 51.5721ZM294.55 49.1137C288.358 49.1137 282.562 51.1757 277.265 54.9593L283.97 64.3464C287.58 61.7685 291.072 60.6496 294.55 60.6496V49.1137ZM277.265 54.9593C272.272 58.5263 268.041 62.8256 264.601 67.8418L274.115 74.3657C276.782 70.4757 280.058 67.1411 283.97 64.3464L277.265 54.9593ZM264.538 67.9362C261.421 72.6796 259.157 77.2174 258.049 81.4888L269.216 84.3839C269.89 81.7848 271.443 78.4342 274.178 74.2714L264.538 67.9362ZM264.256 88.6705C270.741 87.9656 277.443 86.1483 284.341 83.3078L279.949 72.6408C273.869 75.1441 268.229 76.6348 263.009 77.2022L264.256 88.6705ZM284.341 83.3078C291.139 80.5087 296.985 77.3703 301.784 73.8422L294.95 64.5484C291.096 67.3819 286.128 70.0962 279.949 72.6408L284.341 83.3078ZM301.719 73.8889C304.13 72.1667 306.22 70.4064 307.763 68.5984C309.206 66.9081 310.814 64.4311 310.814 61.3705H299.279C299.279 60.3457 299.773 60.1907 298.99 61.1086C298.307 61.9089 297.056 63.0431 295.014 64.5017L301.719 73.8889Z" fill="white"/>
</svg>
