<svg width="175" height="65" viewBox="0 0 175 65" fill="none" xmlns="http://www.w3.org/2000/svg">
<path d="M0.724813 7.1201C0.724813 6.0321 0.975479 5.0561 1.47681 4.1921C1.98881 3.3281 2.67681 2.6561 3.54081 2.1761C4.41548 1.68543 5.37015 1.4401 6.40481 1.4401C7.58881 1.4401 8.63948 1.73343 9.55681 2.3201C10.4848 2.8961 11.1568 3.71743 11.5728 4.7841H9.38081C9.09281 4.19743 8.69281 3.7601 8.18081 3.4721C7.66881 3.1841 7.07681 3.0401 6.40481 3.0401C5.66881 3.0401 5.01281 3.20543 4.43681 3.5361C3.86081 3.86677 3.40748 4.34143 3.07681 4.9601C2.75681 5.57877 2.59681 6.29877 2.59681 7.1201C2.59681 7.94143 2.75681 8.66143 3.07681 9.2801C3.40748 9.89877 3.86081 10.3788 4.43681 10.7201C5.01281 11.0508 5.66881 11.2161 6.40481 11.2161C7.07681 11.2161 7.66881 11.0721 8.18081 10.7841C8.69281 10.4961 9.09281 10.0588 9.38081 9.4721H11.5728C11.1568 10.5388 10.4848 11.3601 9.55681 11.9361C8.63948 12.5121 7.58881 12.8001 6.40481 12.8001C5.35948 12.8001 4.40481 12.5601 3.54081 12.0801C2.67681 11.5894 1.98881 10.9121 1.47681 10.0481C0.975479 9.1841 0.724813 8.2081 0.724813 7.1201ZM15.5318 0.864101V12.7041H13.7078V0.864101H15.5318ZM18.8546 2.7201C18.5239 2.7201 18.2466 2.6081 18.0226 2.3841C17.7986 2.1601 17.6866 1.88277 17.6866 1.5521C17.6866 1.22143 17.7986 0.944101 18.0226 0.720101C18.2466 0.496101 18.5239 0.384101 18.8546 0.384101C19.1746 0.384101 19.4466 0.496101 19.6706 0.720101C19.8946 0.944101 20.0066 1.22143 20.0066 1.5521C20.0066 1.88277 19.8946 2.1601 19.6706 2.3841C19.4466 2.6081 19.1746 2.7201 18.8546 2.7201ZM19.7506 3.8881V12.7041H17.9266V3.8881H19.7506ZM21.5373 8.2881C21.5373 7.38143 21.7186 6.58677 22.0813 5.9041C22.4546 5.21077 22.9666 4.67743 23.6173 4.3041C24.268 3.93077 25.0146 3.7441 25.8573 3.7441C26.924 3.7441 27.804 4.0001 28.4973 4.5121C29.2013 5.01343 29.676 5.73343 29.9213 6.6721H27.9533C27.7933 6.23477 27.5373 5.89343 27.1853 5.6481C26.8333 5.40277 26.3906 5.2801 25.8573 5.2801C25.1106 5.2801 24.5133 5.54677 24.0653 6.0801C23.628 6.60277 23.4093 7.33877 23.4093 8.2881C23.4093 9.23743 23.628 9.97877 24.0653 10.5121C24.5133 11.0454 25.1106 11.3121 25.8573 11.3121C26.9133 11.3121 27.612 10.8481 27.9533 9.9201H29.9213C29.6653 10.8161 29.1853 11.5308 28.4813 12.0641C27.7773 12.5868 26.9026 12.8481 25.8573 12.8481C25.0146 12.8481 24.268 12.6614 23.6173 12.2881C22.9666 11.9041 22.4546 11.3708 22.0813 10.6881C21.7186 9.99477 21.5373 9.19477 21.5373 8.2881ZM35.2271 8.3041L39.2911 12.7041H36.8271L33.5631 8.9121V12.7041H31.7391V0.864101H33.5631V7.7441L36.7631 3.8881H39.2911L35.2271 8.3041ZM48.5787 12.8481C47.7467 12.8481 46.9947 12.6614 46.3227 12.2881C45.6507 11.9041 45.1227 11.3708 44.7387 10.6881C44.3547 9.99477 44.1627 9.19477 44.1627 8.2881C44.1627 7.3921 44.36 6.59743 44.7547 5.9041C45.1494 5.21077 45.688 4.67743 46.3707 4.3041C47.0534 3.93077 47.816 3.7441 48.6587 3.7441C49.5014 3.7441 50.264 3.93077 50.9467 4.3041C51.6294 4.67743 52.168 5.21077 52.5627 5.9041C52.9574 6.59743 53.1547 7.3921 53.1547 8.2881C53.1547 9.1841 52.952 9.97877 52.5467 10.6721C52.1414 11.3654 51.5867 11.9041 50.8827 12.2881C50.1894 12.6614 49.4214 12.8481 48.5787 12.8481ZM48.5787 11.2641C49.048 11.2641 49.4854 11.1521 49.8907 10.9281C50.3067 10.7041 50.6427 10.3681 50.8987 9.9201C51.1547 9.4721 51.2827 8.9281 51.2827 8.2881C51.2827 7.6481 51.16 7.10943 50.9147 6.6721C50.6694 6.2241 50.344 5.8881 49.9387 5.6641C49.5334 5.4401 49.096 5.3281 48.6267 5.3281C48.1574 5.3281 47.72 5.4401 47.3147 5.6641C46.92 5.8881 46.6054 6.2241 46.3707 6.6721C46.136 7.10943 46.0187 7.6481 46.0187 8.2881C46.0187 9.23743 46.2587 9.97343 46.7387 10.4961C47.2294 11.0081 47.8427 11.2641 48.5787 11.2641ZM59.4058 3.7441C60.0991 3.7441 60.7178 3.8881 61.2618 4.1761C61.8165 4.4641 62.2485 4.89077 62.5578 5.4561C62.8671 6.02143 63.0218 6.7041 63.0218 7.5041V12.7041H61.2138V7.7761C61.2138 6.98677 61.0165 6.3841 60.6218 5.9681C60.2271 5.54143 59.6885 5.3281 59.0058 5.3281C58.3231 5.3281 57.7791 5.54143 57.3738 5.9681C56.9791 6.3841 56.7818 6.98677 56.7818 7.7761V12.7041H54.9578V3.8881H56.7818V4.8961C57.0805 4.53343 57.4591 4.25077 57.9178 4.0481C58.3871 3.84543 58.8831 3.7441 59.4058 3.7441ZM71.6327 5.3761V10.2561C71.6327 10.5868 71.7074 10.8268 71.8567 10.9761C72.0167 11.1148 72.2834 11.1841 72.6567 11.1841H73.7767V12.7041H72.3367C71.5154 12.7041 70.886 12.5121 70.4487 12.1281C70.0114 11.7441 69.7927 11.1201 69.7927 10.2561V5.3761H68.7527V3.8881H69.7927V1.6961H71.6327V3.8881H73.7767V5.3761H71.6327ZM80.0178 3.7441C80.6898 3.7441 81.2871 3.8881 81.8098 4.1761C82.3431 4.4641 82.7591 4.89077 83.0578 5.4561C83.3671 6.02143 83.5218 6.7041 83.5218 7.5041V12.7041H81.7138V7.7761C81.7138 6.98677 81.5165 6.3841 81.1218 5.9681C80.7271 5.54143 80.1885 5.3281 79.5058 5.3281C78.8231 5.3281 78.2791 5.54143 77.8738 5.9681C77.4791 6.3841 77.2818 6.98677 77.2818 7.7761V12.7041H75.4578V0.864101H77.2818V4.9121C77.5911 4.53877 77.9805 4.25077 78.4498 4.0481C78.9298 3.84543 79.4525 3.7441 80.0178 3.7441ZM93.9284 8.0801C93.9284 8.41077 93.9071 8.70943 93.8644 8.9761H87.1284C87.1818 9.6801 87.4431 10.2454 87.9124 10.6721C88.3818 11.0988 88.9578 11.3121 89.6404 11.3121C90.6218 11.3121 91.3151 10.9014 91.7204 10.0801H93.6884C93.4218 10.8908 92.9364 11.5574 92.2324 12.0801C91.5391 12.5921 90.6751 12.8481 89.6404 12.8481C88.7978 12.8481 88.0404 12.6614 87.3684 12.2881C86.7071 11.9041 86.1844 11.3708 85.8004 10.6881C85.4271 9.99477 85.2404 9.19477 85.2404 8.2881C85.2404 7.38143 85.4218 6.58677 85.7844 5.9041C86.1578 5.21077 86.6751 4.67743 87.3364 4.3041C88.0084 3.93077 88.7764 3.7441 89.6404 3.7441C90.4724 3.7441 91.2138 3.92543 91.8644 4.2881C92.5151 4.65077 93.0218 5.16277 93.3844 5.8241C93.7471 6.47477 93.9284 7.22677 93.9284 8.0801ZM92.0244 7.5041C92.0138 6.8321 91.7738 6.29343 91.3044 5.8881C90.8351 5.48277 90.2538 5.2801 89.5604 5.2801C88.9311 5.2801 88.3924 5.48277 87.9444 5.8881C87.4964 6.28277 87.2298 6.82143 87.1444 7.5041H92.0244ZM102.008 5.3761V10.2561C102.008 10.5868 102.082 10.8268 102.232 10.9761C102.392 11.1148 102.658 11.1841 103.032 11.1841H104.152V12.7041H102.712C101.89 12.7041 101.261 12.5121 100.824 12.1281C100.386 11.7441 100.168 11.1201 100.168 10.2561V5.3761H99.1277V3.8881H100.168V1.6961H102.008V3.8881H104.152V5.3761H102.008ZM109.657 12.8481C108.825 12.8481 108.073 12.6614 107.401 12.2881C106.729 11.9041 106.201 11.3708 105.817 10.6881C105.433 9.99477 105.241 9.19477 105.241 8.2881C105.241 7.3921 105.438 6.59743 105.833 5.9041C106.227 5.21077 106.766 4.67743 107.449 4.3041C108.131 3.93077 108.894 3.7441 109.737 3.7441C110.579 3.7441 111.342 3.93077 112.025 4.3041C112.707 4.67743 113.246 5.21077 113.641 5.9041C114.035 6.59743 114.233 7.3921 114.233 8.2881C114.233 9.1841 114.03 9.97877 113.625 10.6721C113.219 11.3654 112.665 11.9041 111.961 12.2881C111.267 12.6614 110.499 12.8481 109.657 12.8481ZM109.657 11.2641C110.126 11.2641 110.563 11.1521 110.969 10.9281C111.385 10.7041 111.721 10.3681 111.977 9.9201C112.233 9.4721 112.361 8.9281 112.361 8.2881C112.361 7.6481 112.238 7.10943 111.993 6.6721C111.747 6.2241 111.422 5.8881 111.017 5.6641C110.611 5.4401 110.174 5.3281 109.705 5.3281C109.235 5.3281 108.798 5.4401 108.393 5.6641C107.998 5.8881 107.683 6.2241 107.449 6.6721C107.214 7.10943 107.097 7.6481 107.097 8.2881C107.097 9.23743 107.337 9.97343 107.817 10.4961C108.307 11.0081 108.921 11.2641 109.657 11.2641ZM117.86 5.1841C118.169 4.77877 118.591 4.43743 119.124 4.1601C119.657 3.88277 120.26 3.7441 120.932 3.7441C121.7 3.7441 122.399 3.9361 123.028 4.3201C123.668 4.69343 124.169 5.22143 124.532 5.9041C124.895 6.58677 125.076 7.37077 125.076 8.2561C125.076 9.14143 124.895 9.9361 124.532 10.6401C124.169 11.3334 123.668 11.8774 123.028 12.2721C122.399 12.6561 121.7 12.8481 120.932 12.8481C120.26 12.8481 119.663 12.7148 119.14 12.4481C118.617 12.1708 118.191 11.8294 117.86 11.4241V16.8961H116.036V3.8881H117.86V5.1841ZM123.22 8.2561C123.22 7.6481 123.092 7.12543 122.836 6.6881C122.591 6.2401 122.26 5.9041 121.844 5.6801C121.439 5.44543 121.001 5.3281 120.532 5.3281C120.073 5.3281 119.636 5.44543 119.22 5.6801C118.815 5.91477 118.484 6.2561 118.228 6.7041C117.983 7.1521 117.86 7.6801 117.86 8.2881C117.86 8.8961 117.983 9.42943 118.228 9.8881C118.484 10.3361 118.815 10.6774 119.22 10.9121C119.636 11.1468 120.073 11.2641 120.532 11.2641C121.001 11.2641 121.439 11.1468 121.844 10.9121C122.26 10.6668 122.591 10.3148 122.836 9.8561C123.092 9.39743 123.22 8.8641 123.22 8.2561ZM132.86 0.864101V12.7041H131.036V0.864101H132.86ZM143.335 8.0801C143.335 8.41077 143.313 8.70943 143.271 8.9761H136.535C136.588 9.6801 136.849 10.2454 137.319 10.6721C137.788 11.0988 138.364 11.3121 139.047 11.3121C140.028 11.3121 140.721 10.9014 141.127 10.0801H143.095C142.828 10.8908 142.343 11.5574 141.639 12.0801C140.945 12.5921 140.081 12.8481 139.047 12.8481C138.204 12.8481 137.447 12.6614 136.775 12.2881C136.113 11.9041 135.591 11.3708 135.207 10.6881C134.833 9.99477 134.647 9.19477 134.647 8.2881C134.647 7.38143 134.828 6.58677 135.191 5.9041C135.564 5.21077 136.081 4.67743 136.743 4.3041C137.415 3.93077 138.183 3.7441 139.047 3.7441C139.879 3.7441 140.62 3.92543 141.271 4.2881C141.921 4.65077 142.428 5.16277 142.791 5.8241C143.153 6.47477 143.335 7.22677 143.335 8.0801ZM141.431 7.5041C141.42 6.8321 141.18 6.29343 140.711 5.8881C140.241 5.48277 139.66 5.2801 138.967 5.2801C138.337 5.2801 137.799 5.48277 137.351 5.8881C136.903 6.28277 136.636 6.82143 136.551 7.5041H141.431ZM148.826 5.3761H147.194V12.7041H145.354V5.3761H144.314V3.8881H145.354V3.2641C145.354 2.25077 145.62 1.51477 146.154 1.0561C146.698 0.586768 147.546 0.352101 148.698 0.352101V1.8721C148.143 1.8721 147.754 1.97877 147.53 2.1921C147.306 2.39477 147.194 2.7521 147.194 3.2641V3.8881H148.826V5.3761ZM152.57 5.3761V10.2561C152.57 10.5868 152.645 10.8268 152.794 10.9761C152.954 11.1148 153.221 11.1841 153.594 11.1841H154.714V12.7041H153.274C152.453 12.7041 151.824 12.5121 151.386 12.1281C150.949 11.7441 150.73 11.1201 150.73 10.2561V5.3761H149.69V3.8881H150.73V1.6961H152.57V3.8881H154.714V5.3761H152.57ZM164.376 12.8481C163.544 12.8481 162.792 12.6614 162.12 12.2881C161.448 11.9041 160.92 11.3708 160.536 10.6881C160.152 9.99477 159.96 9.19477 159.96 8.2881C159.96 7.3921 160.157 6.59743 160.552 5.9041C160.946 5.21077 161.485 4.67743 162.168 4.3041C162.85 3.93077 163.613 3.7441 164.456 3.7441C165.298 3.7441 166.061 3.93077 166.744 4.3041C167.426 4.67743 167.965 5.21077 168.36 5.9041C168.754 6.59743 168.952 7.3921 168.952 8.2881C168.952 9.1841 168.749 9.97877 168.344 10.6721C167.938 11.3654 167.384 11.9041 166.68 12.2881C165.986 12.6614 165.218 12.8481 164.376 12.8481ZM164.376 11.2641C164.845 11.2641 165.282 11.1521 165.688 10.9281C166.104 10.7041 166.44 10.3681 166.696 9.9201C166.952 9.4721 167.08 8.9281 167.08 8.2881C167.08 7.6481 166.957 7.10943 166.712 6.6721C166.466 6.2241 166.141 5.8881 165.736 5.6641C165.33 5.4401 164.893 5.3281 164.424 5.3281C163.954 5.3281 163.517 5.4401 163.112 5.6641C162.717 5.8881 162.402 6.2241 162.168 6.6721C161.933 7.10943 161.816 7.6481 161.816 8.2881C161.816 9.23743 162.056 9.97343 162.536 10.4961C163.026 11.0081 163.64 11.2641 164.376 11.2641ZM174.451 5.3761H172.819V12.7041H170.979V5.3761H169.939V3.8881H170.979V3.2641C170.979 2.25077 171.245 1.51477 171.779 1.0561C172.323 0.586768 173.171 0.352101 174.323 0.352101V1.8721C173.768 1.8721 173.379 1.97877 173.155 2.1921C172.931 2.39477 172.819 2.7521 172.819 3.2641V3.8881H174.451V5.3761ZM4.203 29.3761V34.2561C4.203 34.5868 4.27767 34.8268 4.427 34.9761C4.587 35.1148 4.85367 35.1841 5.227 35.1841H6.347V36.7041H4.907C4.08567 36.7041 3.45633 36.5121 3.019 36.1281C2.58167 35.7441 2.363 35.1201 2.363 34.2561V29.3761H1.323V27.8881H2.363V25.6961H4.203V27.8881H6.347V29.3761H4.203ZM12.5881 27.7441C13.2601 27.7441 13.8575 27.8881 14.3801 28.1761C14.9135 28.4641 15.3295 28.8908 15.6281 29.4561C15.9375 30.0214 16.0921 30.7041 16.0921 31.5041V36.7041H14.2841V31.7761C14.2841 30.9868 14.0868 30.3841 13.6921 29.9681C13.2975 29.5414 12.7588 29.3281 12.0761 29.3281C11.3935 29.3281 10.8495 29.5414 10.4441 29.9681C10.0495 30.3841 9.85213 30.9868 9.85213 31.7761V36.7041H8.02813V24.8641H9.85213V28.9121C10.1615 28.5388 10.5508 28.2508 11.0201 28.0481C11.5001 27.8454 12.0228 27.7441 12.5881 27.7441ZM26.4988 32.0801C26.4988 32.4108 26.4774 32.7094 26.4348 32.9761H19.6988C19.7521 33.6801 20.0134 34.2454 20.4828 34.6721C20.9521 35.0988 21.5281 35.3121 22.2108 35.3121C23.1921 35.3121 23.8854 34.9014 24.2908 34.0801H26.2587C25.9921 34.8908 25.5068 35.5574 24.8028 36.0801C24.1094 36.5921 23.2454 36.8481 22.2108 36.8481C21.3681 36.8481 20.6108 36.6614 19.9388 36.2881C19.2774 35.9041 18.7548 35.3708 18.3708 34.6881C17.9974 33.9948 17.8108 33.1948 17.8108 32.2881C17.8108 31.3814 17.9921 30.5868 18.3548 29.9041C18.7281 29.2108 19.2454 28.6774 19.9068 28.3041C20.5788 27.9308 21.3468 27.7441 22.2108 27.7441C23.0428 27.7441 23.7841 27.9254 24.4348 28.2881C25.0854 28.6508 25.5921 29.1628 25.9548 29.8241C26.3174 30.4748 26.4988 31.2268 26.4988 32.0801ZM24.5948 31.5041C24.5841 30.8321 24.3441 30.2934 23.8748 29.8881C23.4054 29.4828 22.8241 29.2801 22.1308 29.2801C21.5014 29.2801 20.9628 29.4828 20.5148 29.8881C20.0668 30.2828 19.8001 30.8214 19.7148 31.5041H24.5948ZM35.65 36.8481C34.9567 36.8481 34.3327 36.7254 33.778 36.4801C33.234 36.2241 32.802 35.8828 32.482 35.4561C32.162 35.0188 31.9913 34.5334 31.97 34.0001H33.858C33.89 34.3734 34.066 34.6881 34.386 34.9441C34.7167 35.1894 35.1273 35.3121 35.618 35.3121C36.13 35.3121 36.5247 35.2161 36.802 35.0241C37.09 34.8214 37.234 34.5654 37.234 34.2561C37.234 33.9254 37.074 33.6801 36.754 33.5201C36.4447 33.3601 35.9487 33.1841 35.266 32.9921C34.6047 32.8108 34.066 32.6348 33.65 32.4641C33.234 32.2934 32.8713 32.0321 32.562 31.6801C32.2633 31.3281 32.114 30.8641 32.114 30.2881C32.114 29.8188 32.2527 29.3921 32.53 29.0081C32.8073 28.6134 33.202 28.3041 33.714 28.0801C34.2367 27.8561 34.834 27.7441 35.506 27.7441C36.5087 27.7441 37.314 28.0001 37.922 28.5121C38.5407 29.0134 38.8713 29.7014 38.914 30.5761H37.09C37.058 30.1814 36.898 29.8668 36.61 29.6321C36.322 29.3974 35.9327 29.2801 35.442 29.2801C34.962 29.2801 34.594 29.3708 34.338 29.5521C34.082 29.7334 33.954 29.9734 33.954 30.2721C33.954 30.5068 34.0393 30.7041 34.21 30.8641C34.3807 31.0241 34.5887 31.1521 34.834 31.2481C35.0793 31.3334 35.442 31.4454 35.922 31.5841C36.562 31.7548 37.0847 31.9308 37.49 32.1121C37.906 32.2828 38.2633 32.5388 38.562 32.8801C38.8607 33.2214 39.0153 33.6748 39.026 34.2401C39.026 34.7414 38.8873 35.1894 38.61 35.5841C38.3327 35.9788 37.938 36.2881 37.426 36.5121C36.9247 36.7361 36.3327 36.8481 35.65 36.8481ZM40.3889 32.2881C40.3889 31.3814 40.5702 30.5868 40.9329 29.9041C41.3062 29.2108 41.8182 28.6774 42.4689 28.3041C43.1195 27.9308 43.8662 27.7441 44.7089 27.7441C45.7755 27.7441 46.6555 28.0001 47.3489 28.5121C48.0529 29.0134 48.5275 29.7334 48.7729 30.6721H46.8049C46.6449 30.2348 46.3889 29.8934 46.0369 29.6481C45.6849 29.4028 45.2422 29.2801 44.7089 29.2801C43.9622 29.2801 43.3649 29.5468 42.9169 30.0801C42.4795 30.6028 42.2609 31.3388 42.2609 32.2881C42.2609 33.2374 42.4795 33.9788 42.9169 34.5121C43.3649 35.0454 43.9622 35.3121 44.7089 35.3121C45.7649 35.3121 46.4635 34.8481 46.8049 33.9201H48.7729C48.5169 34.8161 48.0369 35.5308 47.3329 36.0641C46.6289 36.5868 45.7542 36.8481 44.7089 36.8481C43.8662 36.8481 43.1195 36.6614 42.4689 36.2881C41.8182 35.9041 41.3062 35.3708 40.9329 34.6881C40.5702 33.9948 40.3889 33.1948 40.3889 32.2881ZM52.4146 29.1681C52.6813 28.7201 53.0333 28.3734 53.4706 28.1281C53.9186 27.8721 54.4466 27.7441 55.0546 27.7441V29.6321H54.5906C53.876 29.6321 53.332 29.8134 52.9586 30.1761C52.596 30.5388 52.4146 31.1681 52.4146 32.0641V36.7041H50.5906V27.8881H52.4146V29.1681ZM64.8113 32.0801C64.8113 32.4108 64.7899 32.7094 64.7473 32.9761H58.0113C58.0646 33.6801 58.3259 34.2454 58.7953 34.6721C59.2646 35.0988 59.8406 35.3121 60.5233 35.3121C61.5046 35.3121 62.1979 34.9014 62.6033 34.0801H64.5712C64.3046 34.8908 63.8193 35.5574 63.1153 36.0801C62.4219 36.5921 61.5579 36.8481 60.5233 36.8481C59.6806 36.8481 58.9233 36.6614 58.2513 36.2881C57.5899 35.9041 57.0673 35.3708 56.6833 34.6881C56.3099 33.9948 56.1233 33.1948 56.1233 32.2881C56.1233 31.3814 56.3046 30.5868 56.6673 29.9041C57.0406 29.2108 57.5579 28.6774 58.2193 28.3041C58.8913 27.9308 59.6593 27.7441 60.5233 27.7441C61.3553 27.7441 62.0966 27.9254 62.7473 28.2881C63.3979 28.6508 63.9046 29.1628 64.2673 29.8241C64.6299 30.4748 64.8113 31.2268 64.8113 32.0801ZM62.9073 31.5041C62.8966 30.8321 62.6566 30.2934 62.1873 29.8881C61.7179 29.4828 61.1366 29.2801 60.4433 29.2801C59.8139 29.2801 59.2753 29.4828 58.8273 29.8881C58.3793 30.2828 58.1126 30.8214 58.0273 31.5041H62.9073ZM74.6863 32.0801C74.6863 32.4108 74.6649 32.7094 74.6223 32.9761H67.8863C67.9396 33.6801 68.2009 34.2454 68.6703 34.6721C69.1396 35.0988 69.7156 35.3121 70.3983 35.3121C71.3796 35.3121 72.0729 34.9014 72.4783 34.0801H74.4462C74.1796 34.8908 73.6943 35.5574 72.9903 36.0801C72.2969 36.5921 71.4329 36.8481 70.3983 36.8481C69.5556 36.8481 68.7983 36.6614 68.1263 36.2881C67.4649 35.9041 66.9423 35.3708 66.5583 34.6881C66.1849 33.9948 65.9983 33.1948 65.9983 32.2881C65.9983 31.3814 66.1796 30.5868 66.5423 29.9041C66.9156 29.2108 67.4329 28.6774 68.0943 28.3041C68.7663 27.9308 69.5343 27.7441 70.3983 27.7441C71.2303 27.7441 71.9716 27.9254 72.6223 28.2881C73.2729 28.6508 73.7796 29.1628 74.1423 29.8241C74.5049 30.4748 74.6863 31.2268 74.6863 32.0801ZM72.7823 31.5041C72.7716 30.8321 72.5316 30.2934 72.0623 29.8881C71.5929 29.4828 71.0116 29.2801 70.3183 29.2801C69.6889 29.2801 69.1503 29.4828 68.7023 29.8881C68.2543 30.2828 67.9876 30.8214 67.9023 31.5041H72.7823ZM80.9293 27.7441C81.6226 27.7441 82.2413 27.8881 82.7853 28.1761C83.3399 28.4641 83.7719 28.8908 84.0813 29.4561C84.3906 30.0214 84.5453 30.7041 84.5453 31.5041V36.7041H82.7373V31.7761C82.7373 30.9868 82.5399 30.3841 82.1453 29.9681C81.7506 29.5414 81.2119 29.3281 80.5293 29.3281C79.8466 29.3281 79.3026 29.5414 78.8973 29.9681C78.5026 30.3841 78.3053 30.9868 78.3053 31.7761V36.7041H76.4813V27.8881H78.3053V28.8961C78.6039 28.5334 78.9826 28.2508 79.4413 28.0481C79.9106 27.8454 80.4066 27.7441 80.9293 27.7441ZM90.4201 32.2561C90.4201 31.3708 90.6015 30.5868 90.9641 29.9041C91.3375 29.2214 91.8388 28.6934 92.4681 28.3201C93.1081 27.9361 93.8121 27.7441 94.5801 27.7441C95.2735 27.7441 95.8761 27.8828 96.3881 28.1601C96.9108 28.4268 97.3268 28.7628 97.6361 29.1681V27.8881H99.4761V36.7041H97.6361V35.3921C97.3268 35.8081 96.9055 36.1548 96.3721 36.4321C95.8388 36.7094 95.2308 36.8481 94.5481 36.8481C93.7908 36.8481 93.0975 36.6561 92.4681 36.2721C91.8388 35.8774 91.3375 35.3334 90.9641 34.6401C90.6015 33.9361 90.4201 33.1414 90.4201 32.2561ZM97.6361 32.2881C97.6361 31.6801 97.5081 31.1521 97.2521 30.7041C97.0068 30.2561 96.6815 29.9148 96.2761 29.6801C95.8708 29.4454 95.4335 29.3281 94.9641 29.3281C94.4948 29.3281 94.0575 29.4454 93.6521 29.6801C93.2468 29.9041 92.9161 30.2401 92.6601 30.6881C92.4148 31.1254 92.2921 31.6481 92.2921 32.2561C92.2921 32.8641 92.4148 33.3974 92.6601 33.8561C92.9161 34.3148 93.2468 34.6668 93.6521 34.9121C94.0681 35.1468 94.5055 35.2641 94.9641 35.2641C95.4335 35.2641 95.8708 35.1468 96.2761 34.9121C96.6815 34.6774 97.0068 34.3361 97.2521 33.8881C97.5081 33.4294 97.6361 32.8961 97.6361 32.2881ZM106.32 27.7441C107.013 27.7441 107.632 27.8881 108.176 28.1761C108.731 28.4641 109.163 28.8908 109.472 29.4561C109.781 30.0214 109.936 30.7041 109.936 31.5041V36.7041H108.128V31.7761C108.128 30.9868 107.931 30.3841 107.536 29.9681C107.141 29.5414 106.603 29.3281 105.92 29.3281C105.237 29.3281 104.693 29.5414 104.288 29.9681C103.893 30.3841 103.696 30.9868 103.696 31.7761V36.7041H101.872V27.8881H103.696V28.8961C103.995 28.5334 104.373 28.2508 104.832 28.0481C105.301 27.8454 105.797 27.7441 106.32 27.7441ZM111.655 32.2561C111.655 31.3708 111.836 30.5868 112.199 29.9041C112.572 29.2214 113.073 28.6934 113.703 28.3201C114.343 27.9361 115.052 27.7441 115.831 27.7441C116.407 27.7441 116.972 27.8721 117.527 28.1281C118.092 28.3734 118.54 28.7041 118.871 29.1201V24.8641H120.711V36.7041H118.871V35.3761C118.572 35.8028 118.156 36.1548 117.623 36.4321C117.1 36.7094 116.497 36.8481 115.815 36.8481C115.047 36.8481 114.343 36.6561 113.703 36.2721C113.073 35.8774 112.572 35.3334 112.199 34.6401C111.836 33.9361 111.655 33.1414 111.655 32.2561ZM118.871 32.2881C118.871 31.6801 118.743 31.1521 118.487 30.7041C118.241 30.2561 117.916 29.9148 117.511 29.6801C117.105 29.4454 116.668 29.3281 116.199 29.3281C115.729 29.3281 115.292 29.4454 114.887 29.6801C114.481 29.9041 114.151 30.2401 113.895 30.6881C113.649 31.1254 113.527 31.6481 113.527 32.2561C113.527 32.8641 113.649 33.3974 113.895 33.8561C114.151 34.3148 114.481 34.6668 114.887 34.9121C115.303 35.1468 115.74 35.2641 116.199 35.2641C116.668 35.2641 117.105 35.1468 117.511 34.9121C117.916 34.6774 118.241 34.3361 118.487 33.8881C118.743 33.4294 118.871 32.8961 118.871 32.2881ZM130.463 36.8481C129.769 36.8481 129.145 36.7254 128.591 36.4801C128.047 36.2241 127.615 35.8828 127.295 35.4561C126.975 35.0188 126.804 34.5334 126.783 34.0001H128.671C128.703 34.3734 128.879 34.6881 129.199 34.9441C129.529 35.1894 129.94 35.3121 130.431 35.3121C130.943 35.3121 131.337 35.2161 131.615 35.0241C131.903 34.8214 132.047 34.5654 132.047 34.2561C132.047 33.9254 131.887 33.6801 131.567 33.5201C131.257 33.3601 130.761 33.1841 130.079 32.9921C129.417 32.8108 128.879 32.6348 128.463 32.4641C128.047 32.2934 127.684 32.0321 127.375 31.6801C127.076 31.3281 126.927 30.8641 126.927 30.2881C126.927 29.8188 127.065 29.3921 127.343 29.0081C127.62 28.6134 128.015 28.3041 128.527 28.0801C129.049 27.8561 129.647 27.7441 130.319 27.7441C131.321 27.7441 132.127 28.0001 132.735 28.5121C133.353 29.0134 133.684 29.7014 133.727 30.5761H131.903C131.871 30.1814 131.711 29.8668 131.423 29.6321C131.135 29.3974 130.745 29.2801 130.255 29.2801C129.775 29.2801 129.407 29.3708 129.151 29.5521C128.895 29.7334 128.767 29.9734 128.767 30.2721C128.767 30.5068 128.852 30.7041 129.023 30.8641C129.193 31.0241 129.401 31.1521 129.647 31.2481C129.892 31.3334 130.255 31.4454 130.735 31.5841C131.375 31.7548 131.897 31.9308 132.303 32.1121C132.719 32.2828 133.076 32.5388 133.375 32.8801C133.673 33.2214 133.828 33.6748 133.839 34.2401C133.839 34.7414 133.7 35.1894 133.423 35.5841C133.145 35.9788 132.751 36.2881 132.239 36.5121C131.737 36.7361 131.145 36.8481 130.463 36.8481ZM143.889 32.0801C143.889 32.4108 143.868 32.7094 143.825 32.9761H137.089C137.143 33.6801 137.404 34.2454 137.873 34.6721C138.343 35.0988 138.919 35.3121 139.601 35.3121C140.583 35.3121 141.276 34.9014 141.681 34.0801H143.649C143.383 34.8908 142.897 35.5574 142.193 36.0801C141.5 36.5921 140.636 36.8481 139.601 36.8481C138.759 36.8481 138.001 36.6614 137.329 36.2881C136.668 35.9041 136.145 35.3708 135.761 34.6881C135.388 33.9948 135.201 33.1948 135.201 32.2881C135.201 31.3814 135.383 30.5868 135.745 29.9041C136.119 29.2108 136.636 28.6774 137.297 28.3041C137.969 27.9308 138.737 27.7441 139.601 27.7441C140.433 27.7441 141.175 27.9254 141.825 28.2881C142.476 28.6508 142.983 29.1628 143.345 29.8241C143.708 30.4748 143.889 31.2268 143.889 32.0801ZM141.985 31.5041C141.975 30.8321 141.735 30.2934 141.265 29.8881C140.796 29.4828 140.215 29.2801 139.521 29.2801C138.892 29.2801 138.353 29.4828 137.905 29.8881C137.457 30.2828 137.191 30.8214 137.105 31.5041H141.985ZM147.508 24.8641V36.7041H145.684V24.8641H147.508ZM157.983 32.0801C157.983 32.4108 157.962 32.7094 157.919 32.9761H151.183C151.236 33.6801 151.498 34.2454 151.967 34.6721C152.436 35.0988 153.012 35.3121 153.695 35.3121C154.676 35.3121 155.37 34.9014 155.775 34.0801H157.743C157.476 34.8908 156.991 35.5574 156.287 36.0801C155.594 36.5921 154.73 36.8481 153.695 36.8481C152.852 36.8481 152.095 36.6614 151.423 36.2881C150.762 35.9041 150.239 35.3708 149.855 34.6881C149.482 33.9948 149.295 33.1948 149.295 32.2881C149.295 31.3814 149.476 30.5868 149.839 29.9041C150.212 29.2108 150.73 28.6774 151.391 28.3041C152.063 27.9308 152.831 27.7441 153.695 27.7441C154.527 27.7441 155.268 27.9254 155.919 28.2881C156.57 28.6508 157.076 29.1628 157.439 29.8241C157.802 30.4748 157.983 31.2268 157.983 32.0801ZM156.079 31.5041C156.068 30.8321 155.828 30.2934 155.359 29.8881C154.89 29.4828 154.308 29.2801 153.615 29.2801C152.986 29.2801 152.447 29.4828 151.999 29.8881C151.551 30.2828 151.284 30.8214 151.199 31.5041H156.079ZM159.17 32.2881C159.17 31.3814 159.351 30.5868 159.714 29.9041C160.087 29.2108 160.599 28.6774 161.25 28.3041C161.901 27.9308 162.647 27.7441 163.49 27.7441C164.557 27.7441 165.437 28.0001 166.13 28.5121C166.834 29.0134 167.309 29.7334 167.554 30.6721H165.586C165.426 30.2348 165.17 29.8934 164.818 29.6481C164.466 29.4028 164.023 29.2801 163.49 29.2801C162.743 29.2801 162.146 29.5468 161.698 30.0801C161.261 30.6028 161.042 31.3388 161.042 32.2881C161.042 33.2374 161.261 33.9788 161.698 34.5121C162.146 35.0454 162.743 35.3121 163.49 35.3121C164.546 35.3121 165.245 34.8481 165.586 33.9201H167.554C167.298 34.8161 166.818 35.5308 166.114 36.0641C165.41 36.5868 164.535 36.8481 163.49 36.8481C162.647 36.8481 161.901 36.6614 161.25 36.2881C160.599 35.9041 160.087 35.3708 159.714 34.6881C159.351 33.9948 159.17 33.1948 159.17 32.2881ZM171.5 29.3761V34.2561C171.5 34.5868 171.575 34.8268 171.724 34.9761C171.884 35.1148 172.151 35.1841 172.524 35.1841H173.644V36.7041H172.204C171.383 36.7041 170.753 36.5121 170.316 36.1281C169.879 35.7441 169.66 35.1201 169.66 34.2561V29.3761H168.62V27.8881H169.66V25.6961H171.5V27.8881H173.644V29.3761H171.5ZM41.7923 51.8881L36.3843 64.8481H34.4963L36.2883 60.5601L32.8163 51.8881H34.8483L37.3283 58.6081L39.9043 51.8881H41.7923ZM46.9928 60.8481C46.1608 60.8481 45.4088 60.6614 44.7368 60.2881C44.0648 59.9041 43.5368 59.3708 43.1528 58.6881C42.7688 57.9948 42.5768 57.1948 42.5768 56.2881C42.5768 55.3921 42.7741 54.5974 43.1688 53.9041C43.5634 53.2108 44.1021 52.6774 44.7848 52.3041C45.4674 51.9308 46.2301 51.7441 47.0728 51.7441C47.9154 51.7441 48.6781 51.9308 49.3608 52.3041C50.0434 52.6774 50.5821 53.2108 50.9768 53.9041C51.3714 54.5974 51.5688 55.3921 51.5688 56.2881C51.5688 57.1841 51.3661 57.9788 50.9608 58.6721C50.5554 59.3654 50.0008 59.9041 49.2968 60.2881C48.6034 60.6614 47.8354 60.8481 46.9928 60.8481ZM46.9928 59.2641C47.4621 59.2641 47.8994 59.1521 48.3048 58.9281C48.7208 58.7041 49.0568 58.3681 49.3128 57.9201C49.5688 57.4721 49.6968 56.9281 49.6968 56.2881C49.6968 55.6481 49.5741 55.1094 49.3288 54.6721C49.0834 54.2241 48.7581 53.8881 48.3528 53.6641C47.9474 53.4401 47.5101 53.3281 47.0408 53.3281C46.5714 53.3281 46.1341 53.4401 45.7288 53.6641C45.3341 53.8881 45.0194 54.2241 44.7848 54.6721C44.5501 55.1094 44.4328 55.6481 44.4328 56.2881C44.4328 57.2374 44.6728 57.9734 45.1528 58.4961C45.6434 59.0081 46.2568 59.2641 46.9928 59.2641ZM61.3559 51.8881V60.7041H59.5319V59.6641C59.2439 60.0268 58.8652 60.3148 58.3959 60.5281C57.9372 60.7308 57.4465 60.8321 56.9239 60.8321C56.2305 60.8321 55.6065 60.6881 55.0519 60.4001C54.5079 60.1121 54.0759 59.6854 53.7559 59.1201C53.4465 58.5548 53.2919 57.8721 53.2919 57.0721V51.8881H55.0999V56.8001C55.0999 57.5894 55.2972 58.1974 55.6919 58.6241C56.0865 59.0401 56.6252 59.2481 57.3079 59.2481C57.9905 59.2481 58.5292 59.0401 58.9239 58.6241C59.3292 58.1974 59.5319 57.5894 59.5319 56.8001V51.8881H61.3559ZM65.5865 53.1681C65.8532 52.7201 66.2052 52.3734 66.6425 52.1281C67.0905 51.8721 67.6185 51.7441 68.2265 51.7441V53.6321H67.7625C67.0478 53.6321 66.5038 53.8134 66.1305 54.1761C65.7678 54.5388 65.5865 55.1681 65.5865 56.0641V60.7041H63.7625V51.8881H65.5865V53.1681ZM75.8834 48.8641V60.7041H74.0594V48.8641H75.8834ZM82.1021 60.8481C81.2701 60.8481 80.5181 60.6614 79.8461 60.2881C79.1741 59.9041 78.6461 59.3708 78.2621 58.6881C77.8781 57.9948 77.6861 57.1948 77.6861 56.2881C77.6861 55.3921 77.8835 54.5974 78.2781 53.9041C78.6728 53.2108 79.2115 52.6774 79.8941 52.3041C80.5768 51.9308 81.3395 51.7441 82.1821 51.7441C83.0248 51.7441 83.7875 51.9308 84.4701 52.3041C85.1528 52.6774 85.6915 53.2108 86.0861 53.9041C86.4808 54.5974 86.6781 55.3921 86.6781 56.2881C86.6781 57.1841 86.4755 57.9788 86.0701 58.6721C85.6648 59.3654 85.1101 59.9041 84.4061 60.2881C83.7128 60.6614 82.9448 60.8481 82.1021 60.8481ZM82.1021 59.2641C82.5715 59.2641 83.0088 59.1521 83.4141 58.9281C83.8301 58.7041 84.1661 58.3681 84.4221 57.9201C84.6781 57.4721 84.8061 56.9281 84.8061 56.2881C84.8061 55.6481 84.6835 55.1094 84.4381 54.6721C84.1928 54.2241 83.8675 53.8881 83.4621 53.6641C83.0568 53.4401 82.6195 53.3281 82.1501 53.3281C81.6808 53.3281 81.2435 53.4401 80.8381 53.6641C80.4435 53.8881 80.1288 54.2241 79.8941 54.6721C79.6595 55.1094 79.5421 55.6481 79.5421 56.2881C79.5421 57.2374 79.7821 57.9734 80.2621 58.4961C80.7528 59.0081 81.3661 59.2641 82.1021 59.2641ZM87.8733 56.2881C87.8733 55.3814 88.0546 54.5868 88.4173 53.9041C88.7906 53.2108 89.3026 52.6774 89.9533 52.3041C90.6039 51.9308 91.3506 51.7441 92.1933 51.7441C93.2599 51.7441 94.1399 52.0001 94.8333 52.5121C95.5373 53.0134 96.0119 53.7334 96.2573 54.6721H94.2893C94.1293 54.2348 93.8733 53.8934 93.5213 53.6481C93.1693 53.4028 92.7266 53.2801 92.1933 53.2801C91.4466 53.2801 90.8493 53.5468 90.4013 54.0801C89.9639 54.6028 89.7453 55.3388 89.7453 56.2881C89.7453 57.2374 89.9639 57.9788 90.4013 58.5121C90.8493 59.0454 91.4466 59.3121 92.1933 59.3121C93.2493 59.3121 93.9479 58.8481 94.2893 57.9201H96.2573C96.0013 58.8161 95.5213 59.5308 94.8173 60.0641C94.1133 60.5868 93.2386 60.8481 92.1933 60.8481C91.3506 60.8481 90.6039 60.6614 89.9533 60.2881C89.3026 59.9041 88.7906 59.3708 88.4173 58.6881C88.0546 57.9948 87.8733 57.1948 87.8733 56.2881ZM97.467 56.2561C97.467 55.3708 97.6483 54.5868 98.011 53.9041C98.3843 53.2214 98.8857 52.6934 99.515 52.3201C100.155 51.9361 100.859 51.7441 101.627 51.7441C102.32 51.7441 102.923 51.8828 103.435 52.1601C103.958 52.4268 104.374 52.7628 104.683 53.1681V51.8881H106.523V60.7041H104.683V59.3921C104.374 59.8081 103.952 60.1548 103.419 60.4321C102.886 60.7094 102.278 60.8481 101.595 60.8481C100.838 60.8481 100.144 60.6561 99.515 60.2721C98.8857 59.8774 98.3843 59.3334 98.011 58.6401C97.6483 57.9361 97.467 57.1414 97.467 56.2561ZM104.683 56.2881C104.683 55.6801 104.555 55.1521 104.299 54.7041C104.054 54.2561 103.728 53.9148 103.323 53.6801C102.918 53.4454 102.48 53.3281 102.011 53.3281C101.542 53.3281 101.104 53.4454 100.699 53.6801C100.294 53.9041 99.963 54.2401 99.707 54.6881C99.4617 55.1254 99.339 55.6481 99.339 56.2561C99.339 56.8641 99.4617 57.3974 99.707 57.8561C99.963 58.3148 100.294 58.6668 100.699 58.9121C101.115 59.1468 101.552 59.2641 102.011 59.2641C102.48 59.2641 102.918 59.1468 103.323 58.9121C103.728 58.6774 104.054 58.3361 104.299 57.8881C104.555 57.4294 104.683 56.8961 104.683 56.2881ZM111.047 53.3761V58.2561C111.047 58.5868 111.121 58.8268 111.271 58.9761C111.431 59.1148 111.697 59.1841 112.071 59.1841H113.191V60.7041H111.751C110.929 60.7041 110.3 60.5121 109.863 60.1281C109.425 59.7441 109.207 59.1201 109.207 58.2561V53.3761H108.167V51.8881H109.207V49.6961H111.047V51.8881H113.191V53.3761H111.047ZM115.8 50.7201C115.469 50.7201 115.192 50.6081 114.968 50.3841C114.744 50.1601 114.632 49.8828 114.632 49.5521C114.632 49.2214 114.744 48.9441 114.968 48.7201C115.192 48.4961 115.469 48.3841 115.8 48.3841C116.12 48.3841 116.392 48.4961 116.616 48.7201C116.84 48.9441 116.952 49.2214 116.952 49.5521C116.952 49.8828 116.84 50.1601 116.616 50.3841C116.392 50.6081 116.12 50.7201 115.8 50.7201ZM116.696 51.8881V60.7041H114.872V51.8881H116.696ZM122.915 60.8481C122.083 60.8481 121.331 60.6614 120.659 60.2881C119.987 59.9041 119.459 59.3708 119.075 58.6881C118.691 57.9948 118.499 57.1948 118.499 56.2881C118.499 55.3921 118.696 54.5974 119.091 53.9041C119.485 53.2108 120.024 52.6774 120.707 52.3041C121.389 51.9308 122.152 51.7441 122.995 51.7441C123.837 51.7441 124.6 51.9308 125.283 52.3041C125.965 52.6774 126.504 53.2108 126.899 53.9041C127.293 54.5974 127.491 55.3921 127.491 56.2881C127.491 57.1841 127.288 57.9788 126.883 58.6721C126.477 59.3654 125.923 59.9041 125.219 60.2881C124.525 60.6614 123.757 60.8481 122.915 60.8481ZM122.915 59.2641C123.384 59.2641 123.821 59.1521 124.227 58.9281C124.643 58.7041 124.979 58.3681 125.235 57.9201C125.491 57.4721 125.619 56.9281 125.619 56.2881C125.619 55.6481 125.496 55.1094 125.251 54.6721C125.005 54.2241 124.68 53.8881 124.275 53.6641C123.869 53.4401 123.432 53.3281 122.963 53.3281C122.493 53.3281 122.056 53.4401 121.651 53.6641C121.256 53.8881 120.941 54.2241 120.707 54.6721C120.472 55.1094 120.355 55.6481 120.355 56.2881C120.355 57.2374 120.595 57.9734 121.075 58.4961C121.565 59.0081 122.179 59.2641 122.915 59.2641ZM133.742 51.7441C134.435 51.7441 135.054 51.8881 135.598 52.1761C136.152 52.4641 136.584 52.8908 136.894 53.4561C137.203 54.0214 137.358 54.7041 137.358 55.5041V60.7041H135.55V55.7761C135.55 54.9868 135.352 54.3841 134.958 53.9681C134.563 53.5414 134.024 53.3281 133.342 53.3281C132.659 53.3281 132.115 53.5414 131.71 53.9681C131.315 54.3841 131.118 54.9868 131.118 55.7761V60.7041H129.294V51.8881H131.118V52.8961C131.416 52.5334 131.795 52.2508 132.254 52.0481C132.723 51.8454 133.219 51.7441 133.742 51.7441ZM140.42 60.8161C140.09 60.8161 139.812 60.7041 139.588 60.4801C139.364 60.2561 139.252 59.9788 139.252 59.6481C139.252 59.3174 139.364 59.0401 139.588 58.8161C139.812 58.5921 140.09 58.4801 140.42 58.4801C140.74 58.4801 141.012 58.5921 141.236 58.8161C141.46 59.0401 141.572 59.3174 141.572 59.6481C141.572 59.9788 141.46 60.2561 141.236 60.4801C141.012 60.7041 140.74 60.8161 140.42 60.8161Z" fill="black"/>
</svg>
