<svg width="54" height="33" viewBox="0 0 54 33" fill="none" xmlns="http://www.w3.org/2000/svg">
<g clip-path="url(#clip0_3859_77985)">
<path d="M44.9449 30.0363C35.584 30.2108 26.209 30.5513 16.8466 30.5426C12.7073 30.5388 8.28804 30.1449 4.92491 27.4789C2.04484 25.1958 0.457938 21.3039 2.42959 17.903C3.3941 16.2394 5.11447 15.1135 7.07924 15.2935C8.98022 15.4676 10.7116 16.681 11.1904 18.569C11.4055 19.4169 12.7091 19.2343 12.7085 18.3635C12.704 12.3415 13.1067 3.95324 20.1135 1.91378C23.211 1.01218 26.6937 1.72208 28.9798 4.05788C31.2307 6.35768 32.1147 9.76681 31.289 12.8655C31.0812 13.6455 32.0149 14.1093 32.5807 13.6175C38.0311 8.87991 47.4379 7.67484 51.384 14.9456C53.085 18.0797 52.6368 21.6689 50.2494 24.3104C47.9807 26.8208 44.7396 28.2695 41.6907 29.5886C40.7802 29.9825 41.5664 31.3145 42.4708 30.9232C47.6736 28.6722 54.3707 25.1483 53.984 18.4883C53.6169 12.1651 47.6132 7.77416 41.5433 8.16416C37.788 8.40545 34.3027 10.0778 31.4878 12.5245L32.7795 13.2765C33.689 9.8633 32.8282 6.18844 30.5509 3.49179C28.1597 0.660294 24.3729 -0.464079 20.7753 0.173247C12.171 1.69753 11.1575 11.2602 11.1628 18.3636L12.6809 18.1581C11.8126 14.7346 7.77483 12.8874 4.52817 14.1118C0.994436 15.4444 -0.65681 19.7268 0.240887 23.237C1.27407 27.277 5.00835 30.0377 8.84629 31.169C14.0082 32.6905 19.7211 32.0522 25.024 31.9533L44.9449 31.582C45.9383 31.5634 45.9415 30.0177 44.9449 30.0363Z" fill="#B7B7B7"/>
</g>
<defs>
<clipPath id="clip0_3859_77985">
<rect width="54" height="32.1701" fill="white"/>
</clipPath>
</defs>
</svg>
