<svg width="64" height="54" viewBox="0 0 64 54" fill="none" xmlns="http://www.w3.org/2000/svg">
<g clip-path="url(#clip0_3859_78329)">
<path d="M35.1533 22.4923C31.4598 22.257 27.4437 22.1905 24.4824 24.7742C22.103 26.8503 21.3041 30.9774 23.8311 33.2956C26.5479 35.788 31.1121 34.6057 34.2259 33.6401C37.3536 32.6702 41.7408 30.9606 41.7342 27.0216C41.7313 25.3089 40.6155 23.8887 39.0917 23.201C37.2744 22.3809 35.2403 22.6225 33.3287 22.9056C31.2627 23.2116 29.2303 23.7419 27.2785 24.4853C25.7144 25.081 23.8884 25.7792 23.2643 27.4892C22.6863 29.0728 23.4866 30.6992 25.1217 31.1456C25.7907 31.3283 26.5018 31.3088 27.1856 31.2552C28.3483 31.1642 29.5097 31.0386 30.6694 30.9161C32.2767 30.7463 34.1611 30.7528 35.5894 29.8845C36.9158 29.0781 37.4478 27.4846 36.6016 26.1155C35.509 24.3481 33.1915 24.3648 31.3634 24.4586C29.409 24.5588 27.2086 25.299 26.7055 27.4426C26.2929 29.2005 27.6585 30.6893 29.3152 31.0088C31.3799 31.4069 33.0834 30.0457 34.4798 28.7072C35.1181 28.0954 34.6204 27.0153 33.7729 27.0007C32.8142 26.9842 31.8554 26.9676 30.8967 26.9511C29.6096 26.9289 29.6094 28.9282 30.8967 28.9504C31.8554 28.9669 32.8142 28.9835 33.7729 29L33.0661 27.2935C32.2595 28.0666 31.2219 29.132 30.0076 29.0869C29.0608 29.0517 28.2027 28.2845 28.911 27.3675C29.7065 26.3375 31.3387 26.436 32.4994 26.434C33.1558 26.4328 35.2893 26.4908 35.0187 27.6642C34.8371 28.4517 33.3522 28.6076 32.7253 28.6895C31.254 28.8816 29.7717 29.0149 28.2947 29.1542C27.602 29.2195 25.6118 29.6891 25.1443 28.9002C24.5435 27.8865 26.2965 27.042 26.9629 26.7521C29.5584 25.6233 32.4469 24.8897 35.2694 24.6729C36.5383 24.5755 37.9914 24.5934 39.0045 25.4818C39.933 26.2958 39.8867 27.5377 39.278 28.5353C38.6504 29.5641 37.5383 30.1834 36.4739 30.673C35.2135 31.2527 33.8775 31.6918 32.5369 32.0432C30.4403 32.5927 27.0913 33.5226 25.2448 31.8819C23.2658 30.1234 24.5291 27.0746 26.3797 25.8196C28.9532 24.0743 32.1976 24.3034 35.1533 24.4916C36.4381 24.5734 36.4331 22.5738 35.1533 22.4923Z" fill="#BEBEBE"/>
<path d="M28.4131 23.0519C27.9523 19.0047 27.9147 14.9223 28.3874 10.8735C28.6168 8.90868 29.361 0.873831 33.0264 2.12606C35.9783 3.13451 35.3092 9.31931 35.1286 11.6341C34.817 15.6264 33.7043 19.5194 31.9417 23.1092L33.7688 23.8795C34.9831 19.6319 36.8248 15.6132 39.3044 11.953C41.4709 8.7552 45.1006 3.76565 49.4454 6.61967C53.4968 9.28094 52.7159 14.569 49.9999 17.8814C48.7786 19.3708 47.1768 20.4883 45.7005 21.7053C44.0174 23.0926 42.3428 24.2445 40.2689 24.9721C39.1678 25.3584 39.4195 26.814 40.5347 26.9357C44.6958 27.3899 48.8699 27.6806 53.0381 28.0567C55.0531 28.2386 57.16 28.309 59.1298 28.791C61.5634 29.3865 62.9573 31.4958 61.1911 33.7373C58.799 36.7731 53.0658 36.7361 49.5974 36.318C45.4923 35.8232 41.5562 34.1514 38.3413 31.5578C37.7375 31.0707 36.5629 31.3132 36.6348 32.2646C36.9083 35.8889 38.9378 38.6872 40.6363 41.7752C42.1036 44.4428 43.7699 49.5955 39.9905 51.3461C35.9986 53.1952 33.6379 47.8167 33.3764 44.8303C33.0496 41.0994 33.8039 37.3818 32.6472 33.7354C32.4111 32.9909 31.548 32.7916 30.9764 33.2943C28.3481 35.6055 27.6842 39.0431 27.0551 42.3262C26.4656 45.4026 25.2832 50.2889 21.4294 50.5895C19.3832 50.7492 17.5612 49.2273 16.7423 47.4503C15.8509 45.516 16.2384 43.2887 17.1996 41.4552C18.9824 38.0547 22.3021 36.1376 25.7079 34.7079C26.8531 34.2272 26.4465 32.3932 25.1764 32.78C21.4834 33.9049 17.7738 34.3615 13.9412 34.7021C10.1037 35.0431 4.80618 35.613 2.54127 31.6475C1.52312 29.8649 2.0701 27.7395 3.44864 26.3208C4.96963 24.7554 7.11464 24.2787 9.22531 24.6001C13.6505 25.2738 16.7599 28.8572 19.5513 32.0402C20.2054 32.786 21.5321 31.999 21.2222 31.0676C19.8391 26.9121 18.4561 22.7566 17.073 18.6011C16.0571 15.5486 13.6507 9.2864 18.1824 7.76731C22.0051 6.48586 22.6194 12.6688 23.2922 14.9714C24.1382 17.8662 25.8136 20.3331 26.4495 23.3176C26.7175 24.5754 28.6452 24.0431 28.3774 22.7861C27.9667 20.8585 27.2778 19.127 26.4101 17.3674C25.4653 15.4514 25.0619 13.519 24.5193 11.4721C23.6998 8.38048 21.5132 4.71111 17.7393 5.79885C13.4752 7.02788 13.0799 12.032 14.0281 15.6144C15.4563 21.011 17.5315 26.3027 19.2942 31.5991L20.9651 30.6265C17.6207 26.813 13.719 22.6924 8.28183 22.5009C3.9952 22.3499 -0.547476 25.7598 0.0538521 30.3999C0.689542 35.3052 6.11025 37.0406 10.3539 36.9568C15.4752 36.8557 20.8038 36.2017 25.7079 34.7079L25.1764 32.78C21.2212 34.4403 17.3491 36.6639 15.3535 40.6725C13.4042 44.5881 14.094 49.6742 18.2507 51.8547C22.1682 53.9096 25.8996 51.3215 27.5564 47.7026C29.4576 43.5501 28.7327 37.9242 32.3901 34.708L30.7193 34.2669C32.1736 38.8514 30.4436 43.7968 32.0642 48.3545C33.1737 51.4748 36.3815 54.3709 39.9205 53.4766C43.1946 52.6492 44.6562 48.9711 44.244 45.878C43.5756 40.8631 39.0164 37.3297 38.6341 32.2647L36.9276 32.9715C40.726 36.0359 45.2542 37.9121 50.1211 38.373C54.3109 38.7697 60.902 38.4098 63.2629 34.2502C64.2342 32.539 64.3331 30.326 63.0294 28.7559C61.6823 27.1335 59.4973 26.7493 57.517 26.5099C51.873 25.8277 46.1861 25.5533 40.5347 24.9365L40.8005 26.9001C43.2061 26.0561 45.1606 24.7279 47.1142 23.119C49.0833 21.4974 51.0794 20.0259 52.4827 17.8523C55.0861 13.82 55.0252 8.42156 51.034 5.31408C46.6956 1.93639 42.2907 4.77642 39.3854 8.47417C35.9152 12.8908 33.3836 17.9517 31.841 23.3481C31.5368 24.4121 33.159 25.1552 33.6681 24.1184C35.8066 19.763 37.0502 15.0396 37.2097 10.182C37.3138 7.01316 37.3982 1.28872 33.4959 0.165726C29.734 -0.916838 27.667 3.54788 27.07 6.48347C25.9626 11.9293 25.7859 17.5371 26.4138 23.0519C26.5577 24.3157 28.5587 24.3302 28.4131 23.0519Z" fill="#BEBEBE"/>
</g>
<defs>
<clipPath id="clip0_3859_78329">
<rect width="64" height="53.6413" fill="white"/>
</clipPath>
</defs>
</svg>
