<svg width="285" height="108" viewBox="0 0 285 108" fill="none" xmlns="http://www.w3.org/2000/svg">
<path d="M116.329 48.0961L115.775 48.6019L116.329 48.0961ZM279.866 34.9506C279.988 34.5547 279.766 34.135 279.37 34.013C278.974 33.8911 278.555 34.1131 278.433 34.509L279.866 34.9506ZM7.78249 68.9356C8.046 68.616 8.00055 68.1433 7.68096 67.8798C7.36138 67.6163 6.88868 67.6617 6.62517 67.9813L7.78249 68.9356ZM12.1307 61.685C11.8497 61.9893 11.8686 62.4638 12.1729 62.7448C12.4772 63.0258 12.9517 63.0069 13.2327 62.7026L12.1307 61.685ZM18.9973 56.7782C19.2938 56.489 19.2998 56.0142 19.0107 55.7176C18.7215 55.421 18.2466 55.4151 17.9501 55.7042L18.9973 56.7782ZM24.1016 50.0272C23.7894 50.2993 23.7569 50.7731 24.0291 51.0853C24.3013 51.3976 24.7751 51.43 25.0873 51.1578L24.1016 50.0272ZM31.4933 45.9086C31.8219 45.6564 31.8838 45.1856 31.6316 44.857C31.3795 44.5284 30.9086 44.4665 30.58 44.7187L31.4933 45.9086ZM37.4044 39.851C37.0586 40.079 36.963 40.5441 37.1909 40.89C37.4188 41.2358 37.884 41.3314 38.2299 41.1035L37.4044 39.851ZM45.3088 36.8453C45.6728 36.6474 45.8074 36.1921 45.6096 35.8281C45.4117 35.4642 44.9563 35.3296 44.5924 35.5274L45.3088 36.8453ZM52.1562 31.8847C51.7741 32.0447 51.5941 32.4842 51.7541 32.8662C51.9142 33.2483 52.3536 33.4283 52.7357 33.2683L52.1562 31.8847ZM60.4986 30.5421C60.8972 30.4295 61.1292 30.0152 61.0166 29.6165C60.9041 29.2179 60.4897 28.986 60.0911 29.0985L60.4986 30.5421ZM68.3372 27.3835C67.9265 27.4377 67.6376 27.8146 67.6918 28.2253C67.746 28.6359 68.1229 28.9248 68.5336 28.8706L68.3372 27.3835ZM76.7171 28.4551C77.131 28.4687 77.4776 28.1441 77.4912 27.7301C77.5047 27.3161 77.1801 26.9695 76.7661 26.9559L76.7171 28.4551ZM85.1365 27.9634C84.7312 27.8781 84.3334 28.1374 84.2481 28.5427C84.1627 28.9481 84.422 29.3458 84.8274 29.4312L85.1365 27.9634ZM92.6529 31.8054C93.0376 31.959 93.4739 31.7716 93.6275 31.3869C93.781 31.0022 93.5937 30.5658 93.209 30.4123L92.6529 31.8054ZM100.763 34.1527C100.407 33.9411 99.9471 34.0581 99.7354 34.4142C99.5238 34.7702 99.6408 35.2304 99.9969 35.4421L100.763 34.1527ZM106.754 40.1199C107.079 40.3774 107.551 40.323 107.808 39.9985C108.066 39.674 108.011 39.2023 107.687 38.9448L106.754 40.1199ZM113.934 44.5132C113.64 44.2214 113.165 44.2231 112.873 44.517C112.581 44.811 112.583 45.2858 112.877 45.5777L113.934 44.5132ZM118.543 51.5168C118.834 51.8116 119.309 51.8146 119.604 51.5236C119.899 51.2326 119.902 50.7578 119.611 50.463L118.543 51.5168ZM125.359 55.848C125.046 55.5769 124.572 55.611 124.301 55.9242C124.03 56.2373 124.064 56.711 124.377 56.9821L125.359 55.848ZM130.622 61.9709C130.955 62.2164 131.425 62.145 131.67 61.8114C131.916 61.4778 131.845 61.0083 131.511 60.7628L130.622 61.9709ZM138.032 65.1752C137.68 64.9568 137.217 65.0651 136.999 65.417C136.78 65.769 136.889 66.2313 137.241 66.4498L138.032 65.1752ZM144.201 70.3994C144.569 70.5895 145.022 70.4454 145.212 70.0774C145.402 69.7094 145.258 69.257 144.89 69.0668L144.201 70.3994ZM152.029 72.413C151.647 72.2517 151.207 72.4302 151.046 72.8118C150.884 73.1933 151.063 73.6333 151.445 73.7946L152.029 72.413ZM158.922 76.6274C159.314 76.7595 159.74 76.5483 159.872 76.1558C160.004 75.7632 159.793 75.3378 159.4 75.2057L158.922 76.6274ZM166.959 77.4433C166.557 77.3403 166.149 77.5821 166.046 77.9833C165.943 78.3845 166.184 78.7932 166.586 78.8962L166.959 77.4433ZM174.392 80.6049C174.799 80.679 175.19 80.4087 175.264 80.0012C175.338 79.5937 175.068 79.2032 174.66 79.1291L174.392 80.6049ZM182.469 80.2691C182.057 80.2235 181.686 80.5203 181.641 80.932C181.595 81.3437 181.892 81.7144 182.304 81.76L182.469 80.2691ZM190.273 82.3674C190.687 82.3849 191.037 82.0635 191.054 81.6497C191.072 81.2358 190.75 80.8862 190.336 80.8688L190.273 82.3674ZM198.224 80.9353C197.81 80.9457 197.483 81.2898 197.493 81.7038C197.504 82.1179 197.848 82.4452 198.262 82.4348L198.224 80.9353ZM206.237 81.9677C206.649 81.9297 206.953 81.5645 206.915 81.152C206.877 80.7396 206.511 80.436 206.099 80.474L206.237 81.9677ZM213.933 79.4863C213.524 79.5519 213.245 79.9367 213.311 80.3456C213.376 80.7546 213.761 81.033 214.17 80.9674L213.933 79.4863ZM222.013 79.4336C222.417 79.3402 222.668 78.9374 222.575 78.5338C222.481 78.1303 222.079 77.8789 221.675 77.9722L222.013 79.4336ZM229.284 75.9279C228.888 76.0495 228.666 76.4691 228.788 76.8651C228.909 77.261 229.329 77.4834 229.725 77.3618L229.284 75.9279ZM237.287 74.7312C237.673 74.5805 237.864 74.1456 237.713 73.7597C237.562 73.3739 237.127 73.1833 236.742 73.3339L237.287 74.7312ZM243.962 70.1833C243.589 70.3641 243.434 70.8128 243.614 71.1855C243.795 71.5581 244.244 71.7137 244.616 71.5329L243.962 70.1833ZM251.663 67.7355C252.019 67.5231 252.135 67.0627 251.922 66.7071C251.71 66.3514 251.25 66.2353 250.894 66.4476L251.663 67.7355ZM257.452 62.0979C257.119 62.3436 257.048 62.8131 257.293 63.1466C257.539 63.4801 258.008 63.5513 258.342 63.3057L257.452 62.0979ZM264.534 58.2125C264.839 57.9319 264.858 57.4574 264.578 57.1527C264.297 56.848 263.823 56.8285 263.518 57.1091L264.534 58.2125ZM268.949 51.4534C268.682 51.77 268.722 52.2432 269.039 52.5102C269.355 52.7773 269.828 52.7371 270.096 52.4204L268.949 51.4534ZM274.833 45.916C275.051 45.5639 274.943 45.1016 274.591 44.8833C274.239 44.6651 273.776 44.7736 273.558 45.1256L274.833 45.916ZM277.116 38.1819C276.959 38.5653 277.143 39.0033 277.526 39.1603C277.909 39.3173 278.347 39.1338 278.504 38.7505L277.116 38.1819ZM4.62884 71.7086C5.23218 72.1541 5.23216 72.1542 5.23215 72.1542C5.23215 72.1542 5.23214 72.1542 5.23214 72.1542C5.23214 72.1542 5.23215 72.1542 5.23218 72.1541C5.23224 72.154 5.23235 72.1539 5.23251 72.1537C5.23284 72.1532 5.23339 72.1525 5.23416 72.1514C5.23569 72.1494 5.2381 72.1461 5.24138 72.1417C5.24794 72.1329 5.25798 72.1194 5.27147 72.1014C5.29845 72.0653 5.33922 72.011 5.39355 71.9392C5.50221 71.7957 5.66508 71.5824 5.88021 71.3058C6.31049 70.7524 6.94977 69.9455 7.78249 68.9356L6.62517 67.9813C5.7827 69.003 5.13449 69.8212 4.69607 70.385C4.47685 70.6669 4.31007 70.8853 4.19767 71.0337C4.14147 71.108 4.09886 71.1647 4.07008 71.2032C4.0557 71.2225 4.04477 71.2371 4.03733 71.2471C4.03361 71.2522 4.03076 71.256 4.02879 71.2587C4.0278 71.26 4.02704 71.261 4.02649 71.2618C4.02622 71.2621 4.026 71.2624 4.02583 71.2626C4.02575 71.2628 4.02568 71.2628 4.02563 71.2629C4.0256 71.263 4.02557 71.263 4.02556 71.263C4.02553 71.2631 4.02551 71.2631 4.62884 71.7086ZM13.2327 62.7026C14.923 60.8722 16.8534 58.8687 18.9973 56.7782L17.9501 55.7042C15.7856 57.8148 13.8369 59.8374 12.1307 61.685L13.2327 62.7026ZM25.0873 51.1578C27.1038 49.4 29.2438 47.6351 31.4933 45.9086L30.58 44.7187C28.3035 46.466 26.1394 48.2508 24.1016 50.0272L25.0873 51.1578ZM38.2299 41.1035C40.5106 39.6005 42.874 38.1689 45.3088 36.8453L44.5924 35.5274C42.1169 36.8732 39.7171 38.3269 37.4044 39.851L38.2299 41.1035ZM52.7357 33.2683C55.2693 32.207 57.8606 31.2867 60.4986 30.5421L60.0911 29.0985C57.3895 29.8611 54.7408 30.8021 52.1562 31.8847L52.7357 33.2683ZM68.5336 28.8706C71.2294 28.5146 73.9606 28.3649 76.7171 28.4551L76.7661 26.9559C73.9229 26.8629 71.1095 27.0174 68.3372 27.3835L68.5336 28.8706ZM84.8274 29.4312C87.423 29.978 90.0342 30.7601 92.6529 31.8054L93.209 30.4123C90.5102 29.335 87.8164 28.5279 85.1365 27.9634L84.8274 29.4312ZM99.9969 35.4421C102.25 36.7816 104.504 38.3348 106.754 40.1199L107.687 38.9448C105.386 37.1197 103.077 35.528 100.763 34.1527L99.9969 35.4421ZM112.877 45.5777C113.845 46.5388 114.811 47.5464 115.775 48.6019L116.883 47.5903C115.903 46.5172 114.92 45.492 113.934 44.5132L112.877 45.5777ZM115.775 48.6019C116.685 49.5976 117.608 50.5692 118.543 51.5168L119.611 50.463C118.689 49.5292 117.779 48.5717 116.883 47.5903L115.775 48.6019ZM124.377 56.9821C126.412 58.744 128.496 60.4061 130.622 61.9709L131.511 60.7628C129.416 59.2212 127.364 57.5838 125.359 55.848L124.377 56.9821ZM137.241 66.4498C139.524 67.8667 141.846 69.1823 144.201 70.3994L144.89 69.0668C142.569 67.8675 140.281 66.5712 138.032 65.1752L137.241 66.4498ZM151.445 73.7946C153.912 74.8377 156.407 75.7809 158.922 76.6274L159.4 75.2057C156.92 74.371 154.461 73.4411 152.029 72.413L151.445 73.7946ZM166.586 78.8962C169.176 79.5614 171.781 80.1299 174.392 80.6049L174.66 79.1291C172.084 78.6604 169.514 78.0995 166.959 77.4433L166.586 78.8962ZM182.304 81.76C184.963 82.0545 187.622 82.2558 190.273 82.3674L190.336 80.8688C187.719 80.7586 185.094 80.5598 182.469 80.2691L182.304 81.76ZM198.262 82.4348C200.939 82.3676 203.6 82.2107 206.237 81.9677L206.099 80.474C203.495 80.714 200.868 80.8689 198.224 80.9353L198.262 82.4348ZM214.17 80.9674C216.821 80.542 219.439 80.0295 222.013 79.4336L221.675 77.9722C219.134 78.5604 216.55 79.0663 213.933 79.4863L214.17 80.9674ZM229.725 77.3618C232.304 76.5696 234.828 75.6913 237.287 74.7312L236.742 73.3339C234.318 74.2803 231.829 75.1464 229.284 75.9279L229.725 77.3618ZM244.616 71.5329C247.052 70.3513 249.405 69.0839 251.663 67.7355L250.894 66.4476C248.674 67.7731 246.36 69.02 243.962 70.1833L244.616 71.5329ZM258.342 63.3057C260.532 61.6928 262.6 59.9931 264.534 58.2125L263.518 57.1091C261.627 58.8508 259.6 60.5159 257.452 62.0979L258.342 63.3057ZM270.096 52.4204C271.853 50.3363 273.438 48.1656 274.833 45.916L273.558 45.1256C272.204 47.3099 270.662 49.4218 268.949 51.4534L270.096 52.4204ZM278.504 38.7505C279.016 37.5026 279.47 36.2356 279.866 34.9506L278.433 34.509C278.05 35.7502 277.611 36.9748 277.116 38.1819L278.504 38.7505Z" fill="#6E85FF"/>
<path d="M142.688 63.5015L149.456 71.9426L140.237 74.6604" stroke="#6E85FF" stroke-width="1.5" stroke-linejoin="round"/>
</svg>
