<svg width="31" height="32" viewBox="0 0 31 32" fill="none" xmlns="http://www.w3.org/2000/svg">
<g clip-path="url(#clip0_3859_77987)">
<path d="M15.592 1.13599e-07C9.3214 0.00393334 3.32067 4.00626 1.02089 9.86203C-1.29869 15.7682 0.427079 23.076 5.25724 27.2212C10.054 31.3376 17.3173 32.2545 22.8837 29.1757C28.3798 26.1358 31.7203 19.7506 30.8678 13.5071C30.3529 9.73665 28.445 6.14583 25.4979 3.71661C22.5098 1.25367 18.6424 -0.0147983 14.7766 0.221336C14.1909 0.257113 14.1868 1.17349 14.7766 1.13746C21.4216 0.731555 27.5609 4.98998 29.473 11.3747C31.2158 17.1938 29.006 23.5331 24.2102 27.2131C19.4338 30.8783 12.7056 30.9662 7.63163 27.8309C2.46091 24.6359 -0.039979 18.1526 1.25057 12.2632C2.68739 5.70624 8.93026 0.920301 15.592 0.916124C16.1814 0.915751 16.1825 -0.000372443 15.592 1.13599e-07Z" fill="#9C9C9C"/>
<path d="M8.36316 20.3057C10.2023 22.1799 12.7454 23.2516 15.3668 23.3256C18.1368 23.4038 20.7313 22.2837 22.6542 20.3058C23.0654 19.8828 22.4183 19.2343 22.0064 19.658C20.2441 21.4707 17.9047 22.4811 15.3668 22.4095C12.9834 22.3422 10.6814 21.3601 9.01095 19.6579C8.59734 19.2365 7.94969 19.8844 8.36316 20.3057Z" fill="#9C9C9C"/>
<path d="M10.6085 9.78294C10.3604 9.84625 10.1683 10.0493 10.1 10.2937C10.028 10.5514 10.1059 10.824 10.2856 11.018C10.6226 11.3817 11.1903 11.3474 11.5779 11.089C11.9857 10.8172 12.2633 10.3028 11.9949 9.83211C11.7412 9.3871 11.1888 9.28483 10.7279 9.4192C10.3197 9.53818 9.9276 9.84908 9.8506 10.2887C9.80842 10.5295 9.83389 10.7781 9.97059 10.9871C10.1003 11.1855 10.2868 11.3163 10.5049 11.401C10.9176 11.5612 11.3495 11.4296 11.734 11.2587C12.0502 11.1181 12.3961 10.927 12.5618 10.6074C12.6764 10.3864 12.7186 10.1166 12.6268 9.87913C12.535 9.64162 12.3685 9.44134 12.141 9.32085C11.6856 9.07964 11.1946 9.19143 10.7384 9.36534C10.624 9.40898 10.5285 9.4667 10.4647 9.57585C10.4072 9.67403 10.3829 9.81874 10.4185 9.92881C10.4889 10.1465 10.7423 10.3401 10.982 10.2487C11.1029 10.2027 11.2242 10.1567 11.3494 10.1235C11.3833 10.1145 11.4179 10.1085 11.4517 10.0995C11.5634 10.07 11.3526 10.1027 11.4674 10.0958C11.4905 10.0944 11.5134 10.0924 11.5365 10.0919C11.5596 10.0914 11.5827 10.0917 11.6058 10.0928C11.6606 10.0975 11.6521 10.0954 11.5804 10.0867C11.5858 10.0934 11.6999 10.1257 11.7126 10.1236L11.6539 10.0994C11.6705 10.1074 11.6868 10.116 11.7028 10.1253L11.7264 10.1396C11.7662 10.1669 11.7576 10.1591 11.7004 10.1162C11.7056 10.13 11.7389 10.1503 11.7503 10.1619C11.8023 10.2149 11.7415 10.1873 11.7386 10.1407C11.739 10.1466 11.7737 10.205 11.7788 10.2084C11.7513 10.1383 11.7453 10.126 11.7608 10.1717C11.769 10.2085 11.7698 10.2053 11.7632 10.162C11.7633 10.0764 11.7597 10.1657 11.7607 10.1805C11.7667 10.2744 11.786 10.0726 11.7615 10.1609C11.737 10.249 11.8188 10.0674 11.7707 10.145C11.7623 10.1586 11.7529 10.1743 11.7452 10.1887C11.7031 10.2683 11.8197 10.1138 11.7539 10.1774C11.7349 10.1959 11.7175 10.2157 11.6978 10.2336C11.6884 10.2423 11.6182 10.2961 11.6817 10.2497C11.7478 10.2014 11.6502 10.2699 11.6382 10.2777C11.5514 10.3339 11.4592 10.3805 11.3658 10.4244C11.3345 10.4391 11.303 10.4532 11.2716 10.4676C11.1945 10.5031 11.274 10.469 11.2855 10.4623C11.2198 10.5004 11.1305 10.5206 11.0574 10.5392C11.0354 10.5447 11.0128 10.5485 10.9909 10.5543C10.8834 10.5829 11.0889 10.556 10.9777 10.5563C10.9461 10.5564 10.9148 10.5593 10.8832 10.558C10.869 10.5574 10.7799 10.5538 10.8656 10.5583C10.947 10.5626 10.8665 10.5558 10.8486 10.5512C10.829 10.5462 10.7924 10.5262 10.7729 10.5273L10.8337 10.5532C10.8179 10.5458 10.8023 10.5379 10.7871 10.5294C10.7657 10.5174 10.7439 10.4956 10.7217 10.4873L10.7744 10.5267C10.7616 10.5155 10.7494 10.5036 10.7377 10.4912C10.6713 10.4315 10.7898 10.5822 10.7478 10.5034C10.7441 10.4964 10.7312 10.4655 10.7237 10.4585L10.7508 10.52C10.7446 10.5014 10.7396 10.4824 10.7359 10.4632L10.7448 10.5271C10.7435 10.5077 10.7433 10.4882 10.7442 10.4687C10.7408 10.3735 10.7216 10.5446 10.7429 10.489C10.7454 10.4823 10.7623 10.4174 10.7646 10.4184C10.7367 10.4818 10.7339 10.4914 10.7561 10.4471C10.7657 10.4298 10.7761 10.4131 10.7874 10.3968C10.7887 10.3974 10.7167 10.4771 10.7815 10.4099C10.7866 10.4046 10.8337 10.3583 10.8349 10.3597L10.7885 10.3953C10.8044 10.3838 10.8207 10.3729 10.8374 10.3626C10.8626 10.347 10.8891 10.3344 10.915 10.32C10.977 10.2855 10.8921 10.3428 10.8871 10.3309C10.8866 10.3298 10.9657 10.3043 10.9714 10.3026C11.0014 10.2939 11.032 10.2881 11.0622 10.2801C11.1602 10.2542 10.9833 10.2769 11.077 10.2779C11.0942 10.2781 11.1671 10.2657 11.18 10.278L11.126 10.2698C11.1484 10.2736 11.1706 10.2788 11.1924 10.2851C11.2956 10.3034 11.1355 10.2479 11.18 10.278C11.1888 10.284 11.2319 10.3161 11.2392 10.315L11.1898 10.2789C11.2035 10.2915 11.2164 10.3049 11.2284 10.3191L11.1898 10.2708C11.2134 10.3134 11.2103 10.3015 11.1805 10.2351C11.1794 10.2375 11.1971 10.2913 11.1955 10.2884C11.1877 10.2139 11.1844 10.2015 11.1857 10.2514C11.1987 10.1761 11.1999 10.1631 11.1895 10.2122C11.1599 10.3061 11.2458 10.1222 11.1937 10.2076C11.1869 10.2204 11.1794 10.2328 11.1714 10.2449C11.1526 10.2732 11.1621 10.262 11.1999 10.2115C11.2029 10.2157 11.1439 10.2722 11.1391 10.2769C11.1246 10.2907 11.1097 10.3039 11.0943 10.3166C11.1483 10.2761 11.1553 10.2699 11.1155 10.298C11.0977 10.3079 11.0807 10.3201 11.0629 10.3303C11.044 10.3412 11.0248 10.3515 11.0053 10.3611C10.9594 10.3824 10.9658 10.3797 11.0244 10.3531C11.0217 10.3584 10.9332 10.3828 10.9308 10.3795L10.9889 10.3729C10.9674 10.375 10.946 10.3758 10.9245 10.3753C10.8169 10.3841 11.026 10.4008 10.9346 10.3757C10.8471 10.3517 11.0363 10.4187 10.9328 10.3742C10.8803 10.3516 11.0135 10.4532 10.9516 10.3893C10.9192 10.3541 10.9264 10.3646 10.9733 10.421C10.9499 10.3789 10.9539 10.3916 10.9853 10.4591C10.9575 10.3748 10.984 10.5753 10.9886 10.4865L10.9778 10.5606C10.9809 10.5449 10.9853 10.5295 10.9908 10.5144L10.9644 10.5804C10.9896 10.5406 10.9796 10.5525 10.9344 10.6162C10.9686 10.5841 10.9558 10.5937 10.896 10.6448C10.8207 10.672 10.8061 10.6792 10.852 10.6664C11.0843 10.6071 11.2471 10.3352 11.172 10.1029C11.0944 9.86304 10.8573 9.71944 10.6085 9.78294Z" fill="#9C9C9C"/>
<path d="M19.2179 9.78294C18.9698 9.84625 18.7777 10.0493 18.7094 10.2937C18.6373 10.5514 18.7153 10.824 18.895 11.018C19.2319 11.3817 19.7997 11.3474 20.1873 11.089C20.5951 10.8172 20.8726 10.3028 20.6043 9.83211C20.3506 9.3871 19.7982 9.28483 19.3373 9.4192C18.9291 9.53818 18.537 9.84908 18.46 10.2887C18.4178 10.5295 18.4433 10.7781 18.58 10.9871C18.7097 11.1855 18.8962 11.3163 19.1143 11.401C19.527 11.5612 19.9588 11.4296 20.3434 11.2587C20.6596 11.1181 21.0054 10.927 21.1712 10.6074C21.2858 10.3864 21.3279 10.1166 21.2362 9.87913C21.1444 9.64162 20.9779 9.44134 20.7504 9.32085C20.295 9.07964 19.8039 9.19143 19.3478 9.36534C19.2333 9.40898 19.1379 9.4667 19.074 9.57585C19.0166 9.67403 18.9923 9.81874 19.0279 9.92881C19.0983 10.1465 19.3516 10.3401 19.5913 10.2487C19.7122 10.2027 19.8336 10.1567 19.9588 10.1235C19.9926 10.1145 20.0273 10.1085 20.0611 10.0995C20.1728 10.07 19.962 10.1027 20.0768 10.0958C20.0999 10.0944 20.1228 10.0924 20.1459 10.0919C20.169 10.0914 20.1921 10.0917 20.2152 10.0928C20.27 10.0975 20.2615 10.0954 20.1897 10.0867C20.1951 10.0934 20.3093 10.1257 20.3219 10.1236L20.2633 10.0994C20.2799 10.1074 20.2962 10.116 20.3122 10.1253L20.3358 10.1396C20.3756 10.1669 20.3669 10.1591 20.3098 10.1162C20.315 10.13 20.3482 10.1503 20.3597 10.1619C20.4117 10.2149 20.3508 10.1873 20.348 10.1407C20.3484 10.1466 20.3831 10.205 20.3881 10.2084C20.3606 10.1383 20.3546 10.126 20.3701 10.1717C20.3784 10.2085 20.3792 10.2053 20.3725 10.162C20.3727 10.0764 20.3691 10.1657 20.37 10.1805C20.3761 10.2744 20.3954 10.0726 20.3708 10.1609C20.3463 10.249 20.4282 10.0674 20.3801 10.145C20.3716 10.1586 20.3622 10.1743 20.3546 10.1887C20.3125 10.2683 20.429 10.1138 20.3633 10.1774C20.3443 10.1959 20.3268 10.2157 20.3072 10.2336C20.2978 10.2423 20.2275 10.2961 20.2911 10.2497C20.3572 10.2014 20.2596 10.2699 20.2475 10.2777C20.1608 10.3339 20.0686 10.3805 19.9752 10.4244C19.9439 10.4391 19.9123 10.4532 19.881 10.4676C19.8039 10.5031 19.8833 10.469 19.8949 10.4623C19.8292 10.5004 19.7399 10.5206 19.6668 10.5392C19.6448 10.5447 19.6221 10.5485 19.6002 10.5543C19.4928 10.5829 19.6983 10.556 19.5871 10.5563C19.5555 10.5564 19.5242 10.5593 19.4926 10.558C19.4784 10.5574 19.3893 10.5538 19.4749 10.5583C19.5564 10.5626 19.4759 10.5558 19.458 10.5512C19.4384 10.5462 19.4017 10.5262 19.3823 10.5273L19.4431 10.5532C19.4273 10.5458 19.4117 10.5379 19.3965 10.5294C19.3751 10.5174 19.3533 10.4956 19.331 10.4873L19.3838 10.5267C19.371 10.5155 19.3588 10.5036 19.3471 10.4912C19.2807 10.4315 19.3992 10.5822 19.3572 10.5034C19.3535 10.4964 19.3406 10.4655 19.3331 10.4585L19.3601 10.52C19.354 10.5014 19.349 10.4824 19.3453 10.4632L19.3541 10.5271C19.3528 10.5077 19.3527 10.4882 19.3536 10.4687C19.3502 10.3735 19.331 10.5446 19.3523 10.489C19.3548 10.4823 19.3717 10.4174 19.374 10.4184C19.3461 10.4818 19.3432 10.4914 19.3654 10.4471C19.3751 10.4298 19.3855 10.4131 19.3968 10.3968C19.3981 10.3974 19.326 10.4771 19.3908 10.4099C19.3959 10.4046 19.4431 10.3583 19.4443 10.3597L19.3979 10.3953C19.4138 10.3838 19.4301 10.3729 19.4468 10.3626C19.472 10.347 19.4985 10.3344 19.5243 10.32C19.5864 10.2855 19.5015 10.3428 19.4965 10.3309C19.496 10.3298 19.5751 10.3043 19.5808 10.3026C19.6108 10.2939 19.6414 10.2881 19.6716 10.2801C19.7696 10.2542 19.5927 10.2769 19.6864 10.2779C19.7036 10.2781 19.7764 10.2657 19.7893 10.278L19.7354 10.2698C19.7578 10.2736 19.78 10.2788 19.8018 10.2851C19.905 10.3034 19.7448 10.2479 19.7893 10.278C19.7981 10.284 19.8412 10.3161 19.8485 10.315L19.7992 10.2789C19.8129 10.2915 19.8258 10.3049 19.8378 10.3191L19.7991 10.2708C19.8227 10.3134 19.8197 10.3015 19.7899 10.2351C19.7888 10.2375 19.8065 10.2913 19.8049 10.2884C19.7971 10.2139 19.7938 10.2015 19.7951 10.2514C19.808 10.1761 19.8093 10.1631 19.7989 10.2122C19.7693 10.3061 19.8551 10.1222 19.803 10.2076C19.7962 10.2204 19.7888 10.2328 19.7808 10.2449C19.762 10.2732 19.7714 10.262 19.8092 10.2115C19.8122 10.2157 19.7533 10.2722 19.7484 10.2769C19.734 10.2907 19.7191 10.3039 19.7037 10.3166C19.7576 10.2761 19.7647 10.2699 19.7249 10.298C19.707 10.3079 19.69 10.3201 19.6723 10.3303C19.6534 10.3412 19.6342 10.3515 19.6146 10.3611C19.5688 10.3824 19.5752 10.3797 19.6338 10.3531C19.631 10.3584 19.5426 10.3828 19.5402 10.3795L19.5982 10.3729C19.5768 10.375 19.5553 10.3758 19.5338 10.3753C19.4263 10.3841 19.6354 10.4008 19.5439 10.3757C19.4565 10.3517 19.6456 10.4187 19.5422 10.3742C19.4897 10.3516 19.6228 10.4532 19.561 10.3893C19.5286 10.3541 19.5358 10.3646 19.5826 10.421C19.5593 10.3789 19.5633 10.3916 19.5946 10.4591C19.5669 10.3748 19.5934 10.5753 19.598 10.4865L19.5872 10.5606C19.5903 10.5449 19.5946 10.5295 19.6001 10.5144L19.5738 10.5804C19.599 10.5406 19.5889 10.5525 19.5437 10.6162C19.578 10.5841 19.5652 10.5937 19.5054 10.6448C19.4301 10.672 19.4154 10.6792 19.4614 10.6664C19.6936 10.6071 19.8565 10.3352 19.7813 10.1029C19.7037 9.86304 19.4667 9.71944 19.2179 9.78294Z" fill="#9C9C9C"/>
</g>
<defs>
<clipPath id="clip0_3859_77987">
<rect width="31" height="31.0033" fill="white"/>
</clipPath>
</defs>
</svg>
