<svg width="26" height="26" viewBox="0 0 26 26" fill="none" xmlns="http://www.w3.org/2000/svg">
<mask id="mask0_3365_80937" style="mask-type:luminance" maskUnits="userSpaceOnUse" x="1" y="1" width="24" height="24">
<path d="M12.8469 23.0504C14.2167 23.0522 15.5733 22.7832 16.8388 22.259C18.1044 21.7348 19.2538 20.9657 20.2211 19.9958C21.191 19.0285 21.9602 17.879 22.4844 16.6135C23.0086 15.348 23.2775 13.9913 23.2758 12.6215C23.2775 11.2517 23.0085 9.89509 22.4843 8.62957C21.9601 7.36405 21.191 6.21459 20.2211 5.24726C19.2538 4.27739 18.1044 3.50824 16.8388 2.98402C15.5733 2.45981 14.2167 2.19086 12.8469 2.19264C11.4771 2.19089 10.1204 2.45985 8.85491 2.98406C7.58939 3.50828 6.43993 4.27741 5.4726 5.24726C4.50275 6.21459 3.73362 7.36405 3.20941 8.62957C2.68519 9.89509 2.41623 11.2517 2.41798 12.6215C2.4162 13.9913 2.68515 15.348 3.20937 16.6135C3.73358 17.879 4.50273 19.0285 5.4726 19.9958C6.43993 20.9656 7.58939 21.7348 8.85491 22.259C10.1204 22.7832 11.4771 23.0522 12.8469 23.0504Z" fill="white" stroke="white" stroke-width="2.08578" stroke-linejoin="round"/>
<path d="M8.67578 12.6213L11.8044 15.75L18.0618 9.49268" stroke="black" stroke-width="2.08578" stroke-linecap="round" stroke-linejoin="round"/>
</mask>
<g mask="url(#mask0_3365_80937)">
<path d="M0.335938 0.106689H25.3653V25.136H0.335938V0.106689Z" fill="black"/>
</g>
</svg>
