<svg width="26" height="26" viewBox="0 0 26 26" fill="none" xmlns="http://www.w3.org/2000/svg">
<g clip-path="url(#clip0_3365_80913)">
<path d="M18.0498 1.67053C18.4647 1.67053 18.8626 1.83535 19.156 2.12872C19.4493 2.42209 19.6142 2.81998 19.6142 3.23487V22.0069C19.6142 22.4218 19.4493 22.8197 19.156 23.113C18.8626 23.4064 18.4647 23.5712 18.0498 23.5712H8.66382C8.24894 23.5712 7.85104 23.4064 7.55767 23.113C7.2643 22.8197 7.09949 22.4218 7.09949 22.0069V3.23487C7.09949 2.81998 7.2643 2.42209 7.55767 2.12872C7.85104 1.83535 8.24894 1.67053 8.66382 1.67053H18.0498ZM8.66382 0.106201C7.83405 0.106201 7.03826 0.435828 6.45152 1.02257C5.86478 1.60931 5.53516 2.40509 5.53516 3.23487V22.0069C5.53516 22.8366 5.86478 23.6324 6.45152 24.2192C7.03826 24.8059 7.83405 25.1355 8.66382 25.1355H18.0498C18.8796 25.1355 19.6754 24.8059 20.2621 24.2192C20.8489 23.6324 21.1785 22.8366 21.1785 22.0069V3.23487C21.1785 2.40509 20.8489 1.60931 20.2621 1.02257C19.6754 0.435828 18.8796 0.106201 18.0498 0.106201L8.66382 0.106201Z" fill="#2D3043"/>
<path d="M13.3573 22.0071C13.7722 22.0071 14.1701 21.8423 14.4635 21.5489C14.7568 21.2555 14.9216 20.8576 14.9216 20.4428C14.9216 20.0279 14.7568 19.63 14.4635 19.3366C14.1701 19.0432 13.7722 18.8784 13.3573 18.8784C12.9424 18.8784 12.5445 19.0432 12.2512 19.3366C11.9578 19.63 11.793 20.0279 11.793 20.4428C11.793 20.8576 11.9578 21.2555 12.2512 21.5489C12.5445 21.8423 12.9424 22.0071 13.3573 22.0071Z" fill="#2D3043"/>
</g>
<defs>
<clipPath id="clip0_3365_80913">
<rect width="25.0293" height="25.0293" fill="white" transform="translate(0.84375 0.106445)"/>
</clipPath>
</defs>
</svg>
