<?xml version="1.0" encoding="utf-8"?>
<svg viewBox="0 0 500 500" xmlns="http://www.w3.org/2000/svg">
  <defs>
    <linearGradient id="paint0_linear_10241_39987" x1="32.4281" y1="14.8895" x2="93.2807" y2="111.347" gradientUnits="userSpaceOnUse" gradientTransform="matrix(1, 0, 0, 1, 165.013321, 84.405422)">
      <stop offset="0.1042" stop-color="#FFFCF3"/>
      <stop offset="0.8281" stop-color="#D5D5FF"/>
    </linearGradient>
  </defs>
  <circle cx="227.221" cy="145.906" r="61.5" fill="url(#paint0_linear_10241_39987)" style="" transform="matrix(2.1065170764923096, 0, 0, 2.06900691986084, -257.19073486328125, -78.69659423828125)"/>
  <path d="M 221.644 201.813 C 215.347 201.813 209.305 204.272 204.851 208.645 C 200.397 213.021 197.895 218.954 197.895 225.141 C 197.895 231.327 200.397 237.261 204.851 241.636 C 209.305 246.012 215.347 248.469 221.644 248.469 C 227.945 248.469 233.985 246.012 238.44 241.636 C 242.893 237.261 245.396 231.327 245.396 225.141 C 245.396 218.954 242.893 213.021 238.44 208.645 C 233.985 204.272 227.945 201.813 221.644 201.813 Z" fill="#3F3E8F" style=""/>
  <path fill-rule="evenodd" clip-rule="evenodd" d="M 226.61 159.148 C 225.09 158.318 223.38 157.88 221.641 157.88 C 219.901 157.88 218.189 158.318 216.671 159.148 L 164.052 187.86 C 162.46 188.727 161.129 190.003 160.205 191.548 C 159.278 193.092 158.792 194.853 158.792 196.645 L 158.792 253.637 C 158.792 257.29 160.809 260.649 164.052 262.421 L 216.671 291.134 C 218.189 291.964 219.901 292.398 221.641 292.398 C 223.38 292.398 225.09 291.964 226.61 291.134 L 279.227 262.421 C 280.821 261.552 282.151 260.278 283.077 258.735 C 284 257.192 284.489 255.437 284.489 253.645 L 284.489 196.645 C 284.489 194.853 284.003 193.092 283.078 191.548 C 282.151 190.003 280.824 188.727 279.227 187.86 L 226.61 159.148 Z M 186.928 225.141 C 186.928 216.098 190.585 207.427 197.096 201.031 C 203.606 194.637 212.434 191.046 221.641 191.046 C 230.846 191.046 239.678 194.637 246.187 201.031 C 252.698 207.427 256.355 216.098 256.355 225.141 C 256.355 234.182 252.698 242.857 246.187 249.249 C 239.678 255.642 230.846 259.237 221.641 259.237 C 212.434 259.237 203.606 255.642 197.096 249.249 C 190.585 242.857 186.928 234.182 186.928 225.141 Z" fill="#3F3E8F" style=""/>
</svg>