<svg width="123" height="123" viewBox="0 0 123 123" fill="none" xmlns="http://www.w3.org/2000/svg">
<g filter="url(#filter0_d_8827_71522)">
<circle cx="61.5" cy="61.5" r="32.5" fill="url(#paint0_linear_8827_71522)" shape-rendering="crispEdges"/>
</g>
<path d="M78.3969 63.1593L69.1937 72.1203C68.125 73.2042 66.5219 73.9703 64.8297 73.9703H57.9125C57.0367 73.9703 56.25 74.3027 55.6711 74.8664L53.3703 76.9765H42.8906L52.9695 67.0328L52.9547 67.0183C54.0234 65.9777 55.5227 65.3273 57.1703 65.3128H67.1156C68.1695 65.3128 69.0156 66.1367 69.0156 67.1628C69.0156 68.189 68.1695 69.0128 67.1156 69.0128H59.1C58.7586 68.9839 58.4766 69.2585 58.4766 69.6199C58.4766 69.9812 58.7586 70.2414 59.1148 70.2414H67.0859C67.932 70.2703 68.7336 69.9234 69.3273 69.3453C69.9211 68.7671 70.2477 67.9722 70.2477 67.1628C70.2773 66.7871 70.1734 66.3824 70.0398 66.0355L75.6953 60.5289C76.4523 59.7917 77.6398 59.7917 78.382 60.5C79.1539 61.2371 79.1391 62.4367 78.3969 63.1593ZM52.2422 53.8515C52.2422 48.475 56.6656 44.1101 62.1875 44.1101C67.7094 44.1101 72.1625 48.446 72.1625 53.8226C72.1625 59.1992 67.6945 63.5351 62.2023 63.5351C56.7102 63.5351 52.2422 59.1992 52.2422 53.8515ZM63.5086 56.0917C63.5086 56.7566 62.9445 57.248 61.8016 57.248C60.7328 57.248 59.7383 56.8867 59.1 56.5832L58.5953 58.5488C59.1742 58.8667 60.3766 59.1703 61.5641 59.1703V60.6445H62.9445V59.1269C64.9633 58.6933 65.9133 57.5226 65.9133 56.005C65.9133 54.4875 65.0375 53.548 63.1523 52.8832C61.7867 52.3339 61.1484 52.0738 61.1484 51.3945C61.1484 50.9031 61.6977 50.4117 62.707 50.4117C63.7164 50.4117 64.4586 50.7152 64.9187 50.9031L65.4828 48.9808C64.8742 48.6628 64.043 48.4316 62.9 48.4316V46.9285H61.5195V48.5328C59.6789 48.8941 58.6695 50.0503 58.6695 51.539C58.6695 53.1433 59.8125 54.0394 61.6383 54.6609C62.9594 55.1523 63.5086 55.4269 63.5086 56.0917Z" fill="#3F3E8F"/>
<defs>
<filter id="filter0_d_8827_71522" x="0.289494" y="0.289494" width="122.421" height="122.421" filterUnits="userSpaceOnUse" color-interpolation-filters="sRGB">
<feFlood flood-opacity="0" result="BackgroundImageFix"/>
<feColorMatrix in="SourceAlpha" type="matrix" values="0 0 0 0 0 0 0 0 0 0 0 0 0 0 0 0 0 0 127 0" result="hardAlpha"/>
<feOffset/>
<feGaussianBlur stdDeviation="14.3553"/>
<feComposite in2="hardAlpha" operator="out"/>
<feColorMatrix type="matrix" values="0 0 0 0 0 0 0 0 0 0 0 0 0 0 0 0 0 0 0.14 0"/>
<feBlend mode="normal" in2="BackgroundImageFix" result="effect1_dropShadow_8827_71522"/>
<feBlend mode="normal" in="SourceGraphic" in2="effect1_dropShadow_8827_71522" result="shape"/>
</filter>
<linearGradient id="paint0_linear_8827_71522" x1="45.7632" y1="36.8684" x2="77.9211" y2="87.8421" gradientUnits="userSpaceOnUse">
<stop stop-color="#FFFCF3" stop-opacity="0.01"/>
<stop offset="0.828125" stop-color="#2825FE" stop-opacity="0.2"/>
<stop offset="1" stop-color="#2825FE" stop-opacity="0.31"/>
</linearGradient>
</defs>
</svg>
