<svg width="125" height="124" viewBox="0 0 125 124" fill="none" xmlns="http://www.w3.org/2000/svg">
<g filter="url(#filter0_d_3365_80962)">
<circle cx="62.5273" cy="61.9277" r="32.5" fill="url(#paint0_linear_3365_80962)" shape-rendering="crispEdges"/>
</g>
<mask id="path-2-outside-1_3365_80962" maskUnits="userSpaceOnUse" x="43.0273" y="41.4277" width="40" height="41" fill="black">
<rect fill="white" x="43.0273" y="41.4277" width="40" height="41"/>
<path d="M54.7623 61.8381C54.6098 61.8834 54.4458 61.8685 54.304 61.7965C53.8155 61.4985 53.2691 61.3084 52.7013 61.2387C52.0813 61.2366 51.4757 61.4257 50.9672 61.7804C50.8997 61.8216 50.8247 61.849 50.7466 61.8612C50.6685 61.8733 50.5888 61.8698 50.512 61.8509C50.4345 61.8322 50.3615 61.7983 50.2973 61.7511C50.233 61.704 50.1787 61.6445 50.1376 61.5763C50.0964 61.508 50.0693 61.4322 50.0576 61.3534C50.0459 61.2745 50.05 61.1942 50.0696 61.1169C50.0873 61.0392 50.1209 60.966 50.1683 60.902C50.2158 60.838 50.2761 60.7845 50.3453 60.7451C50.7012 60.5282 51.0852 60.3611 51.4864 60.2483C51.8589 60.1455 52.2446 60.0991 52.6307 60.1104C53.0096 60.1188 53.3857 60.177 53.7494 60.2835C54.1276 60.3942 54.4937 60.5424 54.8425 60.7259C54.9125 60.7614 54.9748 60.8106 55.0256 60.8705C55.0765 60.9304 55.1148 60.9999 55.1384 61.0748C55.162 61.1498 55.1703 61.2287 55.163 61.3069C55.1557 61.3852 55.1328 61.4611 55.0957 61.5304C55.0666 61.6064 55.0206 61.6747 54.9612 61.7303C54.9018 61.7858 54.8305 61.8271 54.7527 61.8509L54.7623 61.8381ZM82.0273 49.4237C81.5946 54.3568 78.4149 57.3314 73.0747 58.2064C73.251 52.0905 77.3282 50.35 82.0273 49.4237ZM69.1128 50.2667C69.4622 47.4491 69.9366 45.3208 72.7349 43.4777C74.7415 45.0804 75.7993 46.0163 76.2961 50.2987C74.8184 50.6513 73.501 52.2444 72.7189 54.6805C71.9656 52.2861 70.7508 50.834 69.1128 50.2667ZM77.293 49.9461L76.7545 47.4139C77.6648 46.635 79.2451 46.2087 80.8029 45.8112C80.7988 46.8019 80.7303 47.7912 80.5977 48.773C79.435 48.9692 78.3162 49.3696 77.293 49.9558V49.9461ZM68.132 49.9461L68.6705 47.4139C67.7634 46.635 66.1799 46.2087 64.6253 45.8112C64.6282 46.8018 64.6957 47.7911 64.8272 48.773C65.9899 48.9677 67.1088 49.3671 68.132 49.9526V49.9461ZM63.3624 49.4237C63.7919 54.3568 66.9716 57.3314 72.3118 58.2064C72.1355 52.0905 68.0679 50.35 63.3624 49.4237ZM56.7945 78.5927C56.7945 78.7594 56.7945 78.9132 56.7945 79.0959C56.7945 79.2786 56.7721 79.4966 56.7561 79.6985C56.7336 79.9742 56.692 80.2435 56.6439 80.5127C56.5958 80.782 56.5349 81.048 56.4644 81.3108C56.4146 81.4856 56.3 81.6347 56.1438 81.7275C56.0663 81.7733 55.9805 81.803 55.8913 81.8151C55.8022 81.8272 55.7115 81.8214 55.6246 81.7981C55.4501 81.7477 55.3013 81.6332 55.2079 81.4775C55.1622 81.4 55.1324 81.3142 55.1203 81.225C55.1082 81.1358 55.114 81.0452 55.1374 80.9583C55.2047 80.7275 55.2528 80.4967 55.2976 80.2659C55.3425 80.0351 55.3746 79.8043 55.3938 79.5735C55.3938 79.4517 55.413 79.3299 55.4194 79.2049V79.0062C55.1245 79.0895 54.8296 79.16 54.5412 79.2209C54.1854 79.3011 53.8296 79.3748 53.4866 79.4357C52.8102 79.5603 52.1256 79.6353 51.4383 79.6601C50.8621 79.6828 50.2851 79.6441 49.7171 79.5447C49.328 79.4775 48.9497 79.359 48.592 79.1921C48.2785 79.0449 47.9923 78.8455 47.7457 78.6023C47.4841 78.3401 47.2847 78.0224 47.1624 77.6727C47.039 77.3024 46.9922 76.911 47.0245 76.522C47.0492 76.1893 47.1105 75.8604 47.2072 75.5412C47.313 75.1859 47.447 74.8397 47.6079 74.5058C47.5726 74.3199 47.5342 74.1308 47.5021 73.9385C47.4701 73.7461 47.4348 73.525 47.4092 73.2974C47.3835 73.0698 47.3483 72.8102 47.329 72.5698C47.3098 72.3294 47.297 72.0857 47.2842 71.8325C47.2842 71.8101 47.2842 71.778 47.2842 71.7492C47.2457 71.3036 47.2169 70.8581 47.204 70.4221C47.1912 69.9862 47.1848 69.5375 47.1784 69.0983V68.9765C46.7489 68.9509 46.2937 68.9381 45.8706 68.8996C45.6954 68.8919 45.522 68.8618 45.3545 68.8098C45.1875 68.761 45.0287 68.6875 44.8833 68.5919C44.7493 68.4986 44.6257 68.3911 44.5147 68.2713C44.3009 68.0232 44.1522 67.7258 44.082 67.4059C44.0438 67.2387 44.0255 67.0677 44.0275 66.8962C44.0364 66.6238 44.0839 66.354 44.1685 66.0949C44.2657 65.817 44.3948 65.5513 44.5532 65.3031L46.018 62.2933C46.2714 61.8259 46.4796 61.3354 46.6399 60.8284C46.7079 60.5246 46.7263 60.2118 46.6944 59.9021C46.6944 59.5559 46.6623 59.1071 46.6944 58.4404C46.7042 58.0491 46.7341 57.6586 46.7841 57.2704C46.8264 56.8956 46.8939 56.524 46.9861 56.1582C47.0502 55.8953 47.1239 55.6421 47.2072 55.3889C47.2906 55.1357 47.3611 54.9786 47.4476 54.7863L44.8609 53.6644C44.7779 53.6288 44.7029 53.577 44.6401 53.5121C44.5774 53.4471 44.5282 53.3703 44.4955 53.2862C44.4607 53.2035 44.4427 53.1146 44.4427 53.0249C44.4427 52.9352 44.4607 52.8464 44.4955 52.7637L44.5275 52.6932L44.5628 52.6291C47.5534 48.5454 50.7588 45.84 53.9161 44.2534C57.1171 42.5775 60.791 42.0341 64.34 42.7116L64.7728 42.8045C64.9106 42.8334 65.0548 42.8751 65.2023 42.9103C65.23 42.9178 65.2546 42.934 65.2725 42.9565C65.2904 42.979 65.3006 43.0066 65.3016 43.0353V44.1829C65.3008 44.2166 65.2871 44.2487 65.2632 44.2726C65.2393 44.2965 65.2072 44.3103 65.1734 44.3111H65.1285L64.6093 44.1764C64.433 44.1348 64.2535 44.0963 64.0804 44.0643C60.8865 43.4555 57.5808 43.928 54.6854 45.4073C51.8326 46.8081 48.9413 49.1801 46.1879 52.7573C46.9989 53.1163 47.9669 53.4753 48.7522 53.8759C49.6344 54.1321 50.5668 54.163 51.464 53.9657C52.5266 53.7543 53.5756 53.4792 54.6053 53.1419C55.3842 52.9079 56.1406 52.6739 56.8651 52.5008C57.5481 52.3242 58.2496 52.2284 58.955 52.2156C58.9986 52.2093 59.0428 52.2093 59.0864 52.2156C59.1311 52.2205 59.1751 52.2302 59.2178 52.2444C59.3894 52.3015 59.5314 52.4244 59.6125 52.586C59.6937 52.7477 59.7073 52.9349 59.6505 53.1067C59.3321 53.9981 59.1631 54.936 59.1505 55.8825C59.1433 56.5929 59.3013 57.2952 59.6121 57.934C59.9213 58.5385 60.3447 59.0773 60.859 59.5206C61.4302 60.0204 62.0585 60.4508 62.7309 60.8028C62.8873 60.8908 63.0026 61.0372 63.0515 61.2099C63.0764 61.2962 63.0841 61.3865 63.0741 61.4758C63.0641 61.5651 63.0366 61.6515 62.9931 61.7301C62.9496 61.8087 62.8911 61.878 62.8208 61.9339C62.7505 61.9899 62.6698 62.0314 62.5835 62.0561C62.4979 62.0778 62.4087 62.0817 62.3215 62.0673C62.2344 62.053 62.1511 62.0208 62.077 61.9727C61.293 61.5589 60.5604 61.0543 59.8942 60.4694C59.2689 59.9209 58.7552 59.2571 58.3812 58.5141C58.0397 57.812 57.8393 57.0497 57.7914 56.2704C57.7435 55.3845 57.8343 54.4966 58.0607 53.6387C57.5994 53.7121 57.1425 53.8106 56.692 53.9336C56.1374 54.0843 55.5637 54.2542 54.9835 54.4337C53.9139 54.7864 52.8243 55.0754 51.7204 55.2991C50.7272 55.5109 49.7005 55.5109 48.7074 55.2991C48.6254 55.4688 48.5536 55.6433 48.4926 55.8216C48.4157 56.0364 48.358 56.2575 48.3003 56.4819C48.2232 56.7987 48.1654 57.1198 48.1272 57.4435C48.0855 57.7641 48.0567 58.1263 48.0438 58.4789C48.0246 59.0943 48.0438 59.5142 48.0438 59.838C48.0844 60.2549 48.0595 60.6756 47.9701 61.0849C47.7993 61.7205 47.5518 62.333 47.2329 62.9087L45.7552 65.9699L45.7231 66.0212C45.6247 66.1705 45.544 66.3307 45.4827 66.4988C45.4298 66.6349 45.4005 66.7791 45.3962 66.9251C45.395 66.9874 45.4004 67.0497 45.4122 67.111C45.423 67.1642 45.4402 67.2158 45.4635 67.2648C45.4821 67.3021 45.5059 67.3367 45.534 67.3674C45.5598 67.3953 45.5889 67.4201 45.6206 67.4411C45.6609 67.4669 45.7039 67.4884 45.7488 67.5052C45.8021 67.5203 45.8569 67.5289 45.9123 67.5309C46.4508 67.5309 47.0918 67.5982 47.6432 67.6303H47.7201H47.8259C48.3323 67.6303 48.951 67.7136 49.4638 67.7617C49.6451 67.7781 49.8129 67.8643 49.9318 68.0021C50.0486 68.1401 50.1062 68.3187 50.0921 68.4989C50.0873 68.5899 50.0642 68.6791 50.0242 68.761C49.9842 68.8429 49.9282 68.916 49.8594 68.9758C49.7906 69.0356 49.7105 69.081 49.6238 69.1092C49.5371 69.1374 49.4457 69.1479 49.3548 69.14L48.5407 69.0887V69.1111C48.5407 69.5086 48.5407 69.9029 48.5631 70.2971C48.5856 70.6914 48.592 71.028 48.624 71.403C48.7958 71.4799 48.9738 71.5421 49.1561 71.5889C49.3441 71.6471 49.5374 71.6868 49.7331 71.7075C49.946 71.7337 50.1613 71.7337 50.3742 71.7075C50.5869 71.6742 50.794 71.6116 50.9896 71.5216C51.0723 71.4868 51.1611 71.4688 51.2508 71.4688C51.3406 71.4688 51.4294 71.4868 51.5121 71.5216C51.5962 71.5543 51.673 71.6035 51.738 71.6662C51.8029 71.729 51.8547 71.804 51.8903 71.887C51.9261 71.9683 51.9445 72.0562 51.9445 72.145C51.9445 72.2339 51.9261 72.3218 51.8903 72.4031C51.8581 72.4879 51.8092 72.5654 51.7464 72.6309C51.6836 72.6965 51.6083 72.7487 51.5249 72.7845C51.2172 72.9186 50.8943 73.0144 50.5633 73.0698C50.2377 73.1206 49.9068 73.1281 49.5792 73.0922C49.4045 73.0754 49.2311 73.0476 49.0599 73.0089C48.9478 72.9833 48.8388 72.9512 48.7394 72.9191L48.7683 73.1628C48.7939 73.3679 48.8292 73.5859 48.8708 73.8038C48.9125 74.0218 48.9542 74.2398 48.999 74.4609C49.0134 74.5426 49.0134 74.6261 48.999 74.7078C48.9878 74.7912 48.9583 74.8711 48.9125 74.9417C48.7646 75.2331 48.6393 75.5352 48.5375 75.8457C48.458 76.0923 48.4064 76.3472 48.3836 76.6053C48.3695 76.8076 48.3923 77.0107 48.4509 77.2047C48.501 77.3722 48.5925 77.5244 48.717 77.6471C48.8645 77.7827 49.0349 77.8912 49.2202 77.9676C49.4578 78.0724 49.7076 78.1467 49.9639 78.1888C50.4476 78.271 50.9385 78.3021 51.4287 78.2818C52.0354 78.2584 52.6396 78.1909 53.2366 78.0798C53.8616 77.9676 54.5187 77.817 55.1983 77.6375C55.8041 77.4676 56.4099 77.2753 56.9997 77.0477C57.5038 76.8533 57.9952 76.6274 58.471 76.3713C58.8739 76.1564 59.2578 75.9077 59.6185 75.6277C59.9428 75.3497 60.2068 75.0083 60.3942 74.6244C60.5789 74.2398 60.7384 73.8437 60.8718 73.4384L61.0064 73.0538L61.0866 72.8358C61.2884 72.255 61.5195 71.6848 61.7789 71.1273C62.0133 70.5605 62.3689 70.0517 62.8207 69.6368C62.8916 69.5814 62.9731 69.5411 63.0602 69.5185C63.1474 69.4959 63.2382 69.4915 63.3271 69.5054C63.4167 69.5165 63.5032 69.5454 63.5814 69.5906C63.6596 69.6357 63.7279 69.6961 63.7823 69.7683C63.8374 69.8396 63.8779 69.9213 63.9013 70.0084C63.9247 70.0955 63.9306 70.1864 63.9187 70.2758C63.9068 70.3652 63.8772 70.4514 63.8318 70.5293C63.7864 70.6072 63.726 70.6754 63.6541 70.7299C63.3468 71.0483 63.1069 71.4256 62.9489 71.8389C62.7213 72.3454 62.5162 72.9031 62.3655 73.3166C62.2886 73.5057 62.2245 73.7077 62.1572 73.9C61.9938 74.3993 61.7934 74.8857 61.5577 75.3552C61.2914 75.8781 60.9217 76.3416 60.4711 76.7175C60.0564 77.0422 59.6146 77.3307 59.1505 77.5798C58.6127 77.8603 58.0582 78.1075 57.4901 78.3202C57.3651 78.3715 57.2273 78.4164 57.0926 78.4709L56.7945 78.5767V78.5927ZM76.0621 67.3097C74.6453 69.624 72.4913 71.762 69.4622 73.5346C69.4222 73.5581 69.3804 73.5784 69.3372 73.5955H69.318C69.318 73.9972 69.3308 74.3947 69.3565 74.7879C69.3821 75.2078 69.4238 75.6245 69.4718 76.038C69.5648 76.8259 69.7061 77.6073 69.895 78.3779C70.0797 79.1193 70.3077 79.8492 70.5777 80.564C70.6453 80.7316 70.6453 80.9189 70.5777 81.0865C70.5403 81.1683 70.4871 81.2419 70.4211 81.3029C70.355 81.364 70.2775 81.4114 70.1931 81.4423C70.1104 81.4773 70.0216 81.4953 69.9318 81.4953C69.8421 81.4953 69.7532 81.4773 69.6706 81.4423C69.5882 81.4058 69.5141 81.3529 69.4529 81.2867C69.3917 81.2206 69.3447 81.1426 69.3148 81.0576C68.7253 79.4948 68.327 77.8664 68.1288 76.2079C68.0203 75.3316 67.9646 74.4496 67.9621 73.5666C67.9583 72.6267 68.0043 71.6873 68.0999 70.7523C68.1086 70.6633 68.1349 70.577 68.1772 70.4983C68.2196 70.4196 68.2772 70.3501 68.3468 70.2939C68.4869 70.1792 68.6664 70.124 68.8468 70.1401C69.0264 70.1603 69.1908 70.2502 69.3048 70.3905C69.4187 70.5308 69.4729 70.7102 69.4558 70.8901C69.4366 71.1113 69.4174 71.3389 69.3949 71.5729L69.35 71.9928C71.6351 70.6234 73.5586 68.7262 74.9595 66.4603C76.3314 64.1524 76.9115 62.1811 76.841 59.729C76.8402 59.6947 76.8527 59.6614 76.8761 59.6362C76.8995 59.611 76.9317 59.596 76.966 59.5944H78.0751C78.11 59.5944 78.1434 59.6082 78.168 59.6328C78.1927 59.6575 78.2065 59.6909 78.2065 59.7258C78.2835 62.5786 77.5334 64.8736 76.0557 67.2905L76.0621 67.3097ZM66.1254 63.6267C66.1452 63.7987 66.099 63.9718 65.996 64.111C65.8931 64.2501 65.7411 64.345 65.5709 64.3764C65.4006 64.4077 65.2248 64.3732 65.079 64.2799C64.9332 64.1865 64.8283 64.0413 64.7856 63.8735C64.7546 63.6871 64.7407 63.4983 64.7439 63.3094C64.7519 63.1259 64.782 62.944 64.8337 62.7677C64.9737 62.2969 65.2477 61.8771 65.6222 61.5593C65.8024 61.4044 66.003 61.2749 66.2184 61.1746C66.4339 61.0714 66.6626 60.9981 66.8979 60.9566C67.1005 60.9172 67.3073 60.9032 67.5134 60.915C67.7194 60.9237 67.9237 60.956 68.1224 61.0111C68.5737 61.1195 68.9905 61.34 69.334 61.6522C69.6 61.9142 69.7685 62.2591 69.8116 62.6299C69.8505 62.9603 69.8211 63.2953 69.7251 63.6139C69.624 63.9631 69.491 64.3021 69.3276 64.6268C69.1866 64.9249 68.8404 65.6429 68.3948 66.4635C67.9491 67.3167 67.4368 68.1334 66.8627 68.906C66.0773 69.9157 65.2952 70.6017 64.6574 70.5087C64.0195 70.4157 63.5419 69.5086 63.4265 67.3674C63.4169 67.277 63.4257 67.1856 63.4521 67.0986C63.4785 67.0116 63.5221 66.9308 63.5803 66.861C63.7015 66.7318 63.8682 66.6548 64.0451 66.6462C64.2221 66.6445 64.3934 66.7084 64.5259 66.8257C64.5932 66.8857 64.6477 66.9586 64.6863 67.0401C64.7248 67.1216 64.7466 67.21 64.7503 67.3001C64.792 68.1271 64.9266 68.4861 65.0965 68.547C65.2664 68.6079 65.4843 68.3931 65.7376 68.0694C66.2707 67.3485 66.7476 66.5876 67.164 65.7936C67.5807 65.0179 67.914 64.3351 68.0487 64.0466C68.1618 63.82 68.2583 63.5854 68.3371 63.3447C68.3977 63.1786 68.4239 63.0019 68.4141 62.8254C68.395 62.7262 68.3374 62.6385 68.2538 62.5818C68.1011 62.4698 67.9296 62.3862 67.7473 62.335C67.6424 62.3089 67.5349 62.2949 67.4268 62.2933C67.3196 62.2873 67.212 62.2938 67.1063 62.3125C66.9886 62.3333 66.8743 62.3699 66.7665 62.4215C66.6588 62.4722 66.5577 62.5357 66.4652 62.6106C66.3824 62.6834 66.3092 62.7663 66.2472 62.8574C66.1872 62.9449 66.1437 63.0427 66.119 63.1459C66.0964 63.2242 66.0834 63.3049 66.0805 63.3863C66.0663 63.4691 66.0663 63.5536 66.0805 63.6363L66.1254 63.6267Z"/>
</mask>
<path d="M54.7623 61.8381C54.6098 61.8834 54.4458 61.8685 54.304 61.7965C53.8155 61.4985 53.2691 61.3084 52.7013 61.2387C52.0813 61.2366 51.4757 61.4257 50.9672 61.7804C50.8997 61.8216 50.8247 61.849 50.7466 61.8612C50.6685 61.8733 50.5888 61.8698 50.512 61.8509C50.4345 61.8322 50.3615 61.7983 50.2973 61.7511C50.233 61.704 50.1787 61.6445 50.1376 61.5763C50.0964 61.508 50.0693 61.4322 50.0576 61.3534C50.0459 61.2745 50.05 61.1942 50.0696 61.1169C50.0873 61.0392 50.1209 60.966 50.1683 60.902C50.2158 60.838 50.2761 60.7845 50.3453 60.7451C50.7012 60.5282 51.0852 60.3611 51.4864 60.2483C51.8589 60.1455 52.2446 60.0991 52.6307 60.1104C53.0096 60.1188 53.3857 60.177 53.7494 60.2835C54.1276 60.3942 54.4937 60.5424 54.8425 60.7259C54.9125 60.7614 54.9748 60.8106 55.0256 60.8705C55.0765 60.9304 55.1148 60.9999 55.1384 61.0748C55.162 61.1498 55.1703 61.2287 55.163 61.3069C55.1557 61.3852 55.1328 61.4611 55.0957 61.5304C55.0666 61.6064 55.0206 61.6747 54.9612 61.7303C54.9018 61.7858 54.8305 61.8271 54.7527 61.8509L54.7623 61.8381ZM82.0273 49.4237C81.5946 54.3568 78.4149 57.3314 73.0747 58.2064C73.251 52.0905 77.3282 50.35 82.0273 49.4237ZM69.1128 50.2667C69.4622 47.4491 69.9366 45.3208 72.7349 43.4777C74.7415 45.0804 75.7993 46.0163 76.2961 50.2987C74.8184 50.6513 73.501 52.2444 72.7189 54.6805C71.9656 52.2861 70.7508 50.834 69.1128 50.2667ZM77.293 49.9461L76.7545 47.4139C77.6648 46.635 79.2451 46.2087 80.8029 45.8112C80.7988 46.8019 80.7303 47.7912 80.5977 48.773C79.435 48.9692 78.3162 49.3696 77.293 49.9558V49.9461ZM68.132 49.9461L68.6705 47.4139C67.7634 46.635 66.1799 46.2087 64.6253 45.8112C64.6282 46.8018 64.6957 47.7911 64.8272 48.773C65.9899 48.9677 67.1088 49.3671 68.132 49.9526V49.9461ZM63.3624 49.4237C63.7919 54.3568 66.9716 57.3314 72.3118 58.2064C72.1355 52.0905 68.0679 50.35 63.3624 49.4237ZM56.7945 78.5927C56.7945 78.7594 56.7945 78.9132 56.7945 79.0959C56.7945 79.2786 56.7721 79.4966 56.7561 79.6985C56.7336 79.9742 56.692 80.2435 56.6439 80.5127C56.5958 80.782 56.5349 81.048 56.4644 81.3108C56.4146 81.4856 56.3 81.6347 56.1438 81.7275C56.0663 81.7733 55.9805 81.803 55.8913 81.8151C55.8022 81.8272 55.7115 81.8214 55.6246 81.7981C55.4501 81.7477 55.3013 81.6332 55.2079 81.4775C55.1622 81.4 55.1324 81.3142 55.1203 81.225C55.1082 81.1358 55.114 81.0452 55.1374 80.9583C55.2047 80.7275 55.2528 80.4967 55.2976 80.2659C55.3425 80.0351 55.3746 79.8043 55.3938 79.5735C55.3938 79.4517 55.413 79.3299 55.4194 79.2049V79.0062C55.1245 79.0895 54.8296 79.16 54.5412 79.2209C54.1854 79.3011 53.8296 79.3748 53.4866 79.4357C52.8102 79.5603 52.1256 79.6353 51.4383 79.6601C50.8621 79.6828 50.2851 79.6441 49.7171 79.5447C49.328 79.4775 48.9497 79.359 48.592 79.1921C48.2785 79.0449 47.9923 78.8455 47.7457 78.6023C47.4841 78.3401 47.2847 78.0224 47.1624 77.6727C47.039 77.3024 46.9922 76.911 47.0245 76.522C47.0492 76.1893 47.1105 75.8604 47.2072 75.5412C47.313 75.1859 47.447 74.8397 47.6079 74.5058C47.5726 74.3199 47.5342 74.1308 47.5021 73.9385C47.4701 73.7461 47.4348 73.525 47.4092 73.2974C47.3835 73.0698 47.3483 72.8102 47.329 72.5698C47.3098 72.3294 47.297 72.0857 47.2842 71.8325C47.2842 71.8101 47.2842 71.778 47.2842 71.7492C47.2457 71.3036 47.2169 70.8581 47.204 70.4221C47.1912 69.9862 47.1848 69.5375 47.1784 69.0983V68.9765C46.7489 68.9509 46.2937 68.9381 45.8706 68.8996C45.6954 68.8919 45.522 68.8618 45.3545 68.8098C45.1875 68.761 45.0287 68.6875 44.8833 68.5919C44.7493 68.4986 44.6257 68.3911 44.5147 68.2713C44.3009 68.0232 44.1522 67.7258 44.082 67.4059C44.0438 67.2387 44.0255 67.0677 44.0275 66.8962C44.0364 66.6238 44.0839 66.354 44.1685 66.0949C44.2657 65.817 44.3948 65.5513 44.5532 65.3031L46.018 62.2933C46.2714 61.8259 46.4796 61.3354 46.6399 60.8284C46.7079 60.5246 46.7263 60.2118 46.6944 59.9021C46.6944 59.5559 46.6623 59.1071 46.6944 58.4404C46.7042 58.0491 46.7341 57.6586 46.7841 57.2704C46.8264 56.8956 46.8939 56.524 46.9861 56.1582C47.0502 55.8953 47.1239 55.6421 47.2072 55.3889C47.2906 55.1357 47.3611 54.9786 47.4476 54.7863L44.8609 53.6644C44.7779 53.6288 44.7029 53.577 44.6401 53.5121C44.5774 53.4471 44.5282 53.3703 44.4955 53.2862C44.4607 53.2035 44.4427 53.1146 44.4427 53.0249C44.4427 52.9352 44.4607 52.8464 44.4955 52.7637L44.5275 52.6932L44.5628 52.6291C47.5534 48.5454 50.7588 45.84 53.9161 44.2534C57.1171 42.5775 60.791 42.0341 64.34 42.7116L64.7728 42.8045C64.9106 42.8334 65.0548 42.8751 65.2023 42.9103C65.23 42.9178 65.2546 42.934 65.2725 42.9565C65.2904 42.979 65.3006 43.0066 65.3016 43.0353V44.1829C65.3008 44.2166 65.2871 44.2487 65.2632 44.2726C65.2393 44.2965 65.2072 44.3103 65.1734 44.3111H65.1285L64.6093 44.1764C64.433 44.1348 64.2535 44.0963 64.0804 44.0643C60.8865 43.4555 57.5808 43.928 54.6854 45.4073C51.8326 46.8081 48.9413 49.1801 46.1879 52.7573C46.9989 53.1163 47.9669 53.4753 48.7522 53.8759C49.6344 54.1321 50.5668 54.163 51.464 53.9657C52.5266 53.7543 53.5756 53.4792 54.6053 53.1419C55.3842 52.9079 56.1406 52.6739 56.8651 52.5008C57.5481 52.3242 58.2496 52.2284 58.955 52.2156C58.9986 52.2093 59.0428 52.2093 59.0864 52.2156C59.1311 52.2205 59.1751 52.2302 59.2178 52.2444C59.3894 52.3015 59.5314 52.4244 59.6125 52.586C59.6937 52.7477 59.7073 52.9349 59.6505 53.1067C59.3321 53.9981 59.1631 54.936 59.1505 55.8825C59.1433 56.5929 59.3013 57.2952 59.6121 57.934C59.9213 58.5385 60.3447 59.0773 60.859 59.5206C61.4302 60.0204 62.0585 60.4508 62.7309 60.8028C62.8873 60.8908 63.0026 61.0372 63.0515 61.2099C63.0764 61.2962 63.0841 61.3865 63.0741 61.4758C63.0641 61.5651 63.0366 61.6515 62.9931 61.7301C62.9496 61.8087 62.8911 61.878 62.8208 61.9339C62.7505 61.9899 62.6698 62.0314 62.5835 62.0561C62.4979 62.0778 62.4087 62.0817 62.3215 62.0673C62.2344 62.053 62.1511 62.0208 62.077 61.9727C61.293 61.5589 60.5604 61.0543 59.8942 60.4694C59.2689 59.9209 58.7552 59.2571 58.3812 58.5141C58.0397 57.812 57.8393 57.0497 57.7914 56.2704C57.7435 55.3845 57.8343 54.4966 58.0607 53.6387C57.5994 53.7121 57.1425 53.8106 56.692 53.9336C56.1374 54.0843 55.5637 54.2542 54.9835 54.4337C53.9139 54.7864 52.8243 55.0754 51.7204 55.2991C50.7272 55.5109 49.7005 55.5109 48.7074 55.2991C48.6254 55.4688 48.5536 55.6433 48.4926 55.8216C48.4157 56.0364 48.358 56.2575 48.3003 56.4819C48.2232 56.7987 48.1654 57.1198 48.1272 57.4435C48.0855 57.7641 48.0567 58.1263 48.0438 58.4789C48.0246 59.0943 48.0438 59.5142 48.0438 59.838C48.0844 60.2549 48.0595 60.6756 47.9701 61.0849C47.7993 61.7205 47.5518 62.333 47.2329 62.9087L45.7552 65.9699L45.7231 66.0212C45.6247 66.1705 45.544 66.3307 45.4827 66.4988C45.4298 66.6349 45.4005 66.7791 45.3962 66.9251C45.395 66.9874 45.4004 67.0497 45.4122 67.111C45.423 67.1642 45.4402 67.2158 45.4635 67.2648C45.4821 67.3021 45.5059 67.3367 45.534 67.3674C45.5598 67.3953 45.5889 67.4201 45.6206 67.4411C45.6609 67.4669 45.7039 67.4884 45.7488 67.5052C45.8021 67.5203 45.8569 67.5289 45.9123 67.5309C46.4508 67.5309 47.0918 67.5982 47.6432 67.6303H47.7201H47.8259C48.3323 67.6303 48.951 67.7136 49.4638 67.7617C49.6451 67.7781 49.8129 67.8643 49.9318 68.0021C50.0486 68.1401 50.1062 68.3187 50.0921 68.4989C50.0873 68.5899 50.0642 68.6791 50.0242 68.761C49.9842 68.8429 49.9282 68.916 49.8594 68.9758C49.7906 69.0356 49.7105 69.081 49.6238 69.1092C49.5371 69.1374 49.4457 69.1479 49.3548 69.14L48.5407 69.0887V69.1111C48.5407 69.5086 48.5407 69.9029 48.5631 70.2971C48.5856 70.6914 48.592 71.028 48.624 71.403C48.7958 71.4799 48.9738 71.5421 49.1561 71.5889C49.3441 71.6471 49.5374 71.6868 49.7331 71.7075C49.946 71.7337 50.1613 71.7337 50.3742 71.7075C50.5869 71.6742 50.794 71.6116 50.9896 71.5216C51.0723 71.4868 51.1611 71.4688 51.2508 71.4688C51.3406 71.4688 51.4294 71.4868 51.5121 71.5216C51.5962 71.5543 51.673 71.6035 51.738 71.6662C51.8029 71.729 51.8547 71.804 51.8903 71.887C51.9261 71.9683 51.9445 72.0562 51.9445 72.145C51.9445 72.2339 51.9261 72.3218 51.8903 72.4031C51.8581 72.4879 51.8092 72.5654 51.7464 72.6309C51.6836 72.6965 51.6083 72.7487 51.5249 72.7845C51.2172 72.9186 50.8943 73.0144 50.5633 73.0698C50.2377 73.1206 49.9068 73.1281 49.5792 73.0922C49.4045 73.0754 49.2311 73.0476 49.0599 73.0089C48.9478 72.9833 48.8388 72.9512 48.7394 72.9191L48.7683 73.1628C48.7939 73.3679 48.8292 73.5859 48.8708 73.8038C48.9125 74.0218 48.9542 74.2398 48.999 74.4609C49.0134 74.5426 49.0134 74.6261 48.999 74.7078C48.9878 74.7912 48.9583 74.8711 48.9125 74.9417C48.7646 75.2331 48.6393 75.5352 48.5375 75.8457C48.458 76.0923 48.4064 76.3472 48.3836 76.6053C48.3695 76.8076 48.3923 77.0107 48.4509 77.2047C48.501 77.3722 48.5925 77.5244 48.717 77.6471C48.8645 77.7827 49.0349 77.8912 49.2202 77.9676C49.4578 78.0724 49.7076 78.1467 49.9639 78.1888C50.4476 78.271 50.9385 78.3021 51.4287 78.2818C52.0354 78.2584 52.6396 78.1909 53.2366 78.0798C53.8616 77.9676 54.5187 77.817 55.1983 77.6375C55.8041 77.4676 56.4099 77.2753 56.9997 77.0477C57.5038 76.8533 57.9952 76.6274 58.471 76.3713C58.8739 76.1564 59.2578 75.9077 59.6185 75.6277C59.9428 75.3497 60.2068 75.0083 60.3942 74.6244C60.5789 74.2398 60.7384 73.8437 60.8718 73.4384L61.0064 73.0538L61.0866 72.8358C61.2884 72.255 61.5195 71.6848 61.7789 71.1273C62.0133 70.5605 62.3689 70.0517 62.8207 69.6368C62.8916 69.5814 62.9731 69.5411 63.0602 69.5185C63.1474 69.4959 63.2382 69.4915 63.3271 69.5054C63.4167 69.5165 63.5032 69.5454 63.5814 69.5906C63.6596 69.6357 63.7279 69.6961 63.7823 69.7683C63.8374 69.8396 63.8779 69.9213 63.9013 70.0084C63.9247 70.0955 63.9306 70.1864 63.9187 70.2758C63.9068 70.3652 63.8772 70.4514 63.8318 70.5293C63.7864 70.6072 63.726 70.6754 63.6541 70.7299C63.3468 71.0483 63.1069 71.4256 62.9489 71.8389C62.7213 72.3454 62.5162 72.9031 62.3655 73.3166C62.2886 73.5057 62.2245 73.7077 62.1572 73.9C61.9938 74.3993 61.7934 74.8857 61.5577 75.3552C61.2914 75.8781 60.9217 76.3416 60.4711 76.7175C60.0564 77.0422 59.6146 77.3307 59.1505 77.5798C58.6127 77.8603 58.0582 78.1075 57.4901 78.3202C57.3651 78.3715 57.2273 78.4164 57.0926 78.4709L56.7945 78.5767V78.5927ZM76.0621 67.3097C74.6453 69.624 72.4913 71.762 69.4622 73.5346C69.4222 73.5581 69.3804 73.5784 69.3372 73.5955H69.318C69.318 73.9972 69.3308 74.3947 69.3565 74.7879C69.3821 75.2078 69.4238 75.6245 69.4718 76.038C69.5648 76.8259 69.7061 77.6073 69.895 78.3779C70.0797 79.1193 70.3077 79.8492 70.5777 80.564C70.6453 80.7316 70.6453 80.9189 70.5777 81.0865C70.5403 81.1683 70.4871 81.2419 70.4211 81.3029C70.355 81.364 70.2775 81.4114 70.1931 81.4423C70.1104 81.4773 70.0216 81.4953 69.9318 81.4953C69.8421 81.4953 69.7532 81.4773 69.6706 81.4423C69.5882 81.4058 69.5141 81.3529 69.4529 81.2867C69.3917 81.2206 69.3447 81.1426 69.3148 81.0576C68.7253 79.4948 68.327 77.8664 68.1288 76.2079C68.0203 75.3316 67.9646 74.4496 67.9621 73.5666C67.9583 72.6267 68.0043 71.6873 68.0999 70.7523C68.1086 70.6633 68.1349 70.577 68.1772 70.4983C68.2196 70.4196 68.2772 70.3501 68.3468 70.2939C68.4869 70.1792 68.6664 70.124 68.8468 70.1401C69.0264 70.1603 69.1908 70.2502 69.3048 70.3905C69.4187 70.5308 69.4729 70.7102 69.4558 70.8901C69.4366 71.1113 69.4174 71.3389 69.3949 71.5729L69.35 71.9928C71.6351 70.6234 73.5586 68.7262 74.9595 66.4603C76.3314 64.1524 76.9115 62.1811 76.841 59.729C76.8402 59.6947 76.8527 59.6614 76.8761 59.6362C76.8995 59.611 76.9317 59.596 76.966 59.5944H78.0751C78.11 59.5944 78.1434 59.6082 78.168 59.6328C78.1927 59.6575 78.2065 59.6909 78.2065 59.7258C78.2835 62.5786 77.5334 64.8736 76.0557 67.2905L76.0621 67.3097ZM66.1254 63.6267C66.1452 63.7987 66.099 63.9718 65.996 64.111C65.8931 64.2501 65.7411 64.345 65.5709 64.3764C65.4006 64.4077 65.2248 64.3732 65.079 64.2799C64.9332 64.1865 64.8283 64.0413 64.7856 63.8735C64.7546 63.6871 64.7407 63.4983 64.7439 63.3094C64.7519 63.1259 64.782 62.944 64.8337 62.7677C64.9737 62.2969 65.2477 61.8771 65.6222 61.5593C65.8024 61.4044 66.003 61.2749 66.2184 61.1746C66.4339 61.0714 66.6626 60.9981 66.8979 60.9566C67.1005 60.9172 67.3073 60.9032 67.5134 60.915C67.7194 60.9237 67.9237 60.956 68.1224 61.0111C68.5737 61.1195 68.9905 61.34 69.334 61.6522C69.6 61.9142 69.7685 62.2591 69.8116 62.6299C69.8505 62.9603 69.8211 63.2953 69.7251 63.6139C69.624 63.9631 69.491 64.3021 69.3276 64.6268C69.1866 64.9249 68.8404 65.6429 68.3948 66.4635C67.9491 67.3167 67.4368 68.1334 66.8627 68.906C66.0773 69.9157 65.2952 70.6017 64.6574 70.5087C64.0195 70.4157 63.5419 69.5086 63.4265 67.3674C63.4169 67.277 63.4257 67.1856 63.4521 67.0986C63.4785 67.0116 63.5221 66.9308 63.5803 66.861C63.7015 66.7318 63.8682 66.6548 64.0451 66.6462C64.2221 66.6445 64.3934 66.7084 64.5259 66.8257C64.5932 66.8857 64.6477 66.9586 64.6863 67.0401C64.7248 67.1216 64.7466 67.21 64.7503 67.3001C64.792 68.1271 64.9266 68.4861 65.0965 68.547C65.2664 68.6079 65.4843 68.3931 65.7376 68.0694C66.2707 67.3485 66.7476 66.5876 67.164 65.7936C67.5807 65.0179 67.914 64.3351 68.0487 64.0466C68.1618 63.82 68.2583 63.5854 68.3371 63.3447C68.3977 63.1786 68.4239 63.0019 68.4141 62.8254C68.395 62.7262 68.3374 62.6385 68.2538 62.5818C68.1011 62.4698 67.9296 62.3862 67.7473 62.335C67.6424 62.3089 67.5349 62.2949 67.4268 62.2933C67.3196 62.2873 67.212 62.2938 67.1063 62.3125C66.9886 62.3333 66.8743 62.3699 66.7665 62.4215C66.6588 62.4722 66.5577 62.5357 66.4652 62.6106C66.3824 62.6834 66.3092 62.7663 66.2472 62.8574C66.1872 62.9449 66.1437 63.0427 66.119 63.1459C66.0964 63.2242 66.0834 63.3049 66.0805 63.3863C66.0663 63.4691 66.0663 63.5536 66.0805 63.6363L66.1254 63.6267Z" fill="#3F3E8F"/>
<path d="M54.7623 61.8381C54.6098 61.8834 54.4458 61.8685 54.304 61.7965C53.8155 61.4985 53.2691 61.3084 52.7013 61.2387C52.0813 61.2366 51.4757 61.4257 50.9672 61.7804C50.8997 61.8216 50.8247 61.849 50.7466 61.8612C50.6685 61.8733 50.5888 61.8698 50.512 61.8509C50.4345 61.8322 50.3615 61.7983 50.2973 61.7511C50.233 61.704 50.1787 61.6445 50.1376 61.5763C50.0964 61.508 50.0693 61.4322 50.0576 61.3534C50.0459 61.2745 50.05 61.1942 50.0696 61.1169C50.0873 61.0392 50.1209 60.966 50.1683 60.902C50.2158 60.838 50.2761 60.7845 50.3453 60.7451C50.7012 60.5282 51.0852 60.3611 51.4864 60.2483C51.8589 60.1455 52.2446 60.0991 52.6307 60.1104C53.0096 60.1188 53.3857 60.177 53.7494 60.2835C54.1276 60.3942 54.4937 60.5424 54.8425 60.7259C54.9125 60.7614 54.9748 60.8106 55.0256 60.8705C55.0765 60.9304 55.1148 60.9999 55.1384 61.0748C55.162 61.1498 55.1703 61.2287 55.163 61.3069C55.1557 61.3852 55.1328 61.4611 55.0957 61.5304C55.0666 61.6064 55.0206 61.6747 54.9612 61.7303C54.9018 61.7858 54.8305 61.8271 54.7527 61.8509L54.7623 61.8381ZM82.0273 49.4237C81.5946 54.3568 78.4149 57.3314 73.0747 58.2064C73.251 52.0905 77.3282 50.35 82.0273 49.4237ZM69.1128 50.2667C69.4622 47.4491 69.9366 45.3208 72.7349 43.4777C74.7415 45.0804 75.7993 46.0163 76.2961 50.2987C74.8184 50.6513 73.501 52.2444 72.7189 54.6805C71.9656 52.2861 70.7508 50.834 69.1128 50.2667ZM77.293 49.9461L76.7545 47.4139C77.6648 46.635 79.2451 46.2087 80.8029 45.8112C80.7988 46.8019 80.7303 47.7912 80.5977 48.773C79.435 48.9692 78.3162 49.3696 77.293 49.9558V49.9461ZM68.132 49.9461L68.6705 47.4139C67.7634 46.635 66.1799 46.2087 64.6253 45.8112C64.6282 46.8018 64.6957 47.7911 64.8272 48.773C65.9899 48.9677 67.1088 49.3671 68.132 49.9526V49.9461ZM63.3624 49.4237C63.7919 54.3568 66.9716 57.3314 72.3118 58.2064C72.1355 52.0905 68.0679 50.35 63.3624 49.4237ZM56.7945 78.5927C56.7945 78.7594 56.7945 78.9132 56.7945 79.0959C56.7945 79.2786 56.7721 79.4966 56.7561 79.6985C56.7336 79.9742 56.692 80.2435 56.6439 80.5127C56.5958 80.782 56.5349 81.048 56.4644 81.3108C56.4146 81.4856 56.3 81.6347 56.1438 81.7275C56.0663 81.7733 55.9805 81.803 55.8913 81.8151C55.8022 81.8272 55.7115 81.8214 55.6246 81.7981C55.4501 81.7477 55.3013 81.6332 55.2079 81.4775C55.1622 81.4 55.1324 81.3142 55.1203 81.225C55.1082 81.1358 55.114 81.0452 55.1374 80.9583C55.2047 80.7275 55.2528 80.4967 55.2976 80.2659C55.3425 80.0351 55.3746 79.8043 55.3938 79.5735C55.3938 79.4517 55.413 79.3299 55.4194 79.2049V79.0062C55.1245 79.0895 54.8296 79.16 54.5412 79.2209C54.1854 79.3011 53.8296 79.3748 53.4866 79.4357C52.8102 79.5603 52.1256 79.6353 51.4383 79.6601C50.8621 79.6828 50.2851 79.6441 49.7171 79.5447C49.328 79.4775 48.9497 79.359 48.592 79.1921C48.2785 79.0449 47.9923 78.8455 47.7457 78.6023C47.4841 78.3401 47.2847 78.0224 47.1624 77.6727C47.039 77.3024 46.9922 76.911 47.0245 76.522C47.0492 76.1893 47.1105 75.8604 47.2072 75.5412C47.313 75.1859 47.447 74.8397 47.6079 74.5058C47.5726 74.3199 47.5342 74.1308 47.5021 73.9385C47.4701 73.7461 47.4348 73.525 47.4092 73.2974C47.3835 73.0698 47.3483 72.8102 47.329 72.5698C47.3098 72.3294 47.297 72.0857 47.2842 71.8325C47.2842 71.8101 47.2842 71.778 47.2842 71.7492C47.2457 71.3036 47.2169 70.8581 47.204 70.4221C47.1912 69.9862 47.1848 69.5375 47.1784 69.0983V68.9765C46.7489 68.9509 46.2937 68.9381 45.8706 68.8996C45.6954 68.8919 45.522 68.8618 45.3545 68.8098C45.1875 68.761 45.0287 68.6875 44.8833 68.5919C44.7493 68.4986 44.6257 68.3911 44.5147 68.2713C44.3009 68.0232 44.1522 67.7258 44.082 67.4059C44.0438 67.2387 44.0255 67.0677 44.0275 66.8962C44.0364 66.6238 44.0839 66.354 44.1685 66.0949C44.2657 65.817 44.3948 65.5513 44.5532 65.3031L46.018 62.2933C46.2714 61.8259 46.4796 61.3354 46.6399 60.8284C46.7079 60.5246 46.7263 60.2118 46.6944 59.9021C46.6944 59.5559 46.6623 59.1071 46.6944 58.4404C46.7042 58.0491 46.7341 57.6586 46.7841 57.2704C46.8264 56.8956 46.8939 56.524 46.9861 56.1582C47.0502 55.8953 47.1239 55.6421 47.2072 55.3889C47.2906 55.1357 47.3611 54.9786 47.4476 54.7863L44.8609 53.6644C44.7779 53.6288 44.7029 53.577 44.6401 53.5121C44.5774 53.4471 44.5282 53.3703 44.4955 53.2862C44.4607 53.2035 44.4427 53.1146 44.4427 53.0249C44.4427 52.9352 44.4607 52.8464 44.4955 52.7637L44.5275 52.6932L44.5628 52.6291C47.5534 48.5454 50.7588 45.84 53.9161 44.2534C57.1171 42.5775 60.791 42.0341 64.34 42.7116L64.7728 42.8045C64.9106 42.8334 65.0548 42.8751 65.2023 42.9103C65.23 42.9178 65.2546 42.934 65.2725 42.9565C65.2904 42.979 65.3006 43.0066 65.3016 43.0353V44.1829C65.3008 44.2166 65.2871 44.2487 65.2632 44.2726C65.2393 44.2965 65.2072 44.3103 65.1734 44.3111H65.1285L64.6093 44.1764C64.433 44.1348 64.2535 44.0963 64.0804 44.0643C60.8865 43.4555 57.5808 43.928 54.6854 45.4073C51.8326 46.8081 48.9413 49.1801 46.1879 52.7573C46.9989 53.1163 47.9669 53.4753 48.7522 53.8759C49.6344 54.1321 50.5668 54.163 51.464 53.9657C52.5266 53.7543 53.5756 53.4792 54.6053 53.1419C55.3842 52.9079 56.1406 52.6739 56.8651 52.5008C57.5481 52.3242 58.2496 52.2284 58.955 52.2156C58.9986 52.2093 59.0428 52.2093 59.0864 52.2156C59.1311 52.2205 59.1751 52.2302 59.2178 52.2444C59.3894 52.3015 59.5314 52.4244 59.6125 52.586C59.6937 52.7477 59.7073 52.9349 59.6505 53.1067C59.3321 53.9981 59.1631 54.936 59.1505 55.8825C59.1433 56.5929 59.3013 57.2952 59.6121 57.934C59.9213 58.5385 60.3447 59.0773 60.859 59.5206C61.4302 60.0204 62.0585 60.4508 62.7309 60.8028C62.8873 60.8908 63.0026 61.0372 63.0515 61.2099C63.0764 61.2962 63.0841 61.3865 63.0741 61.4758C63.0641 61.5651 63.0366 61.6515 62.9931 61.7301C62.9496 61.8087 62.8911 61.878 62.8208 61.9339C62.7505 61.9899 62.6698 62.0314 62.5835 62.0561C62.4979 62.0778 62.4087 62.0817 62.3215 62.0673C62.2344 62.053 62.1511 62.0208 62.077 61.9727C61.293 61.5589 60.5604 61.0543 59.8942 60.4694C59.2689 59.9209 58.7552 59.2571 58.3812 58.5141C58.0397 57.812 57.8393 57.0497 57.7914 56.2704C57.7435 55.3845 57.8343 54.4966 58.0607 53.6387C57.5994 53.7121 57.1425 53.8106 56.692 53.9336C56.1374 54.0843 55.5637 54.2542 54.9835 54.4337C53.9139 54.7864 52.8243 55.0754 51.7204 55.2991C50.7272 55.5109 49.7005 55.5109 48.7074 55.2991C48.6254 55.4688 48.5536 55.6433 48.4926 55.8216C48.4157 56.0364 48.358 56.2575 48.3003 56.4819C48.2232 56.7987 48.1654 57.1198 48.1272 57.4435C48.0855 57.7641 48.0567 58.1263 48.0438 58.4789C48.0246 59.0943 48.0438 59.5142 48.0438 59.838C48.0844 60.2549 48.0595 60.6756 47.9701 61.0849C47.7993 61.7205 47.5518 62.333 47.2329 62.9087L45.7552 65.9699L45.7231 66.0212C45.6247 66.1705 45.544 66.3307 45.4827 66.4988C45.4298 66.6349 45.4005 66.7791 45.3962 66.9251C45.395 66.9874 45.4004 67.0497 45.4122 67.111C45.423 67.1642 45.4402 67.2158 45.4635 67.2648C45.4821 67.3021 45.5059 67.3367 45.534 67.3674C45.5598 67.3953 45.5889 67.4201 45.6206 67.4411C45.6609 67.4669 45.7039 67.4884 45.7488 67.5052C45.8021 67.5203 45.8569 67.5289 45.9123 67.5309C46.4508 67.5309 47.0918 67.5982 47.6432 67.6303H47.7201H47.8259C48.3323 67.6303 48.951 67.7136 49.4638 67.7617C49.6451 67.7781 49.8129 67.8643 49.9318 68.0021C50.0486 68.1401 50.1062 68.3187 50.0921 68.4989C50.0873 68.5899 50.0642 68.6791 50.0242 68.761C49.9842 68.8429 49.9282 68.916 49.8594 68.9758C49.7906 69.0356 49.7105 69.081 49.6238 69.1092C49.5371 69.1374 49.4457 69.1479 49.3548 69.14L48.5407 69.0887V69.1111C48.5407 69.5086 48.5407 69.9029 48.5631 70.2971C48.5856 70.6914 48.592 71.028 48.624 71.403C48.7958 71.4799 48.9738 71.5421 49.1561 71.5889C49.3441 71.6471 49.5374 71.6868 49.7331 71.7075C49.946 71.7337 50.1613 71.7337 50.3742 71.7075C50.5869 71.6742 50.794 71.6116 50.9896 71.5216C51.0723 71.4868 51.1611 71.4688 51.2508 71.4688C51.3406 71.4688 51.4294 71.4868 51.5121 71.5216C51.5962 71.5543 51.673 71.6035 51.738 71.6662C51.8029 71.729 51.8547 71.804 51.8903 71.887C51.9261 71.9683 51.9445 72.0562 51.9445 72.145C51.9445 72.2339 51.9261 72.3218 51.8903 72.4031C51.8581 72.4879 51.8092 72.5654 51.7464 72.6309C51.6836 72.6965 51.6083 72.7487 51.5249 72.7845C51.2172 72.9186 50.8943 73.0144 50.5633 73.0698C50.2377 73.1206 49.9068 73.1281 49.5792 73.0922C49.4045 73.0754 49.2311 73.0476 49.0599 73.0089C48.9478 72.9833 48.8388 72.9512 48.7394 72.9191L48.7683 73.1628C48.7939 73.3679 48.8292 73.5859 48.8708 73.8038C48.9125 74.0218 48.9542 74.2398 48.999 74.4609C49.0134 74.5426 49.0134 74.6261 48.999 74.7078C48.9878 74.7912 48.9583 74.8711 48.9125 74.9417C48.7646 75.2331 48.6393 75.5352 48.5375 75.8457C48.458 76.0923 48.4064 76.3472 48.3836 76.6053C48.3695 76.8076 48.3923 77.0107 48.4509 77.2047C48.501 77.3722 48.5925 77.5244 48.717 77.6471C48.8645 77.7827 49.0349 77.8912 49.2202 77.9676C49.4578 78.0724 49.7076 78.1467 49.9639 78.1888C50.4476 78.271 50.9385 78.3021 51.4287 78.2818C52.0354 78.2584 52.6396 78.1909 53.2366 78.0798C53.8616 77.9676 54.5187 77.817 55.1983 77.6375C55.8041 77.4676 56.4099 77.2753 56.9997 77.0477C57.5038 76.8533 57.9952 76.6274 58.471 76.3713C58.8739 76.1564 59.2578 75.9077 59.6185 75.6277C59.9428 75.3497 60.2068 75.0083 60.3942 74.6244C60.5789 74.2398 60.7384 73.8437 60.8718 73.4384L61.0064 73.0538L61.0866 72.8358C61.2884 72.255 61.5195 71.6848 61.7789 71.1273C62.0133 70.5605 62.3689 70.0517 62.8207 69.6368C62.8916 69.5814 62.9731 69.5411 63.0602 69.5185C63.1474 69.4959 63.2382 69.4915 63.3271 69.5054C63.4167 69.5165 63.5032 69.5454 63.5814 69.5906C63.6596 69.6357 63.7279 69.6961 63.7823 69.7683C63.8374 69.8396 63.8779 69.9213 63.9013 70.0084C63.9247 70.0955 63.9306 70.1864 63.9187 70.2758C63.9068 70.3652 63.8772 70.4514 63.8318 70.5293C63.7864 70.6072 63.726 70.6754 63.6541 70.7299C63.3468 71.0483 63.1069 71.4256 62.9489 71.8389C62.7213 72.3454 62.5162 72.9031 62.3655 73.3166C62.2886 73.5057 62.2245 73.7077 62.1572 73.9C61.9938 74.3993 61.7934 74.8857 61.5577 75.3552C61.2914 75.8781 60.9217 76.3416 60.4711 76.7175C60.0564 77.0422 59.6146 77.3307 59.1505 77.5798C58.6127 77.8603 58.0582 78.1075 57.4901 78.3202C57.3651 78.3715 57.2273 78.4164 57.0926 78.4709L56.7945 78.5767V78.5927ZM76.0621 67.3097C74.6453 69.624 72.4913 71.762 69.4622 73.5346C69.4222 73.5581 69.3804 73.5784 69.3372 73.5955H69.318C69.318 73.9972 69.3308 74.3947 69.3565 74.7879C69.3821 75.2078 69.4238 75.6245 69.4718 76.038C69.5648 76.8259 69.7061 77.6073 69.895 78.3779C70.0797 79.1193 70.3077 79.8492 70.5777 80.564C70.6453 80.7316 70.6453 80.9189 70.5777 81.0865C70.5403 81.1683 70.4871 81.2419 70.4211 81.3029C70.355 81.364 70.2775 81.4114 70.1931 81.4423C70.1104 81.4773 70.0216 81.4953 69.9318 81.4953C69.8421 81.4953 69.7532 81.4773 69.6706 81.4423C69.5882 81.4058 69.5141 81.3529 69.4529 81.2867C69.3917 81.2206 69.3447 81.1426 69.3148 81.0576C68.7253 79.4948 68.327 77.8664 68.1288 76.2079C68.0203 75.3316 67.9646 74.4496 67.9621 73.5666C67.9583 72.6267 68.0043 71.6873 68.0999 70.7523C68.1086 70.6633 68.1349 70.577 68.1772 70.4983C68.2196 70.4196 68.2772 70.3501 68.3468 70.2939C68.4869 70.1792 68.6664 70.124 68.8468 70.1401C69.0264 70.1603 69.1908 70.2502 69.3048 70.3905C69.4187 70.5308 69.4729 70.7102 69.4558 70.8901C69.4366 71.1113 69.4174 71.3389 69.3949 71.5729L69.35 71.9928C71.6351 70.6234 73.5586 68.7262 74.9595 66.4603C76.3314 64.1524 76.9115 62.1811 76.841 59.729C76.8402 59.6947 76.8527 59.6614 76.8761 59.6362C76.8995 59.611 76.9317 59.596 76.966 59.5944H78.0751C78.11 59.5944 78.1434 59.6082 78.168 59.6328C78.1927 59.6575 78.2065 59.6909 78.2065 59.7258C78.2835 62.5786 77.5334 64.8736 76.0557 67.2905L76.0621 67.3097ZM66.1254 63.6267C66.1452 63.7987 66.099 63.9718 65.996 64.111C65.8931 64.2501 65.7411 64.345 65.5709 64.3764C65.4006 64.4077 65.2248 64.3732 65.079 64.2799C64.9332 64.1865 64.8283 64.0413 64.7856 63.8735C64.7546 63.6871 64.7407 63.4983 64.7439 63.3094C64.7519 63.1259 64.782 62.944 64.8337 62.7677C64.9737 62.2969 65.2477 61.8771 65.6222 61.5593C65.8024 61.4044 66.003 61.2749 66.2184 61.1746C66.4339 61.0714 66.6626 60.9981 66.8979 60.9566C67.1005 60.9172 67.3073 60.9032 67.5134 60.915C67.7194 60.9237 67.9237 60.956 68.1224 61.0111C68.5737 61.1195 68.9905 61.34 69.334 61.6522C69.6 61.9142 69.7685 62.2591 69.8116 62.6299C69.8505 62.9603 69.8211 63.2953 69.7251 63.6139C69.624 63.9631 69.491 64.3021 69.3276 64.6268C69.1866 64.9249 68.8404 65.6429 68.3948 66.4635C67.9491 67.3167 67.4368 68.1334 66.8627 68.906C66.0773 69.9157 65.2952 70.6017 64.6574 70.5087C64.0195 70.4157 63.5419 69.5086 63.4265 67.3674C63.4169 67.277 63.4257 67.1856 63.4521 67.0986C63.4785 67.0116 63.5221 66.9308 63.5803 66.861C63.7015 66.7318 63.8682 66.6548 64.0451 66.6462C64.2221 66.6445 64.3934 66.7084 64.5259 66.8257C64.5932 66.8857 64.6477 66.9586 64.6863 67.0401C64.7248 67.1216 64.7466 67.21 64.7503 67.3001C64.792 68.1271 64.9266 68.4861 65.0965 68.547C65.2664 68.6079 65.4843 68.3931 65.7376 68.0694C66.2707 67.3485 66.7476 66.5876 67.164 65.7936C67.5807 65.0179 67.914 64.3351 68.0487 64.0466C68.1618 63.82 68.2583 63.5854 68.3371 63.3447C68.3977 63.1786 68.4239 63.0019 68.4141 62.8254C68.395 62.7262 68.3374 62.6385 68.2538 62.5818C68.1011 62.4698 67.9296 62.3862 67.7473 62.335C67.6424 62.3089 67.5349 62.2949 67.4268 62.2933C67.3196 62.2873 67.212 62.2938 67.1063 62.3125C66.9886 62.3333 66.8743 62.3699 66.7665 62.4215C66.6588 62.4722 66.5577 62.5357 66.4652 62.6106C66.3824 62.6834 66.3092 62.7663 66.2472 62.8574C66.1872 62.9449 66.1437 63.0427 66.119 63.1459C66.0964 63.2242 66.0834 63.3049 66.0805 63.3863C66.0663 63.4691 66.0663 63.5536 66.0805 63.6363L66.1254 63.6267Z" stroke="#3F3E8F" stroke-width="0.8" mask="url(#path-2-outside-1_3365_80962)"/>
<defs>
<filter id="filter0_d_3365_80962" x="0.986988" y="0.387379" width="123.081" height="123.081" filterUnits="userSpaceOnUse" color-interpolation-filters="sRGB">
<feFlood flood-opacity="0" result="BackgroundImageFix"/>
<feColorMatrix in="SourceAlpha" type="matrix" values="0 0 0 0 0 0 0 0 0 0 0 0 0 0 0 0 0 0 127 0" result="hardAlpha"/>
<feOffset/>
<feGaussianBlur stdDeviation="14.5202"/>
<feComposite in2="hardAlpha" operator="out"/>
<feColorMatrix type="matrix" values="0 0 0 0 0 0 0 0 0 0 0 0 0 0 0 0 0 0 0.14 0"/>
<feBlend mode="normal" in2="BackgroundImageFix" result="effect1_dropShadow_3365_80962"/>
<feBlend mode="normal" in="SourceGraphic" in2="effect1_dropShadow_3365_80962" result="shape"/>
</filter>
<linearGradient id="paint0_linear_3365_80962" x1="46.7905" y1="37.2962" x2="78.9484" y2="88.2698" gradientUnits="userSpaceOnUse">
<stop offset="0.104167" stop-color="#FFFCF3" stop-opacity="0"/>
<stop offset="0.828125" stop-color="#2825FE" stop-opacity="0.2"/>
</linearGradient>
</defs>
</svg>
