<svg width="24" height="22" viewBox="0 0 24 22" fill="none" xmlns="http://www.w3.org/2000/svg">
<path d="M23.0819 12.7241L17.229 18.423C16.5493 19.1124 15.5297 19.5995 14.4536 19.5995H10.0544C9.49747 19.5995 8.99714 19.8109 8.62897 20.1694L7.16574 21.5114H0.500977L6.91086 15.1875L6.90142 15.1783C7.58111 14.5165 8.53457 14.1029 9.58243 14.0937H15.9073C16.5776 14.0937 17.1157 14.6176 17.1157 15.2702C17.1157 15.9228 16.5776 16.4468 15.9073 16.4468H10.8097C10.5925 16.4284 10.4132 16.603 10.4132 16.8328C10.4132 17.0626 10.5925 17.2281 10.8191 17.2281H15.8885C16.4266 17.2464 16.9363 17.0258 17.3139 16.6582C17.6915 16.2905 17.8992 15.785 17.8992 15.2702C17.9181 15.0312 17.852 14.7739 17.7671 14.5533L21.3638 11.0512C21.8452 10.5824 22.6004 10.5824 23.0724 11.0328C23.5633 11.5016 23.5539 12.2645 23.0819 12.7241ZM6.44829 6.80462C6.44829 3.38528 9.26146 0.609375 12.7732 0.609375C16.285 0.609375 19.117 3.3669 19.117 6.78623C19.117 10.2056 16.2755 12.9631 12.7826 12.9631C9.28978 12.9631 6.44829 10.2056 6.44829 6.80462ZM13.6134 8.22934C13.6134 8.65216 13.2547 8.96468 12.5278 8.96468C11.8481 8.96468 11.2156 8.73489 10.8097 8.54186L10.4887 9.79194C10.8569 9.99416 11.6215 10.1872 12.3767 10.1872V11.1247H13.2547V10.1596C14.5385 9.88385 15.1427 9.13932 15.1427 8.17419C15.1427 7.20905 14.5857 6.61159 13.3868 6.18877C12.5183 5.83948 12.1124 5.67403 12.1124 5.24202C12.1124 4.9295 12.4617 4.61698 13.1036 4.61698C13.7455 4.61698 14.2176 4.81001 14.5102 4.9295L14.8689 3.707C14.4819 3.50478 13.9532 3.35771 13.2263 3.35771V2.40177H12.3484V3.42205C11.1778 3.65185 10.5359 4.38719 10.5359 5.33394C10.5359 6.35422 11.2628 6.92411 12.4239 7.31936C13.2641 7.63188 13.6134 7.80652 13.6134 8.22934Z" fill="#3F3E8F"/>
</svg>
