<svg width="137" height="137" viewBox="0 0 137 137" fill="none" xmlns="http://www.w3.org/2000/svg">
<path d="M68.0254 51C64.6631 51 61.3763 51.997 58.5807 53.865C55.7851 55.733 53.6061 58.388 52.3194 61.4944C51.0328 64.6007 50.6961 68.0189 51.352 71.3165C52.008 74.6142 53.6271 77.6433 56.0046 80.0208C58.3821 82.3983 61.4112 84.0174 64.7089 84.6734C68.0065 85.3293 71.4247 84.9926 74.531 83.706C77.6374 82.4193 80.2924 80.2403 82.1604 77.4447C84.0284 74.6491 85.0254 71.3623 85.0254 68C85.0272 65.767 84.5888 63.5556 83.7351 61.4922C82.8814 59.4288 81.6293 57.554 80.0503 55.9751C78.4714 54.3961 76.5966 53.144 74.5332 52.2903C72.4698 51.4366 70.2584 50.9982 68.0254 51ZM68.0254 81C65.4542 81 62.9408 80.2376 60.803 78.8091C58.6651 77.3807 56.9989 75.3503 56.015 72.9749C55.031 70.5994 54.7736 67.9856 55.2752 65.4638C55.7768 62.9421 57.0149 60.6257 58.833 58.8076C60.6511 56.9895 62.9675 55.7514 65.4892 55.2498C68.011 54.7482 70.6248 55.0056 73.0003 55.9896C75.3757 56.9735 77.406 58.6398 78.8345 60.7776C80.263 62.9154 81.0254 65.4288 81.0254 68C81.0288 69.7082 80.6949 71.4002 80.0428 72.9789C79.3907 74.5577 78.4333 75.9922 77.2254 77.2C76.0176 78.4079 74.5831 79.3653 73.0043 80.0174C71.4256 80.6695 69.7335 81.0034 68.0254 81ZM73.0254 62.7L67.2254 69.7L63.2254 66.8C62.3254 66.1 61.1254 66.3 60.4254 67.2C59.7254 68.1 59.9254 69.3 60.8254 70C62.0254 70.9 63.3254 71.8 64.5254 72.7C65.4254 73.3 66.2254 74.2 67.3254 74.3C67.6254 74.3 68.0254 74.3 68.3254 74.1L68.9254 73.5L73.4254 68.1C74.2254 67.1 75.0254 66.2 75.8254 65.2C76.4254 64.4 76.6254 63.4 75.9254 62.6L75.6254 62.3C74.9254 61.8 73.7254 61.9 73.0254 62.7Z" fill="#3F3E8F"/>
<g filter="url(#filter0_d_8827_71526)">
<circle cx="68.5254" cy="68.5" r="32.5" fill="url(#paint0_linear_8827_71526)" shape-rendering="crispEdges"/>
</g>
<defs>
<filter id="filter0_d_8827_71526" x="0.656971" y="0.63158" width="135.737" height="135.737" filterUnits="userSpaceOnUse" color-interpolation-filters="sRGB">
<feFlood flood-opacity="0" result="BackgroundImageFix"/>
<feColorMatrix in="SourceAlpha" type="matrix" values="0 0 0 0 0 0 0 0 0 0 0 0 0 0 0 0 0 0 127 0" result="hardAlpha"/>
<feOffset/>
<feGaussianBlur stdDeviation="17.6842"/>
<feComposite in2="hardAlpha" operator="out"/>
<feColorMatrix type="matrix" values="0 0 0 0 0 0 0 0 0 0 0 0 0 0 0 0 0 0 0.14 0"/>
<feBlend mode="normal" in2="BackgroundImageFix" result="effect1_dropShadow_8827_71526"/>
<feBlend mode="normal" in="SourceGraphic" in2="effect1_dropShadow_8827_71526" result="shape"/>
</filter>
<linearGradient id="paint0_linear_8827_71526" x1="52.7885" y1="43.8684" x2="84.9464" y2="94.8421" gradientUnits="userSpaceOnUse">
<stop stop-color="#FFFCF3" stop-opacity="0.01"/>
<stop offset="0.828125" stop-color="#2825FE" stop-opacity="0.2"/>
<stop offset="1" stop-color="#2825FE" stop-opacity="0.31"/>
</linearGradient>
</defs>
</svg>
