<svg xmlns="http://www.w3.org/2000/svg" width="27" height="41" viewBox="0 0 27 41" fill="none">
  <path d="M22.7197 0H4.78223C2.66816 0 0.938477 1.72969 0.938477 3.84375V37.1562C0.938477 39.2703 2.66816 41 4.78223 41H22.7197C24.8338 41 26.5635 39.2703 26.5635 37.1562V3.84375C26.5635 1.72969 24.8338 0 22.7197 0ZM8.62598 1.92188H18.876V3.20312H8.62598V1.92188ZM13.751 38.4375C13.0714 38.4375 12.4196 38.1675 11.939 37.687C11.4585 37.2064 11.1885 36.5546 11.1885 35.875C11.1885 35.1954 11.4585 34.5436 11.939 34.063C12.4196 33.5825 13.0714 33.3125 13.751 33.3125C14.4306 33.3125 15.0824 33.5825 15.5629 34.063C16.0435 34.5436 16.3135 35.1954 16.3135 35.875C16.3135 36.5546 16.0435 37.2064 15.5629 37.687C15.0824 38.1675 14.4306 38.4375 13.751 38.4375ZM24.001 30.75H3.50098V5.125H24.001V30.75Z" fill="#3F3E8F"/>
</svg>