<svg width="22" height="23" viewBox="0 0 22 23" fill="none" xmlns="http://www.w3.org/2000/svg">
<path d="M11.1442 0.888676C9.02697 0.888676 6.95732 1.51649 5.19694 2.69274C3.43657 3.86899 2.06452 5.54083 1.2543 7.49686C0.444091 9.45289 0.232103 11.6052 0.645146 13.6818C1.05819 15.7583 2.07771 17.6657 3.57479 19.1627C5.07187 20.6598 6.97926 21.6793 9.05577 22.0924C11.1323 22.5054 13.2846 22.2934 15.2407 21.4832C17.1967 20.673 18.8685 19.301 20.0448 17.5406C21.221 15.7802 21.8489 13.7106 21.8489 11.5934C21.85 10.1873 21.5739 8.79477 21.0364 7.49549C20.4988 6.19621 19.7104 5.01568 18.7161 4.02142C17.7218 3.02717 16.5413 2.23871 15.242 1.70116C13.9428 1.16361 12.5502 0.887516 11.1442 0.888676ZM11.1442 19.7793C9.52513 19.7793 7.94246 19.2992 6.59629 18.3997C5.25012 17.5003 4.2009 16.2218 3.58133 14.726C2.96175 13.2302 2.79964 11.5843 3.1155 9.99637C3.43136 8.40846 4.21099 6.94986 5.35582 5.80504C6.50064 4.66021 7.95924 3.88057 9.54716 3.56472C11.1351 3.24886 12.781 3.41097 14.2768 4.03055C15.7726 4.65012 17.051 5.69933 17.9505 7.0455C18.85 8.39168 19.3301 9.97434 19.3301 11.5934C19.3323 12.669 19.122 13.7344 18.7114 14.7285C18.3008 15.7227 17.6979 16.626 16.9373 17.3865C16.1767 18.1471 15.2735 18.75 14.2793 19.1606C13.2852 19.5712 12.2198 19.7815 11.1442 19.7793ZM14.2926 8.25603L10.6404 12.6638L8.12165 10.8377C7.55493 10.397 6.79931 10.5229 6.35852 11.0896C5.91774 11.6563 6.04368 12.412 6.6104 12.8527C7.36603 13.4195 8.18462 13.9862 8.94025 14.5529C9.50696 14.9307 10.0107 15.4974 10.7034 15.5604C10.8923 15.5604 11.1442 15.5604 11.3331 15.4345L11.7109 15.0567L14.5445 11.6563C15.0482 11.0267 15.552 10.4599 16.0557 9.83025C16.4335 9.32649 16.5595 8.69681 16.1187 8.19306L15.9298 8.00415C15.489 7.68931 14.7334 7.75227 14.2926 8.25603Z" fill="#3F3E8F"/>
</svg>
