<svg xmlns="http://www.w3.org/2000/svg" width="71" height="26" viewBox="0 0 71 26" fill="none">
  <g clip-path="url(#clip0_796_27464)">
    <path d="M0.016089 12.1321C1.00091 17.8014 6.57186 21.2532 12.1107 20.5903C17.8844 19.8993 22.654 15.2633 24.2977 9.78383C25.0472 7.28519 24.9101 4.39547 22.917 2.50175C21.1936 0.864356 18.5754 0.621809 16.768 2.26735C12.117 6.50161 17.1187 13.7031 19.9405 17.4415C23.6038 22.2947 29.2819 25.5053 35.3333 23.0851C40.7155 20.9326 46.294 16.2397 48.0262 10.5579C48.8166 7.96532 48.8913 4.78062 47.3646 2.42864C45.96 0.26458 43.142 -0.755266 40.8408 0.637919C35.8049 3.68679 38.4232 11.8025 40.6994 15.7816C43.9668 21.4932 50.197 25.3235 56.862 24.9944C62.9387 24.6943 68.3533 20.7865 70.465 15.0783C70.881 13.9539 69.0837 13.4687 68.6712 14.5838C65.42 23.372 54.4185 25.3794 47.1724 20.278C43.4837 17.6812 41.0368 13.5061 40.18 9.11318C39.7398 6.85687 39.5008 3.64441 41.7797 2.24426C44.566 0.532378 46.5037 4.06019 46.6842 6.36982C47.0788 11.4214 43.4172 15.6372 39.6172 18.4458C35.6199 21.4003 31.0033 23.4414 26.2837 20.789C22.2824 18.5402 19.3482 13.9666 17.5273 9.8531C16.6293 7.82423 16.174 4.87562 18.3184 3.42026C20.8197 1.72274 22.9161 4.93689 22.8728 7.15686C22.775 12.1658 18.1899 17.1622 13.5191 18.4328C8.38328 19.8299 2.76146 17.115 1.80996 11.6376C1.60545 10.4603 -0.18764 10.9593 0.016089 12.1321Z" fill="#01010C"/>
  </g>
  <defs>
    <clipPath id="clip0_796_27464">
      <rect width="70.527" height="25.014" fill="white"/>
    </clipPath>
  </defs>
</svg>