<svg width="49" height="51" viewBox="0 0 49 51" fill="none" xmlns="http://www.w3.org/2000/svg">
<g clip-path="url(#clip0_8981_31613)">
<path d="M22.5593 49.2295C13.3202 44.1194 6.14999 35.509 2.9328 25.4348C1.39118 20.6075 0.732788 15.0451 2.68125 10.2301C4.62168 5.43498 9.31201 2.52436 14.4614 2.76452C19.945 3.02026 24.2708 7.2588 25.2165 12.5815C25.2991 13.0467 25.5542 13.83 24.8749 13.933C24.2244 14.0315 24.2353 13.2875 24.2055 12.828C24.0962 11.1422 24.557 9.51002 25.4411 8.0807C26.8407 5.81789 29.1155 4.19843 31.4739 3.05065C34.1194 1.76316 37.2758 0.987734 40.1664 1.87479C42.7419 2.66515 44.6929 4.74052 45.8394 7.1201C48.359 12.35 46.9871 18.9206 45.153 24.1602C41.3249 35.0958 32.7266 44.6777 21.9814 49.1539C21.1033 49.5198 21.4886 50.9718 22.3802 50.6004C33.6438 45.9081 42.5857 36.0418 46.5994 24.559C48.6587 18.6676 49.9948 11.257 46.71 5.5573C45.2778 3.07228 42.9849 1.03585 40.1673 0.317354C37.1095 -0.462416 33.9009 0.285344 31.0955 1.57573C28.3607 2.8336 25.7489 4.73199 24.1459 7.32364C23.3552 8.60189 22.8582 10.0335 22.7259 11.5327C22.6245 12.6809 22.5496 14.3506 23.6198 15.1006C24.2341 15.5311 25.0922 15.548 25.7525 15.2143C26.743 14.7139 26.8954 13.7445 26.7525 12.7414C26.3268 9.75422 24.9118 6.89268 22.7422 4.78586C18.664 0.825674 12.2703 0.241724 7.31258 2.85735C2.06658 5.62505 -0.0708819 11.5215 0.00178809 17.1741C0.0891381 23.9684 2.81292 30.7237 6.51185 36.3389C10.3836 42.2164 15.6424 47.1178 21.8023 50.5247C22.6476 50.9923 23.4052 49.6974 22.5593 49.2295Z" fill="#01010C"/>
</g>
<defs>
<clipPath id="clip0_8981_31613">
<rect width="48.6943" height="50.6606" fill="white"/>
</clipPath>
</defs>
</svg>
